<?xml version="1.0" encoding="UTF-8" standalone="no"?>
<!-- Generated by Graphviz version 2.16 (Mon Nov 12 09:28:05 UTC 2007)
     For user: (mendes) Pedro Mendes,,, -->
<!-- Title: Copasi_Web_Services Pages: 1 -->
<svg
   xmlns:dc="http://purl.org/dc/elements/1.1/"
   xmlns:cc="http://web.resource.org/cc/"
   xmlns:rdf="http://www.w3.org/1999/02/22-rdf-syntax-ns#"
   xmlns:svg="http://www.w3.org/2000/svg"
   xmlns="http://www.w3.org/2000/svg"
   xmlns:sodipodi="http://sodipodi.sourceforge.net/DTD/sodipodi-0.dtd"
   xmlns:inkscape="http://www.inkscape.org/namespaces/inkscape"
   width="1052.3622"
   height="744.09448"
   viewBox="0 0 663 352"
   id="svg2"
   sodipodi:version="0.32"
   inkscape:version="0.45"
   sodipodi:docname="projectplan.svg"
   sodipodi:docbase="/home/mendes/Copasi/copasi_dev/CopasiWS"
   inkscape:output_extension="org.inkscape.output.svg.inkscape"
   version="1.0"
   sodipodi:modified="true">
  <metadata
     id="metadata189">
    <rdf:RDF>
      <cc:Work
         rdf:about="">
        <dc:format>image/svg+xml</dc:format>
        <dc:type
           rdf:resource="http://purl.org/dc/dcmitype/StillImage" />
      </cc:Work>
    </rdf:RDF>
  </metadata>
  <defs
     id="defs187">
    <title
       id="title5">Copasi_Web_Services</title>
    <title
       id="title131">manuscript describing CopasiWS</title>
    <title
       id="title33">manuscript describing SBDML</title>
    <title
       id="title159">Tomcat installation @ turing</title>
  </defs>
  <sodipodi:namedview
     inkscape:window-height="948"
     inkscape:window-width="1208"
     inkscape:pageshadow="2"
     inkscape:pageopacity="0.0"
     guidetolerance="10.0"
     gridtolerance="10.0"
     objecttolerance="10.0"
     borderopacity="1.0"
     bordercolor="#666666"
     pagecolor="#ffffff"
     id="base"
     width="1052.3622px"
     height="744.09449px"
     inkscape:zoom="0.82051282"
     inkscape:cx="414.375"
     inkscape:cy="366.25"
     inkscape:window-x="0"
     inkscape:window-y="0"
     inkscape:current-layer="svg2" />
  <polygon
     id="polygon7"
     points="-4,4 -4,-348 659,-348 659,4 -4,4 "
     style="fill:#ffffff;stroke:#ffffff"
     transform="translate(4,348)" />
  <text
     id="text9"
     style="font-size:11.34020226px;font-style:normal;font-variant:normal;font-weight:bold;font-stretch:normal;text-align:center;line-height:125%;writing-mode:lr;text-anchor:middle;font-family:Arial"
     y="-23.146008"
     x="331"
     sodipodi:linespacing="125%">Copasi Web Services, task dependencies</text>
  <g
     class="node"
     id="node1"
     transform="translate(4,348)">
    <title
       id="title12">SBDML schema</title>
    <polygon
       id="polygon14"
       points="206.876,-344 119.124,-344 119.124,-308 206.876,-308 206.876,-344 "
       style="fill:none;stroke:#000000" />
    <text
       id="text16"
       style="font-size:10px;text-anchor:middle;font-family:Arial"
       y="-323"
       x="163">SBDML schema</text>
  </g>
  <g
     class="node"
     id="node3"
     transform="translate(4,348)">
    <title
       id="title19">COPASI implementation of SBDML</title>
    <polygon
       id="polygon21"
       points="391,-272 219,-272 219,-236 391,-236 391,-272 "
       style="fill:none;stroke:#000000" />
    <text
       id="text23"
       style="font-size:10px;text-anchor:middle;font-family:Arial"
       y="-251"
       x="305">COPASI implementation of SBDML</text>
  </g>
  <g
     class="edge"
     id="edge2"
     transform="translate(4,348)">
    <title
       id="title26">SBDML schema-&gt;COPASI implementation of SBDML</title>
    <path
       id="path28"
       d="M 199,-308 C 218,-298 241,-287 261,-277"
       style="fill:none;stroke:#000000" />
    <polygon
       id="polygon30"
       points="262.958,-279.916 270,-272 259.559,-273.797 262.958,-279.916 "
       style="fill:#000000;stroke:#000000" />
  </g>
  <polygon
     style="fill:#0000e3;stroke:#000000;fill-opacity:0.13333334"
     points="200.875,-272 49.125,-272 49.125,-236 200.875,-236 200.875,-272 "
     id="polygon35"
     transform="translate(4,348)" />
  <text
     x="129"
     y="97"
     style="font-size:10px;text-anchor:middle;font-family:Arial"
     id="text37">manuscript describing SBDML</text>
  <g
     class="edge"
     id="edge4"
     transform="translate(4,348)">
    <title
       id="title40">SBDML schema-&gt;manuscript describing SBDML</title>
    <path
       id="path42"
       d="M 153,-308 C 149,-300 144,-290 139,-281"
       style="fill:none;stroke:#000000" />
    <polygon
       id="polygon44"
       points="141.916,-279.042 134,-272 135.797,-282.441 141.916,-279.042 "
       style="fill:#000000;stroke:#000000" />
  </g>
  <g
     class="node"
     id="node16"
     transform="translate(4,348)">
    <title
       id="title47">Prototype server @ turing</title>
    <polygon
       id="polygon49"
       points="505.124,-200 376.876,-200 376.876,-164 505.124,-164 505.124,-200 "
       style="fill:none;stroke:#000000" />
    <text
       id="text51"
       style="font-size:10px;text-anchor:middle;font-family:Arial"
       y="-179"
       x="441">Prototype server @ turing</text>
  </g>
  <g
     class="edge"
     id="edge14"
     transform="translate(4,348)">
    <title
       id="title54">COPASI implementation of SBDML-&gt;Prototype server @ turing</title>
    <path
       id="path56"
       d="M 339,-236 C 357,-227 380,-215 398,-205"
       style="fill:none;stroke:#000000" />
    <polygon
       id="polygon58"
       points="399.958,-207.916 407,-200 396.559,-201.797 399.958,-207.916 "
       style="fill:#000000;stroke:#000000" />
  </g>
  <g
     class="node"
     id="node7"
     transform="translate(19.120266,348)">
    <title
       id="title61">Proposal of SBDML as standard to the SBML Forum</title>
    <polygon
       id="polygon63"
       points="250.249,-200 -0.249004,-200 -0.249004,-164 250.249,-164 250.249,-200 "
       style="fill:none;stroke:#000000" />
    <text
       id="text65"
       style="font-size:10px;text-anchor:middle;font-family:Arial"
       y="-179"
       x="125">Proposal of SBDML as standard to the SBML Forum</text>
  </g>
  <g
     class="edge"
     id="edge6"
     transform="translate(4,348)">
    <title
       id="title68">manuscript describing SBDML-&gt;Proposal of SBDML as standard to the SBML Forum</title>
    <path
       id="path70"
       d="M 125,-236 C 125,-228 125,-219 125,-210"
       style="fill:none;stroke:#000000" />
    <polygon
       id="polygon72"
       points="128.5,-210 125,-200 121.5,-210 128.5,-210 "
       style="fill:#000000;stroke:#000000" />
  </g>
  <g
     class="node"
     id="node8"
     transform="translate(4,348)">
    <title
       id="title75">CopasiWS specification</title>
    <polygon
       id="polygon77"
       points="384.124,-344 261.876,-344 261.876,-308 384.124,-308 384.124,-344 "
       style="fill:none;stroke:#000000" />
    <text
       id="text79"
       style="font-size:10px;text-anchor:middle;font-family:Arial"
       y="-323"
       x="323">CopasiWS specification</text>
  </g>
  <g
     class="node"
     id="node10"
     transform="translate(4,348)">
    <title
       id="title82">CopasiWS</title>
    <polygon
       id="polygon84"
       points="472.877,-272 409.123,-272 409.123,-236 472.877,-236 472.877,-272 "
       style="fill:none;stroke:#000000" />
    <text
       id="text86"
       style="font-size:10px;text-anchor:middle;font-family:Arial"
       y="-251"
       x="441">CopasiWS</text>
  </g>
  <g
     class="edge"
     id="edge8"
     transform="translate(4,348)">
    <title
       id="title89">CopasiWS specification-&gt;CopasiWS</title>
    <path
       id="path91"
       d="M 353,-308 C 368,-299 387,-287 403,-277"
       style="fill:none;stroke:#000000" />
    <polygon
       id="polygon93"
       points="404.958,-279.916 412,-272 401.559,-273.797 404.958,-279.916 "
       style="fill:#000000;stroke:#000000" />
  </g>
  <g
     class="edge"
     id="edge16"
     transform="translate(4,348)">
    <title
       id="title96">CopasiWS-&gt;Prototype server @ turing</title>
    <path
       id="path98"
       d="M 441,-236 C 441,-228 441,-219 441,-210"
       style="fill:none;stroke:#000000" />
    <polygon
       id="polygon100"
       points="444.5,-210 441,-200 437.5,-210 444.5,-210 "
       style="fill:#000000;stroke:#000000" />
  </g>
  <g
     class="node"
     id="node11"
     transform="translate(4,348)">
    <title
       id="title103">wsdl definition</title>
    <polygon
       id="polygon105"
       points="480.125,-344 401.875,-344 401.875,-308 480.125,-308 480.125,-344 "
       style="fill:none;stroke:#000000" />
    <text
       id="text107"
       style="font-size:10px;text-anchor:middle;font-family:Arial"
       y="-323"
       x="441">wsdl definition</text>
  </g>
  <g
     class="edge"
     id="edge10"
     transform="translate(4,348)">
    <title
       id="title110">wsdl definition-&gt;CopasiWS</title>
    <path
       id="path112"
       d="M 441,-308 C 441,-300 441,-291 441,-282"
       style="fill:none;stroke:#000000" />
    <polygon
       id="polygon114"
       points="444.5,-282 441,-272 437.5,-282 444.5,-282 "
       style="fill:#000000;stroke:#000000" />
  </g>
  <g
     class="node"
     id="node13"
     transform="translate(4,348)">
    <title
       id="title117">jsdl definition</title>
    <polygon
       id="polygon119"
       points="571.875,-344 498.125,-344 498.125,-308 571.875,-308 571.875,-344 "
       style="fill:none;stroke:#000000" />
    <text
       id="text121"
       style="font-size:10px;text-anchor:middle;font-family:Arial"
       y="-323"
       x="535">jsdl definition</text>
  </g>
  <g
     class="edge"
     id="edge12"
     transform="translate(4,348)">
    <title
       id="title124">jsdl definition-&gt;CopasiWS</title>
    <path
       id="path126"
       d="M 511,-308 C 500,-299 485,-288 472,-278"
       style="fill:none;stroke:#000000" />
    <polygon
       id="polygon128"
       points="474.1,-275.2 464,-272 469.9,-280.8 474.1,-275.2 "
       style="fill:#000000;stroke:#000000" />
  </g>
  <polygon
     style="fill:#0000e4;stroke:#000000;fill-opacity:0.13513513"
     points="428,-128 262,-128 262,-92 428,-92 428,-128 "
     id="polygon133"
     transform="translate(4,348)" />
  <text
     x="349"
     y="241"
     style="font-size:10px;text-anchor:middle;font-family:Arial"
     id="text135">manuscript describing CopasiWS</text>
  <g
     class="edge"
     id="edge20"
     transform="translate(4,348)">
    <title
       id="title138">Prototype server @ turing-&gt;manuscript describing CopasiWS</title>
    <path
       id="path140"
       d="M 417,-164 C 405,-155 390,-144 377,-134"
       style="fill:none;stroke:#000000" />
    <polygon
       id="polygon142"
       points="379.1,-131.2 369,-128 374.9,-136.8 379.1,-131.2 "
       style="fill:#000000;stroke:#000000" />
  </g>
  <g
     class="node"
     id="node23"
     transform="translate(4,348)">
    <title
       id="title145">Security implementation in CopasiWS</title>
    <polygon
       id="polygon147"
       points="628.124,-128 445.876,-128 445.876,-92 628.124,-92 628.124,-128 "
       style="fill:none;stroke:#000000" />
    <text
       id="text149"
       style="font-size:10px;text-anchor:middle;font-family:Arial"
       y="-107"
       x="537">Security implementation in CopasiWS</text>
  </g>
  <g
     class="edge"
     id="edge22"
     transform="translate(4,348)">
    <title
       id="title152">Prototype server @ turing-&gt;Security implementation in CopasiWS</title>
    <path
       id="path154"
       d="M 465,-164 C 477,-155 492,-144 505,-134"
       style="fill:none;stroke:#000000" />
    <polygon
       id="polygon156"
       points="507.1,-136.8 513,-128 502.9,-131.2 507.1,-136.8 "
       style="fill:#000000;stroke:#000000" />
  </g>
  <polygon
     style="fill:#f7fb00;stroke:#000000;fill-opacity:0.13333334"
     points="631.25,-272 490.75,-272 490.75,-236 631.25,-236 631.25,-272 "
     id="polygon161"
     transform="translate(4,348)" />
  <text
     x="565"
     y="97"
     style="font-size:10px;text-anchor:middle;font-family:Arial"
     id="text163">Tomcat installation @ turing</text>
  <g
     class="edge"
     id="edge18"
     transform="translate(4,348)">
    <title
       id="title166">Tomcat installation @ turing-&gt;Prototype server @ turing</title>
    <path
       id="path168"
       d="M 531,-236 C 515,-227 496,-215 480,-205"
       style="fill:none;stroke:#000000" />
    <polygon
       id="polygon170"
       points="481.441,-201.797 471,-200 478.042,-207.916 481.441,-201.797 "
       style="fill:#000000;stroke:#000000" />
  </g>
  <g
     class="node"
     id="node25"
     transform="translate(4,348)">
    <title
       id="title173">Improvements to CopasiWS: security, quotas, etc.</title>
    <polygon
       id="polygon175"
       points="655.124,-56 418.876,-56 418.876,-20 655.124,-20 655.124,-56 "
       style="fill:none;stroke:#000000" />
    <text
       id="text177"
       style="font-size:10px;text-anchor:middle;font-family:Arial"
       y="-35"
       x="537">Improvements to CopasiWS: security, quotas, etc.</text>
  </g>
  <g
     class="edge"
     id="edge24"
     transform="translate(4,348)">
    <title
       id="title180">Security implementation in CopasiWS-&gt;Improvements to CopasiWS: security, quotas, etc.</title>
    <path
       id="path182"
       d="M 537,-92 C 537,-84 537,-75 537,-66"
       style="fill:none;stroke:#000000" />
    <polygon
       id="polygon184"
       points="540.5,-66 537,-56 533.5,-66 540.5,-66 "
       style="fill:#000000;stroke:#000000" />
  </g>
</svg>
