/* XPM */
static char const * film_strip_xpm[] = {
"48 48 81 1",
" 	c None",
".	c #000000",
"+	c #1C1C1C",
"@	c #DCDCE0",
"#	c #303031",
"$	c #676769",
"%	c #C1C1C4",
"&	c #BABABD",
"*	c #757577",
"=	c #29292A",
"-	c #C8C8CB",
";	c #606062",
">	c #373738",
",	c #151515",
"'	c #1F1F20",
")	c #FBFBFF",
"!	c #767678",
"~	c #D5D5D8",
"{	c #868688",
"]	c #2F2F30",
"^	c #E4E4E8",
"/	c #6E6E70",
"(	c #3F3F40",
"_	c #181818",
":	c #050505",
"<	c #090909",
"[	c #232324",
"}	c #0C0C0C",
"|	c #040405",
"1	c #0F0F0F",
"2	c #1F1F1F",
"3	c #161616",
"4	c #0B0B0B",
"5	c #080808",
"6	c #121212",
"7	c #212121",
"8	c #131313",
"9	c #080809",
"0	c #030303",
"a	c #010102",
"b	c #BFBFC2",
"c	c #9B9B9D",
"d	c #B3B3B6",
"e	c #39393A",
"f	c #151516",
"g	c #474748",
"h	c #3A3A3B",
"i	c #434344",
"j	c #1A1A1B",
"k	c #3D3D3E",
"l	c #F4F4F8",
"m	c #919193",
"n	c #BEBEC1",
"o	c #6A6A6C",
"p	c #444445",
"q	c #171717",
"r	c #99999B",
"s	c #B7B7BA",
"t	c #070707",
"u	c #545455",
"v	c #5C5C5D",
"w	c #969698",
"x	c #C5C5C8",
"y	c #ECECF0",
"z	c #9D9DA0",
"A	c #BDBDC0",
"B	c #575758",
"C	c #5E5E60",
"D	c #353536",
"E	c #1B1B1B",
"F	c #7E7E80",
"G	c #A5A5A8",
"H	c #C7C7CA",
"I	c #5D5D5E",
"J	c #3B3B3C",
"K	c #141414",
"L	c #858587",
"M	c #9F9FA2",
"N	c #060606",
"O	c #49494A",
"P	c #505051",
"                                                ",
"                                                ",
"                                                ",
"                                                ",
"                                                ",
"                                                ",
"        ....             ...              ...   ",
".+@@#...$@%....&@*...=@@=...*@&....-@;...>@@,...",
".'))>...!)@....~){...]))]...{)~....^)/...())_...",
".'))>...!)@....~){...]))]...{)~....^)/...())_...",
":<[[}::|1'+.:::2[3:::4[[5...6[2::::7[8:::9''0a::",
"bbbbbbbc....dbbbbbbbbbbbe...=bbbbbbbbbbbbf...gbb",
"bbbbbbbc....dbbbbbbbbbbbe...=bbbbbbbbbbbbf...gbb",
"bbbbbbbc....dbbbbbbbbbbbe...=bbbbbbbbbbbbf...gbb",
"bbbbbbbc....dbbbbbbbbbbbe...=bbbbbbbbbbbbf...gbb",
"bbbbbbbc....dbbbbbbbbbbbe...=bbbbbbbbbbbbf...gbb",
"bbbbbbbc....dbbbbbbbbbbbe...=bbbbbbbbbbbbf...gbb",
"bbbbbbbc....dbbbbbbbbbbbe...=bbbbbbbbbbbbf...gbb",
"bbbbbbbc....dbbbbbbbbbbbe...=bbbbbbbbbbbbf...gbb",
"bbbbbbbc....dbbbbbbbbbbbe...=bbbbbbbbbbbbf...gbb",
"bbbbbbbc....dbbbbbbbbbbbe...=bbbbbbbbbbbbf...gbb",
"bbbbbbbc....dbbbbbbbbbbbe...=bbbbbbbbbbbbf...gbb",
"bbbbbbbc....dbbbbbbbbbbbe...=bbbbbbbbbbbbf...gbb",
"bbbbbbbc....dbbbbbbbbbbbe...=bbbbbbbbbbbbf...gbb",
"bbbbbbbc....dbbbbbbbbbbbe...=bbbbbbbbbbbbf...gbb",
"bbbbbbbc....dbbbbbbbbbbbe...=bbbbbbbbbbbbf...gbb",
"bbbbbbbc....dbbbbbbbbbbbe...=bbbbbbbbbbbbf...gbb",
"bbbbbbbc....dbbbbbbbbbbbe...=bbbbbbbbbbbbf...gbb",
"bbbbbbbc....dbbbbbbbbbbbe...=bbbbbbbbbbbbf...gbb",
"bbbbbbbc....dbbbbbbbbbbbe...=bbbbbbbbbbbbf...gbb",
"bbbbbbbc....dbbbbbbbbbbbe...=bbbbbbbbbbbbf...gbb",
"bbbbbbbc....dbbbbbbbbbbbe...=bbbbbbbbbbbbf...gbb",
"bbbbbbbc....dbbbbbbbbbbbe...=bbbbbbbbbbbbf...gbb",
"bbbbbbbc....dbbbbbbbbbbbe...=bbbbbbbbbbbbf...gbb",
"gggggggh....iggggggggggg,...1gggggggggggg5...jgg",
".kll2...mln....^lo...pllq...rls...tllu...vll....",
".())'...w)x....y)/...g))_...z)A...5))B...C))....",
".D~~E...F~G....H~I...J~~K...L~M...N~~O...P~~....",
"................................................",
"                                                ",
"                                                ",
"                                                ",
"                                                ",
"                                                ",
"                                                ",
"                                                ",
"                                                ",
"                                                "};
