/* XPM */
static const char * forward_single_xpm[] = {
"36 17 2 1",
" 	c None",
".	c #000000",
"                                    ",
"                                    ",
"  ..             ..                 ",
"  ....           ....               ",
"  ......         ......             ",
"  ........       ........           ",
"  ..........     ..........         ",
"  .............  ............       ",
"  .............. ..............     ",
"  .............  ............       ",
"  ..........     ..........         ",
"  ........       ........           ",
"  ......         ......             ",
"  ....           ....               ",
"  ..             ..                 ",
"                                    ",
"                                    "};
