/* XPM */
static const char * forward_xpm[] = {
"36 16 2 1",
" 	c None",
".	c #000000",
"                                    ",
"                               ...  ",
"  ..            ..             ...  ",
"  ....          ....           ...  ",
"  ......        .......        ...  ",
"  .........     .........      ...  ",
"  ...........   ...........    ...  ",
"  ............. .............  ...  ",
"  ............. .............  ...  ",
"  ...........   ...........    ...  ",
"  .........     .........      ...  ",
"  ......        .......        ...  ",
"  ....          ....           ...  ",
"  ..            ..             ...  ",
"                               ...  ",
"                                    "};
