/* XPM */
static const char * graph_xpm[] = {
"48 48 353 2",
"  	c None",
". 	c #FFFFFF",
"+ 	c #F8F8F8",
"@ 	c #B6B6B6",
"# 	c #8F9192",
"$ 	c #6E7175",
"% 	c #5C6164",
"& 	c #76797C",
"* 	c #959899",
"= 	c #C5C5C5",
"- 	c #FEFEFE",
"; 	c #E8E8E8",
"> 	c #62666A",
", 	c #424C51",
"' 	c #6A8591",
") 	c #84A9BA",
"! 	c #98C2D6",
"~ 	c #A4D2E7",
"{ 	c #93BCCF",
"] 	c #7FA3B3",
"^ 	c #607882",
"/ 	c #42494E",
"( 	c #787C7E",
"_ 	c #F9F9F9",
": 	c #EDEDED",
"< 	c #A6A7A7",
"[ 	c #737879",
"} 	c #5E6365",
"| 	c #53575A",
"1 	c #51585C",
"2 	c #CCCCCC",
"3 	c #3A4144",
"4 	c #90B8CB",
"5 	c #A8D7ED",
"6 	c #7C9DAD",
"7 	c #43484A",
"8 	c #E9E9E9",
"9 	c #9B9D9E",
"0 	c #494F52",
"a 	c #4E5C63",
"b 	c #7393A1",
"c 	c #9FCCE1",
"d 	c #3F4648",
"e 	c #A0CDE2",
"f 	c #8CB3C5",
"g 	c #686C6E",
"h 	c #E1E1E1",
"i 	c #DFDFDF",
"j 	c #E5E5E5",
"k 	c #EBEBEB",
"l 	c #F1F1F1",
"m 	c #F7F7F7",
"n 	c #FDFDFD",
"o 	c #E6E6E6",
"p 	c #464B4E",
"q 	c #6A8491",
"r 	c #A7D6EC",
"s 	c #E4E4E4",
"t 	c #4C5960",
"u 	c #3E4648",
"v 	c #2C2C2C",
"w 	c #000000",
"x 	c #030303",
"y 	c #BCBCBC",
"z 	c #626668",
"A 	c #8EB6C9",
"B 	c #3D4448",
"C 	c #A7D5EB",
"D 	c #5B6264",
"E 	c #B3B3B3",
"F 	c #A0A0A0",
"G 	c #9A9A9A",
"H 	c #949494",
"I 	c #8E8E8E",
"J 	c #888888",
"K 	c #828282",
"L 	c #7C7C7C",
"M 	c #DDDDDD",
"N 	c #394043",
"O 	c #B5B7B8",
"P 	c #9CC8DC",
"Q 	c #8CB4C6",
"R 	c #DCDCDC",
"S 	c #757779",
"T 	c #7A9EAC",
"U 	c #D6D6D6",
"V 	c #4E5457",
"W 	c #4D5C63",
"X 	c #7B9EAE",
"Y 	c #94BDD0",
"Z 	c #7390A0",
"` 	c #475257",
" .	c #D8D8D8",
"..	c #F4F4F4",
"+.	c #676B6D",
"@.	c #4E6067",
"#.	c #9AC5D9",
"$.	c #E7E7E7",
"%.	c #919595",
"&.	c #6A7073",
"*.	c #4F5659",
"=.	c #4B5254",
"-.	c #555A5D",
";.	c #717677",
">.	c #A3A3A5",
",.	c #F3F3F3",
"'.	c #979797",
").	c #0F0F0F",
"!.	c #CACACA",
"~.	c #424A4E",
"{.	c #5A6D76",
"].	c #7191A0",
"^.	c #80A4B4",
"/.	c #8FB7CA",
"(.	c #80A4B5",
"_.	c #D2D2D2",
":.	c #818181",
"<.	c #E3E3E3",
"[.	c #222222",
"}.	c #101010",
"|.	c #CBCBCB",
"1.	c #A9A9AA",
"2.	c #8F9193",
"3.	c #56595C",
"4.	c #727777",
"5.	c #A2A2A2",
"6.	c #DBDBDB",
"7.	c #E2E2E2",
"8.	c #212121",
"9.	c #111111",
"0.	c #CDCDCD",
"a.	c #AEAEAE",
"b.	c #D0D0D0",
"c.	c #202020",
"d.	c #CECECE",
"e.	c #D3D3D3",
"f.	c #AAAAAA",
"g.	c #BABABA",
"h.	c #C4C4C4",
"i.	c #E0E0E0",
"j.	c #1F1F1F",
"k.	c #121212",
"l.	c #B8B8B8",
"m.	c #C6C6C6",
"n.	c #DEDEDE",
"o.	c #1E1E1E",
"p.	c #131313",
"q.	c #D1D1D1",
"r.	c #9E9E9E",
"s.	c #ADADAD",
"t.	c #1D1D1D",
"u.	c #141414",
"v.	c #838383",
"w.	c #020202",
"x.	c #FAFAFA",
"y.	c #A1A1A1",
"z.	c #1C1C1C",
"A.	c #151515",
"B.	c #D4D4D4",
"C.	c #696969",
"D.	c #181818",
"E.	c #959595",
"F.	c #1B1B1B",
"G.	c #161616",
"H.	c #D5D5D5",
"I.	c #4E4E4E",
"J.	c #333333",
"K.	c #F6F6F6",
"L.	c #454545",
"M.	c #AFAFAF",
"N.	c #DADADA",
"O.	c #1A1A1A",
"P.	c #171717",
"Q.	c #747474",
"R.	c #191919",
"S.	c #8C8C8C",
"T.	c #7F8284",
"U.	c #51575A",
"V.	c #495153",
"W.	c #474F53",
"X.	c #485153",
"Y.	c #4A5153",
"Z.	c #4E5456",
"`.	c #6D7173",
" +	c #B9B9B9",
".+	c #EEEEEE",
"++	c #979A9A",
"@+	c #474E51",
"#+	c #434D51",
"$+	c #465358",
"%+	c #56676F",
"&+	c #526167",
"*+	c #434F52",
"=+	c #434D4F",
"-+	c #53585B",
";+	c #B1B3B4",
">+	c #7B7F80",
",+	c #434D50",
"'+	c #5D727B",
")+	c #85AABC",
"!+	c #95BFD2",
"~+	c #698591",
"{+	c #485358",
"]+	c #585D60",
"^+	c #9C9E9F",
"/+	c #3E474C",
"(+	c #7492A2",
"_+	c #A3D1E6",
":+	c #657F8C",
"<+	c #3C4347",
"[+	c #CECFCF",
"}+	c #3C4246",
"|+	c #7C9EAE",
"1+	c #92BBCE",
"2+	c #404C51",
"3+	c #9B9EA0",
"4+	c #878A8C",
"5+	c #657C87",
"6+	c #A1CEE3",
"7+	c #465258",
"8+	c #505659",
"9+	c #9DC9DD",
"0+	c #EFEFEF",
"a+	c #FCFCFC",
"b+	c #3B4246",
"c+	c #96BFD3",
"d+	c #5B6063",
"e+	c #3E474A",
"f+	c #596E78",
"g+	c #FBFBFB",
"h+	c #3C4448",
"i+	c #98C3D7",
"j+	c #575C5D",
"k+	c #808485",
"l+	c #6E8B99",
"m+	c #454A4E",
"n+	c #797D7E",
"o+	c #6E8A96",
"p+	c #49565E",
"q+	c #C8C8C8",
"r+	c #84878A",
"s+	c #455155",
"t+	c #86ACBE",
"u+	c #94BED1",
"v+	c #586A74",
"w+	c #5B6062",
"x+	c #898B8D",
"y+	c #465259",
"z+	c #82A7B8",
"A+	c #A3D0E6",
"B+	c #7393A0",
"C+	c #3B4347",
"D+	c #BDBFC0",
"E+	c #828487",
"F+	c #4B5356",
"G+	c #4A575D",
"H+	c #617680",
"I+	c #6C8793",
"J+	c #7899A9",
"K+	c #7D9FB0",
"L+	c #6E8C9B",
"M+	c #657C86",
"N+	c #515F67",
"O+	c #485052",
"P+	c #C6C8C8",
"Q+	c #84898A",
"R+	c #434A4E",
"S+	c #495359",
"T+	c #54646C",
"U+	c #647A84",
"V+	c #60757F",
"W+	c #4E5D64",
"X+	c #475056",
"Y+	c #4C5154",
"Z+	c #9FA1A3",
"`+	c #F5F5F5",
" @	c #9C9D9E",
".@	c #8E9091",
"+@	c #9E9EA0",
"@@	c #C7C7C7",
"#@	c #505050",
"$@	c #0D0D0D",
"%@	c #626262",
"&@	c #434343",
"*@	c #7F7F7F",
"=@	c #A9A9A9",
"-@	c #0A0A0A",
";@	c #555555",
">@	c #292929",
",@	c #060606",
"'@	c #C0C0C0",
")@	c #5D5D5D",
"!@	c #8D8D8D",
"~@	c #D9D9D9",
"{@	c #848484",
"]@	c #D7D7D7",
"^@	c #ACACAC",
"/@	c #949596",
"(@	c #656A6C",
"_@	c #6E7173",
":@	c #85888B",
"<@	c #9D9F9F",
"[@	c #F2F2F2",
"}@	c #545454",
"|@	c #808081",
"1@	c #566971",
"2@	c #6F8F9D",
"3@	c #7EA1B2",
"4@	c #9AC4D9",
"5@	c #86ABBD",
"6@	c #7799A8",
"7@	c #67838F",
"8@	c #49545B",
"9@	c #474E52",
"0@	c #808386",
"a@	c #EAEAEA",
"b@	c #576971",
"c@	c #82A6B7",
"d@	c #3D474A",
"e@	c #9EA0A2",
"f@	c #565B5D",
"g@	c #8BB2C4",
"h@	c #4E5E66",
"i@	c #ECECEC",
"j@	c #444E55",
"k@	c #575A5E",
"l@	c #484E50",
"m@	c #617983",
"n@	c #B2B2B3",
"o@	c #D6D7D7",
"p@	c #444C4D",
"q@	c #728F9D",
"r@	c #9BC7DB",
"s@	c #4F5F66",
"t@	c #727778",
"u@	c #949598",
"v@	c #494F53",
"w@	c #4D5B62",
"x@	c #71909D",
"y@	c #8EB5C8",
"z@	c #9BC6DA",
"A@	c #A2CFE5",
"B@	c #84A9BB",
"C@	c #627782",
"D@	c #475054",
"E@	c #575D5F",
"F@	c #ADADAE",
"G@	c #7E8184",
"H@	c #666A6E",
"I@	c #4C5356",
"J@	c #596061",
"K@	c #6F7476",
"L@	c #8D9091",
". . . . . . . . . . . . . . . . . . . . . . . . . . . . . . . . . . . . . . . . . . . . . . . . ",
". . . . . . . . . . . . . . . . . . . . . . . . . . . . . . . . . . . . . . . . . . . . . . . . ",
". . . . . . . . . . . . . . . . . . . . . . . . . . . . . . . . . . . . . . . . . . . . . . . . ",
". . . . . . + @ # $ % & * = - . . . . . . . . . . . . . . . . . . . . . . . . . . . . . . . . . ",
". . . . ; > , ' ) ! ~ { ] ^ / ( _ . . . . . . . . . . . . . . : < [ } | 1 | } [ < : . . . . . . ",
". . . 2 3 4 5 5 5 5 5 5 5 5 5 6 7 8 . . . . . . . . . . - 9 0 a b 4 c 5 5 5 c 4 b a 0 9 - . . . ",
". . . d e 5 5 5 5 5 5 5 5 5 5 5 f g h i j k l m n . . o p q r 5 5 5 5 5 5 5 5 5 5 5 r q p o . . ",
". . s t 5 5 5 5 5 5 5 5 5 5 5 5 5 u v w w w w w w x y z A 5 5 5 5 5 5 5 5 5 5 5 5 5 5 5 A z . . ",
". . . B C 5 5 5 5 5 5 5 5 5 5 5 ! D E F G H I J K L M N 5 5 5 5 5 5 5 5 5 5 5 5 5 5 5 5 5 N . . ",
". . . O , P 5 5 5 5 5 5 5 5 5 Q B R . . . . . . . . . S T 5 5 5 5 5 5 5 5 5 5 5 5 5 5 5 T S . . ",
". . . . U V W X ! C 5 ~ Y Z ` }  .. . . . . . . . . . ..+.@.#.5 5 5 5 5 5 5 5 5 5 5 #.@.+.... . ",
". . . . . . $.%.&.*.=.-.;.>.,.'.).!.. . . . . . . . . . . 2 } ~.{.].^./.#./.(.].{.~.} 2 . . . . ",
". . . . . . . . . _.:.l . . . <.[.}.|.. . . . . . . . . . . . . _.1.2.& 3.4.2.1._.. . . . . . . ",
". . . . . . . . . 5.w 6.. . . . 7.8.9.0.. . . . . . . . . . . . . . . : w I . . . . . . . . . . ",
". . . . . . . . . a.w b.. . . . . h c.9.d.. . . . . . . . . . . . . . e.w f.. . . . . . . . . . ",
". . . . . . . . . g.w h.. . . . . . i.j.k.b.. . . . . . . . . . . . . l.w = . . . . . . . . . . ",
". . . . . . . . . m.w l.. . . . . . . n.o.p.q.. . . . . . . . . . . . r.w h . . . . . . . . . . ",
". . . . . . . . . q.w s.. . . . . . . . M t.u._.. . . . . . . . . . . v.w.x.. . . . . . . . . . ",
". . . . . . . . . M w y.. . . . . . . . . R z.A.B.. . . . . . . . . . C.D.. . . . . . . . . . . ",
". . . . . . . . . 8 w E.. . . . . . . . . . 6.F.G.H.. . . . . . . . . I.J.. . . . . . . . . . . ",
". . . . . . . . . K.L.M.. . . . . . . . . . . N.O.P.U . . . . . . . . Q.Q.. . . . . . . . . . . ",
". . . . . . . . . x.h ; - . . . . . . . . . . .  .R.S.. - d.T.U.=.V.W.X.Y.Z.`. ++ . . . . . . . ",
". . . . . .+++@+#+$+%+&+*+=+-+;+x.. . . . . . . . k m >+,+'+)+~ 5 5 5 5 5 C !+~+{+]+7.. . . . . ",
". . . . ^+/+(+_+5 5 5 5 5 5 #.:+<+[+. . . . . . . e.}+|+5 5 5 5 5 5 5 5 5 5 5 5 5 1+2+3+. . . . ",
". . . 4+5+5 5 5 5 5 5 5 5 5 5 5 6+7+b.. . . . . . 8+9+5 5 5 5 5 5 5 5 5 5 5 5 5 5 5 5 , 0+. . . ",
". . a+b+5 5 5 5 5 5 5 5 5 5 5 5 5 c+d+. . . . . n e+5 5 5 5 5 5 5 5 5 5 5 5 5 5 5 5 5 f+= . . . ",
". . g+h+5 5 5 5 5 5 5 5 5 5 5 5 5 i+j+. . . . . . k+l+5 5 5 5 5 5 5 5 5 5 5 5 5 5 5 A m+. . . . ",
". . . n+o+5 5 5 5 5 5 5 5 5 5 5 ~ p+q+. . . . . . g+r+s+t+r 5 5 5 5 5 5 5 5 5 5 u+v+w+8 . . . . ",
". . . . x+y+z+r 5 5 5 5 5 5 A+B+C+D+. . . . . . . . . j E+F+G+H+I+J+)+K+L+M+N+O+`.P+. . . . . . ",
". . . . . 7.Q+R+S+T+U+V+W+X+Y+Z+,.. . . . . . . . . . . . . `+0.a. @.@+@E @@8 . . . . . . . . . ",
". . . . . . . . . k q. .m.#@K.. . . . . . . . . . . . . . . . . :.$@.+. . . . . . . . . . . . . ",
". . . . . . . . . . . . y w.%@. . . . . . . . . . . . . . . . n j.&@. . . . . . . . . . . . . . ",
". . . . . . . . . . . . . *@w y.. . . . . . . . . . . . . . .  +w =@. . . . . . . . . . . . . . ",
". . . . . . . . . . . . . n &@-@H.. . . . . . . . . . . . . . ;@A._ . . . . . . . . . . . . . . ",
". . . . . . . . . . . . . . ; R.>@... . . . . . . . . . . . k ,@Q.. . . . . . . . . . . . . . . ",
". . . . . . . . . . . . . . . '@x )@. . . . . . . . . . . . !@w ~@. . . . . . . . . . . . . . . ",
". . . . . . . . . . . . . . . . {@w @ . ]@^@/@>+(@_@:@<@g.[@!@}@. . . . . . . . . . . . . . . . ",
". . . . . . . . . . . . . . . . - |@} ~.1@2@3@f 4@u+5@6@7@8@9@0@l . . . . . . . . . . . . . . . ",
". . . . . . . . . . . . . . . a@w+b@P 5 5 5 5 5 5 5 5 5 5 5 r c@d@e@. . . . . . . . . . . . . . ",
". . . . . . . . . . . . . . . f@g@5 5 5 5 5 5 5 5 5 5 5 5 5 5 5 r h@m.. . . . . . . . . . . . . ",
". . . . . . . . . . . . . . i@j@5 5 5 5 5 5 5 5 5 5 5 5 5 5 5 5 5 ! k@. . . . . . . . . . . . . ",
". . . . . . . . . . . . . . . l@P 5 5 5 5 5 5 5 5 5 5 5 5 5 5 5 5 m@n@. . . . . . . . . . . . . ",
". . . . . . . . . . . . . . . o@p@q@5 5 5 5 5 5 5 5 5 5 5 5 5 r@s@t@. . . . . . . . . . . . . . ",
". . . . . . . . . . . . . . . . n u@v@w@x@y@z@C 5 5 A@!+B@C@D@E@U . . . . . . . . . . . . . . . ",
". . . . . . . . . . . . . . . . . . . 0+F@G@H@U.=.I@J@K@L@0.n . . . . . . . . . . . . . . . . . ",
". . . . . . . . . . . . . . . . . . . . . . . . . . . . . . . . . . . . . . . . . . . . . . . . ",
". . . . . . . . . . . . . . . . . . . . . . . . . . . . . . . . . . . . . . . . . . . . . . . . ",
". . . . . . . . . . . . . . . . . . . . . . . . . . . . . . . . . . . . . . . . . . . . . . . . "};
