/* XPM */
static const char * layout_stop_xpm[] = {
"64 64 229 2",
"  	c None",
". 	c #FFFFFF",
"+ 	c #FCFCFC",
"@ 	c #FAFAFA",
"# 	c #FDFDFD",
"$ 	c #E1E1E1",
"% 	c #989898",
"& 	c #555555",
"* 	c #5F5F5F",
"= 	c #999999",
"- 	c #FEFEFE",
"; 	c #DBDBDB",
"> 	c #545454",
", 	c #171717",
"' 	c #040404",
") 	c #060606",
"! 	c #8A8A8A",
"~ 	c #121212",
"{ 	c #000000",
"] 	c #5D5D5D",
"^ 	c #141414",
"/ 	c #010101",
"( 	c #020202",
"_ 	c #848484",
": 	c #1E1E1E",
"< 	c #222222",
"[ 	c #858585",
"} 	c #595959",
"| 	c #DEDEDE",
"1 	c #5B5B5B",
"2 	c #DCDDDE",
"3 	c #FDFDFE",
"4 	c #FBFBFC",
"5 	c #DCDCDD",
"6 	c #555658",
"7 	c #626367",
"8 	c #D9DAE1",
"9 	c #E8594E",
"0 	c #E9584D",
"a 	c #EB4949",
"b 	c #E45952",
"c 	c #F9FAFE",
"d 	c #FBFBFD",
"e 	c #DADADB",
"f 	c #161616",
"g 	c #CBCBCF",
"h 	c #373942",
"i 	c #898C9E",
"j 	c #CC5050",
"k 	c #F72F2F",
"l 	c #F7302B",
"m 	c #F82F2A",
"n 	c #F53935",
"o 	c #F2423E",
"p 	c #E94D50",
"q 	c #F8F9FD",
"r 	c #E0E0E1",
"s 	c #909090",
"t 	c #323232",
"u 	c #101010",
"v 	c #7A7A7A",
"w 	c #FAFBFE",
"x 	c #C3C5D1",
"y 	c #41455F",
"z 	c #844C4A",
"A 	c #E62824",
"B 	c #F71A15",
"C 	c #F81610",
"D 	c #F7201B",
"E 	c #F92823",
"F 	c #ED4B47",
"G 	c #989392",
"H 	c #929292",
"I 	c #2B2B2B",
"J 	c #CACACA",
"K 	c #FCFCFE",
"L 	c #B9BED8",
"M 	c #583534",
"N 	c #A73735",
"O 	c #ED120D",
"P 	c #F30B05",
"Q 	c #F10B05",
"R 	c #DF3649",
"S 	c #F9241F",
"T 	c #F63434",
"U 	c #A18B8F",
"V 	c #949495",
"W 	c #2C2C2C",
"X 	c #CCCCCC",
"Y 	c #B14545",
"Z 	c #7A3A38",
"` 	c #C8221E",
" .	c #EB0C07",
"..	c #EB0A05",
"+.	c #E90A05",
"@.	c #ED0B05",
"#.	c #F40B06",
"$.	c #A68A84",
"%.	c #BF3835",
"&.	c #9A3230",
"*.	c #D91511",
"=.	c #E70C07",
"-.	c #AC7E7C",
";.	c #949496",
">.	c #C6322E",
",.	c #AF2A27",
"'.	c #E20F0A",
").	c #B07A76",
"!.	c #C1312D",
"~.	c #9B4A6A",
"{.	c #E60E08",
"].	c #B67070",
"^.	c #C32F2B",
"/.	c #AA3746",
"(.	c #B67570",
"_.	c #B22F34",
":.	c #EB3935",
"<.	c #B5454F",
"[.	c #D7D9E3",
"}.	c #7A4F4E",
"|.	c #AA3546",
"1.	c #D9D9DB",
"2.	c #585A64",
"3.	c #3E2524",
"4.	c #683736",
"5.	c #A24057",
"6.	c #DF100B",
"7.	c #898A8B",
"8.	c #1C1E29",
"9.	c #341B1A",
"0.	c #5D5D5F",
"a.	c #12131E",
"b.	c #B07272",
"c.	c #919293",
"d.	c #4F515B",
"e.	c #381F1E",
"f.	c #C04C4A",
"g.	c #8E909A",
"h.	c #333335",
"i.	c #FAFAFC",
"j.	c #AAACB6",
"k.	c #402726",
"l.	c #C6201C",
"m.	c #E2130E",
"n.	c #A95A71",
"o.	c #533A39",
"p.	c #1D1F29",
"q.	c #040405",
"r.	c #EDEDEF",
"s.	c #868892",
"t.	c #49302F",
"u.	c #C42E2A",
"v.	c #ED0D07",
"w.	c #BB2421",
"x.	c #713937",
"y.	c #371E1D",
"z.	c #0C0E18",
"A.	c #020203",
"B.	c #C5C6C7",
"C.	c #3A3C46",
"D.	c #734F4D",
"E.	c #EC1B16",
"F.	c #D41A16",
"G.	c #351C1B",
"H.	c #EFEFEF",
"I.	c #868788",
"J.	c #A35351",
"K.	c #EB0E09",
"L.	c #9B3B39",
"M.	c #392221",
"N.	c #0C0D17",
"O.	c #C7C7C7",
"P.	c #333435",
"Q.	c #878992",
"R.	c #D14B47",
"S.	c #D62424",
"T.	c #543C3C",
"U.	c #20212A",
"V.	c #050506",
"W.	c #F1F1F1",
"X.	c #919191",
"Y.	c #303031",
"Z.	c #C1C2C9",
"`.	c #F03C38",
" +	c #E72833",
".+	c #B45A58",
"++	c #96979F",
"@+	c #555556",
"#+	c #D6D6D6",
"$+	c #5A5A5A",
"%+	c #DBDCE1",
"&+	c #F6F7FC",
"*+	c #F9F9FA",
"=+	c #333333",
"-+	c #B8B8B9",
";+	c #F9F9FC",
">+	c #575757",
",+	c #5E5E5E",
"'+	c #E0E0E0",
")+	c #AFAFAF",
"!+	c #1A1A1A",
"~+	c #B0B0B0",
"{+	c #F7342F",
"]+	c #F4F4F4",
"^+	c #E4E4E4",
"/+	c #C0C0C0",
"(+	c #515151",
"_+	c #565656",
":+	c #DDDDDD",
"<+	c #EAEAEA",
"[+	c #A7A7A7",
"}+	c #2E2E2E",
"|+	c #242424",
"1+	c #0A0A0A",
"2+	c #737373",
"3+	c #E7E7E7",
"4+	c #F2F2F2",
"5+	c #9F9F9F",
"6+	c #0C0C0C",
"7+	c #282828",
"8+	c #E2E2E2",
"9+	c #525252",
"0+	c #090909",
"a+	c #DCDCDC",
"b+	c #343434",
"c+	c #030303",
"d+	c #2F2F2F",
"e+	c #353535",
"f+	c #E5E5E5",
". . . . . . . . . . . . . . . . . . . . . . . . . . . . . . . . . . . . . . . . . . . . . . . . . . . . . . . . . . . . . . . . ",
". . . . . . . . . . . . . . . . . . . . . . . . . . . . . . . . . . . . . . . . . . . . . . . . . . . . . . . . . . . . . . . . ",
". . . . . . . . . . . . . . . . . . . . . . . . . . . . . . . . . . . . . . . . . . . . . . . . . . . . . . . . . . . . . . . . ",
". . . . . . . . . . . . . . . . . . . . . . . . . . . . . . . . . . . . . . . . . . . . . . . . . . . . . . . . . . . . . . . . ",
". . . . . . . . . . . . . . . . . . . . . . . . . . . . . . . . . . . . . . . . . . . . . . . . . . . . . . . . . . . . . . . . ",
". . . . . . . . . . . . . . . . . . . . . . . . . . . . . . . . . . . . . . . . . . . . . . . . . . . . . . . . . . . . . . . . ",
". . . . . . . . . . . . . . . . . . . . . . . . . . . . . . . . . . . . . . . . . . . . . . . . . . . . . . . . . . . . . . . . ",
". . . . . . . . . . . . . . . . . . . . . . . . . . . . . . . . . . . . . . . . . . . . . . . . . . . . . . . . . . . . . . . . ",
". . . . . . . . . . . . . . . . . . . . . . . . . . . . . . . . . . . . . . . . . . . . . . . . . . . . . . . . . . . . . . . . ",
". . . . . . . . . . . . . . . . . . . + @ @ + . . . . . . . . . . . . . . . . . . . . . . . . . . . . . . . . . . . . . . . . . ",
". . . . . . . . . . . . . . . . . # $ % & * = $ # . . . . . . . . . . . . . . . . . . . . . . . . . . . . . . . . . . . . . . . ",
". . . . . . . . . . . . . . . . - ; > , ' ) , > ; - . . . . . . . . . . . . . . . . . . . . . . . . . . . . . . . . . . . . . . ",
". . . . . . . . . . . . . . . . + ! ~ { { { { ~ ! + . . . . . . . . . . . . . . . . . . . . . . . . . . . . . . . . . . . . . . ",
". . . . . . . . . . . . . . . . @ ] ) { { { { ) ] @ . . . . . . . . . . . . . . . . . . . . . . . . . . . . . . . . . . . . . . ",
". . . . . . . . . . . . . . . . + ! ~ { { { { ~ ! + . . . . . . . . . . . . . . . . . . . . . . . . . . . . . . . . . . . . . . ",
". . . . . . . . . . . . . . . . - ; > ^ / ( ^ > ; - . . . . . . . . . . . . . . . . . . . . + @ @ + . . . . . . . . . . . . . . ",
". . . . . . . . . . . . . . . . . # $ _ : < [ $ # . . . . . . . . . . . . . . . . . . . # $ % & * = $ # . . . . . . . . . . . . ",
". . . . . . . . . . . . . . . . . . . ; } } ; . . . . . . . . . . . . . . . . . . . . - ; > , ' ) , > ; - . . . . . . . . . . . ",
". . . . . . . . . . . . . . . . . . . | 1 1 | . . . . . . . . . . . . . . . . . . . . + ! ~ { { { { ~ ! + . . . . . . . . . . . ",
". . . . . . . . . . . . . . . . . . . | 1 1 | . . . . . . . . . . . . . . . . . . . . @ ] ) { { { { ) ] @ . . . . . . . . . . . ",
". . . . . . . . . . . . . . . . . . . | 1 1 2 3 3 3 3 3 3 3 3 3 3 3 3 3 3 3 3 3 3 3 - 4 ! ~ { { { { ~ ! + . . . . . . . . . . . ",
". . . . . . . . . . . . . . . . . . . 5 6 7 8 9 0 a a a a a a a a a a a a a a 0 9 b c d e > f ( / ~ > ; - . . . . . . . . . . . ",
". . . . . . . . . . . . . . . . . . - g h i j k l m m m m m m m m m m m m m m l k n o p q r s t u v $ # . . . . . . . . . . . . ",
". . . . . . . . . . . . . . . . . - w x y z A B C C C C C C C C C C C C C C C C B D E n F w G H I J . . . . . . . . . . . . . . ",
". . . . . . . . . . . . . . . . - K p L M N O P Q Q Q Q Q Q Q Q Q Q Q Q Q Q Q Q P R C S T p U V W X . . . . . . . . . . . . . . ",
". . . . . . . . . . . . . . . . - c o Y Z `  .....+.+.+.+.+.+.+.+.+.+.+.+.+.+.....@.#.C E o $.V W X . . . . . . . . . . . . . . ",
". . . . . . . . . . . . . . . . - b n %.&.*.=.+.+.+.+.+.+.+.+.+.+.+.+.+.+.+.+.+.+.+.@.R D n -.;.W X . . . . . . . . . . . . . . ",
". . . . . . . . . . . . . . . . 3 9 k >.,.'.=.+.+.+.+.+.+.+.+.+.+.+.+.+.+.+.+.+.+.+...P B k ).;.W X . . . . . . . . . . . . . . ",
". . . . . . . . . . . . . . . . 3 0 l !.~.{.+.+.+.+.+.+.+.+.+.+.+.+.+.+.+.+.+.+.+.+...Q C l ].;.W X . . . . . . . . . . . . . . ",
". . . . . . . . . . . . . . . . 3 a m ^./.=.+.+.+.+.+.+.+.+.+.+.+.+.+.+.+.+.+.+.+.+.+.Q C m (.;.W X . . . . . . . . . . . . . . ",
". . . . . . . . . . . . . . . . 3 a m ^._.=.+.+.+.+.+.+.+.+.+.+.+.+.+.+.+.+.+.+.+.+.+.Q C m (.;.W X . . . . . . . . . . . . . . ",
". . . . . . . . . . . . . . . . 3 a m ^._.=.+.+.+.+.+.+.+.+.+.+.+.+.+.+.+.+.+.+.+.+.+.Q C m (.;.W X . . . . . . . . . . . . . . ",
". . . . . . . . . . . . . . . . 3 a m ^._.=.+.+.+.+.+.+.+.+.+.+.+.+.+.+.+.+.+.+.+.+.+.Q C m (.;.W X . . . . . . . . . . . . . . ",
". . . . . . . . . . . . . . . . 3 a :.<._.=.+.+.+.+.+.+.+.+.+.+.+.+.+.+.+.+.+.+.+.+.+.Q C m (.;.W X . . . . . . . . . . . . . . ",
". . . . . . . . . . . . . . . . d [.}.Z |.'.+.+.+.+.+.+.+.+.+.+.+.+.+.+.+.+.+.+.+.+.+.Q C m (.;.W X . . . . . . . . . . . . . . ",
". . . . . . . . . . . . . . . - 1.2.3.4.5.6.+.+.+.+.+.+.+.+.+.+.+.+.+.+.+.+.+.+.+.+.+.Q C m (.;.W X . . . . . . . . . . . . . . ",
". . . . . . . . . . . . . . . + 7.8.9.4.5.6.+.+.+.+.+.+.+.+.+.+.+.+.+.+.+.+.+.+.+.+.+.Q C m (.;.W X . . . . . . . . . . . . . . ",
". . . . . . . . . . . . . . . @ 0.a.9.4.5.6.+.+.+.+.+.+.+.+.+.+.+.+.+.+.+.+.+.+.+.+.+.Q C m (.;.W X . . . . . . . . . . . . . . ",
". . . . . . . . . . . . . . . + 7.8.9.4.5.6.+.+.+.+.+.+.+.+.+.+.+.+.+.+.+.+.+.+.+.+.+.Q C m b.c.I J . . . . . . . . . . . . . . ",
". . . . . . . . . . . . . . . - 1.d.e.4.5.6.+.+.+.+.+.+.+.+.+.+.+.+.+.+.+.+.+.+.+.+.+.Q C f.g.h.u v $ # . . . . . . . . . . . . ",
". . . . . . . . . . . . . . . . i.j.k.Z l.{.+.+.+.+.+.+.+.+.+.+.+.+.+.+.+.+.+.+.+.+.{.m.n.o.p.q./ ~ > ; - . . . . . . . . . . . ",
". . . . . . . . . . . . . . . . r.s.t.u.v.=.+.+.+.+.+.+.+.+.+.+.+.+.+.+.+.+.+.+.+.+.6.w.x.y.z.A.{ { ~ ! + . . . . . . . . . . . ",
". . . . . . . . . . . . . . . - B.C.D.E.Q +.+.+.+.+.+.+.+.+.+.+.+.+.+.+.+.+.+.+.+.+.{.F.Z G.z.A.{ { ) ] @ . . . . . . . . . . . ",
". . . . . . . . . . . . . . . H.I.C.J.C Q ..+.+.+.+.+.+.+.+.+.+.+.+.+.+.+.+.+.+.+.+.+.K.L.M.N.A.{ { ~ ! + . . . . . . . . . . . ",
". . . . . . . . . . . . . . - O.P.Q.R.B P ..+.+.+.+.+.+.+.+.+.+.+.+.+.+.+.+.+.+.+.+...P S.T.U.V.) , > ; - . . . . . . . . . . . ",
". . . . . . . . . . . . . . W.X.Y.Z.`.D R @.+.+.+.+.+.+.+.+.+.+.+.+.+.+.+.+.+.+.+.+.@. +D .+++@+* = $ # . . . . . . . . . . . . ",
". . . . . . . . . . . . . - #+$+* %+o E C #.@.....+.+.+.+.+.+.+.+.+.+.+.+.+.+.....@.#.C E o &+*+@ + . . . . . . . . . . . . . . ",
". . . . . . . . . . . . . W.H =+-+;+p T S C R P Q Q Q Q Q Q Q Q Q Q Q Q Q Q Q Q P  +C S T 0 K - . . . . . . . . . . . . . . . . ",
". . . . . . . . . . . . . | >+,+'+- w F T E D B C C C C C C C C C C C C C C C C B D E T F w - . . . . . . . . . . . . . . . . . ",
". . . . . . . . . . . . + )+!+~++ . - w 0 o n k l m m m m m m m m m m m m m m l {+n o 0 w 3 . . . . . . . . . . . . . . . . . . ",
". . . . . . . . # ]+^+; /+(+_+:+. . . - K c b 9 0 a a a a a a a a a a a a a a 0 9 b c K - . . . . . . . . . . . . . . . . . . . ",
". . . . . . . # <+[+] }+|+1+2+3+# . . . - - 3 3 3 3 3 3 3 3 3 3 3 3 3 3 3 3 3 3 3 3 - - . . . . . . . . . . . . . . . . . . . . ",
". . . . . . . 4+5+}+6+( / ' 7+5+4+. . . . . . . . . . . . . . . . . . . . . . . . . . . . . . . . . . . . . . . . . . . . . . . ",
". . . . . . . 8+9+0+{ { { { 0+9+8+. . . . . . . . . . . . . . . . . . . . . . . . . . . . . . . . . . . . . . . . . . . . . . . ",
". . . . . . . a+b+c+{ { { { c+b+a+. . . . . . . . . . . . . . . . . . . . . . . . . . . . . . . . . . . . . . . . . . . . . . . ",
". . . . . . . 8+9+0+{ { { { 0+9+8+. . . . . . . . . . . . . . . . . . . . . . . . . . . . . . . . . . . . . . . . . . . . . . . ",
". . . . . . . 4+5+}+6+( c+6+}+5+4+. . . . . . . . . . . . . . . . . . . . . . . . . . . . . . . . . . . . . . . . . . . . . . . ",
". . . . . . . # <+[+] d+e+,+[+<+# . . . . . . . . . . . . . . . . . . . . . . . . . . . . . . . . . . . . . . . . . . . . . . . ",
". . . . . . . . # ]+^+; a+f+]+# . . . . . . . . . . . . . . . . . . . . . . . . . . . . . . . . . . . . . . . . . . . . . . . . ",
". . . . . . . . . . . . . . . . . . . . . . . . . . . . . . . . . . . . . . . . . . . . . . . . . . . . . . . . . . . . . . . . ",
". . . . . . . . . . . . . . . . . . . . . . . . . . . . . . . . . . . . . . . . . . . . . . . . . . . . . . . . . . . . . . . . ",
". . . . . . . . . . . . . . . . . . . . . . . . . . . . . . . . . . . . . . . . . . . . . . . . . . . . . . . . . . . . . . . . ",
". . . . . . . . . . . . . . . . . . . . . . . . . . . . . . . . . . . . . . . . . . . . . . . . . . . . . . . . . . . . . . . . ",
". . . . . . . . . . . . . . . . . . . . . . . . . . . . . . . . . . . . . . . . . . . . . . . . . . . . . . . . . . . . . . . . "};
