/* XPM */
static const char * layout_start_xpm[] = {
"64 64 150 2",
"  	c None",
". 	c #FFFFFF",
"+ 	c #FCFCFC",
"@ 	c #FAFAFA",
"# 	c #FDFDFD",
"$ 	c #E1E1E1",
"% 	c #989898",
"& 	c #555555",
"* 	c #5F5F5F",
"= 	c #999999",
"- 	c #FEFEFE",
"; 	c #DBDBDB",
"> 	c #545454",
", 	c #171717",
"' 	c #040404",
") 	c #060606",
"! 	c #8A8A8A",
"~ 	c #121212",
"{ 	c #000000",
"] 	c #5D5D5D",
"^ 	c #141414",
"/ 	c #010101",
"( 	c #020202",
"_ 	c #848484",
": 	c #1E1E1E",
"< 	c #222222",
"[ 	c #858585",
"} 	c #595959",
"| 	c #DEDEDE",
"1 	c #5B5B5B",
"2 	c #DDDDDD",
"3 	c #616161",
"4 	c #E0E0E0",
"5 	c #161616",
"6 	c #CECECE",
"7 	c #303030",
"8 	c #8B8B8B",
"9 	c #F0F0F0",
"0 	c #909090",
"a 	c #323232",
"b 	c #101010",
"c 	c #7A7A7A",
"d 	c #CCCCCC",
"e 	c #2C2C2C",
"f 	c #959595",
"g 	c #F2F2F2",
"h 	c #EFEFEF",
"i 	c #929292",
"j 	c #2B2B2B",
"k 	c #CACACA",
"l 	c #58F555",
"m 	c #23FA1E",
"n 	c #1DFA18",
"o 	c #2DFA28",
"p 	c #64F85C",
"q 	c #31F92D",
"r 	c #1FFA1A",
"s 	c #59E370",
"t 	c #2BFA26",
"u 	c #CBCBCB",
"v 	c #9A9A9A",
"w 	c #F3F3F3",
"x 	c #2FF92B",
"y 	c #52FA4E",
"z 	c #F2F4FE",
"A 	c #C0C0C0",
"B 	c #151515",
"C 	c #B8B8B8",
"D 	c #4AEC57",
"E 	c #21FA1C",
"F 	c #4AF842",
"G 	c #BFBFBF",
"H 	c #FBFBFB",
"I 	c #B5B5B5",
"J 	c #BEBEBE",
"K 	c #3FED41",
"L 	c #9094AF",
"M 	c #919191",
"N 	c #333333",
"O 	c #43F04A",
"P 	c #20F31B",
"Q 	c #41913F",
"R 	c #B9BDD8",
"S 	c #3AE636",
"T 	c #29ED25",
"U 	c #56A974",
"V 	c #40923E",
"W 	c #47D640",
"X 	c #41973F",
"Y 	c #36CD33",
"Z 	c #40455F",
"` 	c #4A4A4A",
" .	c #080808",
"..	c #050505",
"+.	c #494949",
"@.	c #3ADA36",
"#.	c #31EE2C",
"$.	c #8C91AB",
"%.	c #AFAFAF",
"&.	c #1D1D1D",
"*.	c #313131",
"=.	c #5A5A5A",
"-.	c #22F51D",
";.	c #65B277",
">.	c #4E505A",
",.	c #131313",
"'.	c #878787",
").	c #C3C3C3",
"!.	c #F9F9F9",
"~.	c #3E983C",
"{.	c #40445E",
"].	c #1A1A1A",
"^.	c #C7C7C7",
"/.	c #888888",
"(.	c #36EA32",
"_.	c #BABED9",
":.	c #B9B9B9",
"<.	c #979797",
"[.	c #828282",
"}.	c #F1F1F1",
"|.	c #C6C6C6",
"1.	c #D6D6D6",
"2.	c #575757",
"3.	c #5E5E5E",
"4.	c #B0B0B0",
"5.	c #3EF939",
"6.	c #F4F4F4",
"7.	c #E4E4E4",
"8.	c #515151",
"9.	c #565656",
"0.	c #27FA22",
"a.	c #EAEAEA",
"b.	c #A7A7A7",
"c.	c #2E2E2E",
"d.	c #242424",
"e.	c #0A0A0A",
"f.	c #737373",
"g.	c #E7E7E7",
"h.	c #9F9F9F",
"i.	c #0C0C0C",
"j.	c #282828",
"k.	c #E2E2E2",
"l.	c #525252",
"m.	c #090909",
"n.	c #DCDCDC",
"o.	c #343434",
"p.	c #030303",
"q.	c #2F2F2F",
"r.	c #353535",
"s.	c #E5E5E5",
". . . . . . . . . . . . . . . . . . . . . . . . . . . . . . . . . . . . . . . . . . . . . . . . . . . . . . . . . . . . . . . . ",
". . . . . . . . . . . . . . . . . . . . . . . . . . . . . . . . . . . . . . . . . . . . . . . . . . . . . . . . . . . . . . . . ",
". . . . . . . . . . . . . . . . . . . . . . . . . . . . . . . . . . . . . . . . . . . . . . . . . . . . . . . . . . . . . . . . ",
". . . . . . . . . . . . . . . . . . . . . . . . . . . . . . . . . . . . . . . . . . . . . . . . . . . . . . . . . . . . . . . . ",
". . . . . . . . . . . . . . . . . . . . . . . . . . . . . . . . . . . . . . . . . . . . . . . . . . . . . . . . . . . . . . . . ",
". . . . . . . . . . . . . . . . . . . . . . . . . . . . . . . . . . . . . . . . . . . . . . . . . . . . . . . . . . . . . . . . ",
". . . . . . . . . . . . . . . . . . . . . . . . . . . . . . . . . . . . . . . . . . . . . . . . . . . . . . . . . . . . . . . . ",
". . . . . . . . . . . . . . . . . . . . . . . . . . . . . . . . . . . . . . . . . . . . . . . . . . . . . . . . . . . . . . . . ",
". . . . . . . . . . . . . . . . . . . . . . . . . . . . . . . . . . . . . . . . . . . . . . . . . . . . . . . . . . . . . . . . ",
". . . . . . . . . . . . . . . . . . . + @ @ + . . . . . . . . . . . . . . . . . . . . . . . . . . . . . . . . . . . . . . . . . ",
". . . . . . . . . . . . . . . . . # $ % & * = $ # . . . . . . . . . . . . . . . . . . . . . . . . . . . . . . . . . . . . . . . ",
". . . . . . . . . . . . . . . . - ; > , ' ) , > ; - . . . . . . . . . . . . . . . . . . . . . . . . . . . . . . . . . . . . . . ",
". . . . . . . . . . . . . . . . + ! ~ { { { { ~ ! + . . . . . . . . . . . . . . . . . . . . . . . . . . . . . . . . . . . . . . ",
". . . . . . . . . . . . . . . . @ ] ) { { { { ) ] @ . . . . . . . . . . . . . . . . . . . . . . . . . . . . . . . . . . . . . . ",
". . . . . . . . . . . . . . . . + ! ~ { { { { ~ ! + . . . . . . . . . . . . . . . . . . . . . . . . . . . . . . . . . . . . . . ",
". . . . . . . . . . . . . . . . - ; > ^ / ( ^ > ; - . . . . . . . . . . . . . . . . . . . . + @ @ + . . . . . . . . . . . . . . ",
". . . . . . . . . . . . . . . . . # $ _ : < [ $ # . . . . . . . . . . . . . . . . . . . # $ % & * = $ # . . . . . . . . . . . . ",
". . . . . . . . . . . . . . . . . . . ; } } ; . . . . . . . . . . . . . . . . . . . . - ; > , ' ) , > ; - . . . . . . . . . . . ",
". . . . . . . . . . . . . . . . . . . | 1 1 | . . . . . . . . . . . . . . . . . . . . + ! ~ { { { { ~ ! + . . . . . . . . . . . ",
". . . . . . . . . . . . . . . . . . . | 1 1 | . . . . . . . . . . . . . . . . . . . . @ ] ) { { { { ) ] @ . . . . . . . . . . . ",
". . . . . . . . . . . . . . . . . . . | 1 1 | . . . . . . . . . . . . . . . . . . . . + ! ~ { { { { ~ ! + . . . . . . . . . . . ",
". . . . . . . . . . . . . . . . . . . 2 & 3 4 . . . . . . . . . . . . . . . . . . . . - ; > 5 ( / ~ > ; - . . . . . . . . . . . ",
". . . . . . . . . . . . . . . . . . . 6 7 8 9 . . . . . . . . . . . . . . . . . . . . . # $ 0 a b c $ # . . . . . . . . . . . . ",
". . . . . . . . . . . . . . . . . . . d e f g . . . . . . . . . . . . . . . . . . . . . . . h i j k . . . . . . . . . . . . . . ",
". . . . . . . . . . . . . . . . . . . d e f g l m n o p . . . . . . . . . . . . . . . . . . g f e d . . . . . . . . . . . . . . ",
". . . . . . . . . . . . . . . . . . . d e f g q n n n r s p . . . . . . . . . . . . . . . . g f e d . . . . . . . . . . . . . . ",
". . . . . . . . . . . . . . . . . . . d e f g t n n n n n n q p . . . . . . . . . . . . . . g f e d . . . . . . . . . . . . . . ",
". . . . . . . . . . . . . . . . . . . u j v w q n n r n n n n n x y z . . . . . . . . . . . g f e d . . . . . . . . . . . . . . ",
". . . . . . . . . . . . . . . . . . . A B C - D n n n n n n n n n n E F z . . . . . . . . . g f e d . . . . . . . . . . . . . . ",
". . . . . . . . . . . . . . . . . . . G ^ G . D n n n n n n n n n n n n E s p . . . . . . . g f e d . . . . . . . . . . . . . . ",
". . . . . . . . . . . . . . . . . . . G ^ G . D n n n n n n n n n n n n n n n q p . . . . . g f e d . . . . . . . . . . . . . . ",
". . . . . . . . . . . . . . . . . . . G ^ G . D n n n n n n n n n n n n n n n n n x y z . . g f e d . . . . . . . . . . . . . . ",
". . . . . . . . . . . . . . . . . . . G ^ G . D n n n n n n n n n n n n n n n n n n n t y z g f e d . . . . . . . . . . . . . . ",
". . . . . . . . . . . . . . . . . . H I B J . D n n n n n n n n n n n n n n n n n n n n n E K L e d . . . . . . . . . . . . . . ",
". . . . . . . . . . . . . . . . # $ M N b c $ O n n n n n n n n n n n n n n n n n n n n n n n P Q R . . . . . . . . . . . . . . ",
". . . . . . . . . . . . . . . - ; > 5 ( / ~ > S n n n n n n n n n n n n n n n n n n n n n n n n n T . . . . . . . . . . . . . . ",
". . . . . . . . . . . . . . . + ! ~ { { { { b U n n n n n n n n n n n n n n n n n n n n n n n n n n . . . . . . . . . . . . . . ",
". . . . . . . . . . . . . . . @ ] ) { { { { ( V n n n n n n n n n n n n n n n n n n n n n n n n n W . . . . . . . . . . . . . . ",
". . . . . . . . . . . . . . . + ! ~ { { { { ) X n n n n n n n n n n n n n n n n n n n n n n n Y Z k . . . . . . . . . . . . . . ",
". . . . . . . . . . . . . . . - ; `  ./ ..^ +.@.n n n n n n n n n n n n n n n n n n n n n #.$.a b c $ # . . . . . . . . . . . . ",
". . . . . . . . . . . . . . . . + %.&.*.=.= $ O n n n n n n n n n n n n n n n n n n n -.;.>.,.( / ~ > ; - . . . . . . . . . . . ",
". . . . . . . . . . . . . . . . h '.a ).!.+ . D n n n n n n n n n n n n n n n n n n ~.{.].) { { { { ~ ! + . . . . . . . . . . . ",
". . . . . . . . . . . . . . . - ^.N /.h . . . D n n n n n n n n n n n n n n n n (._.:.<.N ( { { { { ) ] @ . . . . . . . . . . . ",
". . . . . . . . . . . . . . . h '.N ^.- . . . D n n n n n n n n n n n n n n o p . . - 9 [.b { { { { ~ ! + . . . . . . . . . . . ",
". . . . . . . . . . . . . . - ^.N /.h . . . . D n n n n n n n n n n n n E F z . . . . - ; > , ' ) , > ; - . . . . . . . . . . . ",
". . . . . . . . . . . . . . }.M 7 |.- . . . . D n n n n n n n n n n r F z . . . . . . . # $ % & * = $ # . . . . . . . . . . . . ",
". . . . . . . . . . . . . - 1.=.* 4 . . . . . D n n n n n n n n n q p . . . . . . . . . . . + @ @ + . . . . . . . . . . . . . . ",
". . . . . . . . . . . . . }.i N :.+ . . . . . D n n n n n n n q p . . . . . . . . . . . . . . . . . . . . . . . . . . . . . . . ",
". . . . . . . . . . . . . | 2.3.4 . . . . . . D n n n n n o p . . . . . . . . . . . . . . . . . . . . . . . . . . . . . . . . . ",
". . . . . . . . . . . . + %.].4.+ . . . . . . 5.n n n r F z . . . . . . . . . . . . . . . . . . . . . . . . . . . . . . . . . . ",
". . . . . . . . # 6.7.; A 8.9.2 . . . . . . . p 0.n t p . . . . . . . . . . . . . . . . . . . . . . . . . . . . . . . . . . . . ",
". . . . . . . # a.b.] c.d.e.f.g.# . . . . . . . . . . . . . . . . . . . . . . . . . . . . . . . . . . . . . . . . . . . . . . . ",
". . . . . . . g h.c.i.( / ' j.h.g . . . . . . . . . . . . . . . . . . . . . . . . . . . . . . . . . . . . . . . . . . . . . . . ",
". . . . . . . k.l.m.{ { { { m.l.k.. . . . . . . . . . . . . . . . . . . . . . . . . . . . . . . . . . . . . . . . . . . . . . . ",
". . . . . . . n.o.p.{ { { { p.o.n.. . . . . . . . . . . . . . . . . . . . . . . . . . . . . . . . . . . . . . . . . . . . . . . ",
". . . . . . . k.l.m.{ { { { m.l.k.. . . . . . . . . . . . . . . . . . . . . . . . . . . . . . . . . . . . . . . . . . . . . . . ",
". . . . . . . g h.c.i.( p.i.c.h.g . . . . . . . . . . . . . . . . . . . . . . . . . . . . . . . . . . . . . . . . . . . . . . . ",
". . . . . . . # a.b.] q.r.3.b.a.# . . . . . . . . . . . . . . . . . . . . . . . . . . . . . . . . . . . . . . . . . . . . . . . ",
". . . . . . . . # 6.7.; n.s.6.# . . . . . . . . . . . . . . . . . . . . . . . . . . . . . . . . . . . . . . . . . . . . . . . . ",
". . . . . . . . . . . . . . . . . . . . . . . . . . . . . . . . . . . . . . . . . . . . . . . . . . . . . . . . . . . . . . . . ",
". . . . . . . . . . . . . . . . . . . . . . . . . . . . . . . . . . . . . . . . . . . . . . . . . . . . . . . . . . . . . . . . ",
". . . . . . . . . . . . . . . . . . . . . . . . . . . . . . . . . . . . . . . . . . . . . . . . . . . . . . . . . . . . . . . . ",
". . . . . . . . . . . . . . . . . . . . . . . . . . . . . . . . . . . . . . . . . . . . . . . . . . . . . . . . . . . . . . . . ",
". . . . . . . . . . . . . . . . . . . . . . . . . . . . . . . . . . . . . . . . . . . . . . . . . . . . . . . . . . . . . . . . "};
