/* XPM */
static const char * layout_stop_xpm[] = {
"64 64 245 2",
"  	c None",
". 	c #FFFFFF",
"+ 	c #FCFCFC",
"@ 	c #FAFAFA",
"# 	c #FDFDFD",
"$ 	c #E1E1E1",
"% 	c #989898",
"& 	c #555555",
"* 	c #5F5F5F",
"= 	c #999999",
"- 	c #FEFEFE",
"; 	c #DBDBDB",
"> 	c #545454",
", 	c #171717",
"' 	c #040404",
") 	c #060606",
"! 	c #8A8A8A",
"~ 	c #121212",
"{ 	c #000000",
"] 	c #5D5D5D",
"^ 	c #141414",
"/ 	c #010101",
"( 	c #020202",
"_ 	c #848484",
": 	c #1E1E1E",
"< 	c #222222",
"[ 	c #858585",
"} 	c #595959",
"| 	c #DEDEDE",
"1 	c #5B5B5B",
"2 	c #DCDDDE",
"3 	c #FDFDFE",
"4 	c #FBFBFC",
"5 	c #DCDCDD",
"6 	c #555658",
"7 	c #626367",
"8 	c #D9DAE1",
"9 	c #F4F5FE",
"0 	c #F3F4FE",
"a 	c #F2F4FE",
"b 	c #F6F7FE",
"c 	c #F9FAFE",
"d 	c #FBFBFD",
"e 	c #DADADB",
"f 	c #161616",
"g 	c #CBCBCF",
"h 	c #373942",
"i 	c #898C9E",
"j 	c #D4D9F3",
"k 	c #D9DFFE",
"l 	c #D6DCFE",
"m 	c #D5DBFE",
"n 	c #E0E4FE",
"o 	c #E9ECFE",
"p 	c #F3F5FE",
"q 	c #F8F9FD",
"r 	c #E0E0E1",
"s 	c #909090",
"t 	c #323232",
"u 	c #101010",
"v 	c #7A7A7A",
"w 	c #FAFBFE",
"x 	c #C3C5D1",
"y 	c #41455F",
"z 	c #8D94BF",
"A 	c #B5BFF7",
"B 	c #B2BDFD",
"C 	c #ADB9FD",
"D 	c #ACB8FD",
"E 	c #ABB7FD",
"F 	c #ADB8FD",
"G 	c #BBC5FD",
"H 	c #CCD3FE",
"I 	c #F0F2FE",
"J 	c #EEEEEF",
"K 	c #929292",
"L 	c #2B2B2B",
"M 	c #CACACA",
"N 	c #FCFCFE",
"O 	c #B9BED8",
"P 	c #545C8D",
"Q 	c #8894DA",
"R 	c #98A6FA",
"S 	c #92A2FD",
"T 	c #8F9FFD",
"U 	c #8E9EFD",
"V 	c #9BA9FD",
"W 	c #C4CCFE",
"X 	c #DFE4FE",
"Y 	c #EFF0F2",
"Z 	c #949495",
"` 	c #2C2C2C",
" .	c #CCCCCC",
"..	c #ADB5DF",
"+.	c #6571B8",
"@.	c #8494ED",
"#.	c #8999FC",
"$.	c #8597FD",
"%.	c #8496FD",
"&.	c #8395FD",
"*.	c #8596FD",
"=.	c #899AFD",
"-.	c #94A3FD",
";.	c #EDEDF2",
">.	c #A4ADE6",
",.	c #707FD3",
"'.	c #8394F6",
").	c #8395FC",
"!.	c #8294FD",
"~.	c #EAEBF2",
"{.	c #949496",
"].	c #9EA9E9",
"^.	c #7686E1",
"/.	c #8294FA",
"(.	c #8294FC",
"_.	c #B1BCFD",
":.	c #E8E9F2",
"<.	c #97A3E7",
"[.	c #7686E3",
"}.	c #8394FB",
"|.	c #E7E9F3",
"1.	c #96A2E8",
"2.	c #7686E5",
"3.	c #E7E8F3",
"4.	c #7787E6",
"5.	c #D2D8FB",
"6.	c #939FE5",
"7.	c #D7D9E3",
"8.	c #8C92B5",
"9.	c #6773B9",
"0.	c #7687E5",
"a.	c #8193FA",
"b.	c #D9D9DB",
"c.	c #585A64",
"d.	c #3A4063",
"e.	c #5763A9",
"f.	c #7585E4",
"g.	c #8091F9",
"h.	c #898A8B",
"i.	c #1C1E29",
"j.	c #2B3154",
"k.	c #5662A8",
"l.	c #7F91F9",
"m.	c #5D5D5F",
"n.	c #12131E",
"o.	c #E4E6F0",
"p.	c #919293",
"q.	c #4F515B",
"r.	c #303659",
"s.	c #C1C7EA",
"t.	c #8E909A",
"u.	c #333335",
"v.	c #FAFAFC",
"w.	c #AAACB6",
"x.	c #3E4467",
"y.	c #7E8EED",
"z.	c #8294FB",
"A.	c #8999F8",
"B.	c #919DE3",
"C.	c #5C6285",
"D.	c #1D1F29",
"E.	c #040405",
"F.	c #EDEDEF",
"G.	c #868892",
"H.	c #4C5275",
"I.	c #97A3E9",
"J.	c #8D9DFC",
"K.	c #8092F9",
"L.	c #7989E8",
"M.	c #5F6BB1",
"N.	c #2F3558",
"O.	c #0C0E18",
"P.	c #020203",
"Q.	c #C5C6C7",
"R.	c #3A3C46",
"S.	c #868BAE",
"T.	c #A6B2F8",
"U.	c #8494F3",
"V.	c #2C3255",
"W.	c #EFEFEF",
"X.	c #868788",
"Y.	c #B0B6D8",
"Z.	c #8D9DFB",
"`.	c #828DD2",
" +	c #353A5D",
".+	c #0C0D17",
"++	c #C7C7C7",
"@+	c #333435",
"#+	c #878992",
"$+	c #CED3F3",
"%+	c #A3AFF0",
"&+	c #616786",
"*+	c #20212A",
"=+	c #050506",
"-+	c #F1F1F1",
";+	c #919191",
">+	c #303031",
",+	c #C1C2C9",
"'+	c #DFE3FD",
")+	c #9AA8FD",
"!+	c #BAC4FD",
"~+	c #C9CDE7",
"{+	c #96979F",
"]+	c #555556",
"^+	c #D6D6D6",
"/+	c #5A5A5A",
"(+	c #DBDCE1",
"_+	c #F6F7FC",
":+	c #F9F9FA",
"<+	c #333333",
"[+	c #B8B8B9",
"}+	c #F9F9FC",
"|+	c #575757",
"1+	c #5E5E5E",
"2+	c #E0E0E0",
"3+	c #AFAFAF",
"4+	c #1A1A1A",
"5+	c #B0B0B0",
"6+	c #D9DEFE",
"7+	c #F4F4F4",
"8+	c #E4E4E4",
"9+	c #C0C0C0",
"0+	c #515151",
"a+	c #565656",
"b+	c #DDDDDD",
"c+	c #EAEAEA",
"d+	c #A7A7A7",
"e+	c #2E2E2E",
"f+	c #242424",
"g+	c #0A0A0A",
"h+	c #737373",
"i+	c #E7E7E7",
"j+	c #F2F2F2",
"k+	c #9F9F9F",
"l+	c #0C0C0C",
"m+	c #282828",
"n+	c #E2E2E2",
"o+	c #525252",
"p+	c #090909",
"q+	c #DCDCDC",
"r+	c #343434",
"s+	c #030303",
"t+	c #2F2F2F",
"u+	c #353535",
"v+	c #E5E5E5",
". . . . . . . . . . . . . . . . . . . . . . . . . . . . . . . . . . . . . . . . . . . . . . . . . . . . . . . . . . . . . . . . ",
". . . . . . . . . . . . . . . . . . . . . . . . . . . . . . . . . . . . . . . . . . . . . . . . . . . . . . . . . . . . . . . . ",
". . . . . . . . . . . . . . . . . . . . . . . . . . . . . . . . . . . . . . . . . . . . . . . . . . . . . . . . . . . . . . . . ",
". . . . . . . . . . . . . . . . . . . . . . . . . . . . . . . . . . . . . . . . . . . . . . . . . . . . . . . . . . . . . . . . ",
". . . . . . . . . . . . . . . . . . . . . . . . . . . . . . . . . . . . . . . . . . . . . . . . . . . . . . . . . . . . . . . . ",
". . . . . . . . . . . . . . . . . . . . . . . . . . . . . . . . . . . . . . . . . . . . . . . . . . . . . . . . . . . . . . . . ",
". . . . . . . . . . . . . . . . . . . . . . . . . . . . . . . . . . . . . . . . . . . . . . . . . . . . . . . . . . . . . . . . ",
". . . . . . . . . . . . . . . . . . . . . . . . . . . . . . . . . . . . . . . . . . . . . . . . . . . . . . . . . . . . . . . . ",
". . . . . . . . . . . . . . . . . . . . . . . . . . . . . . . . . . . . . . . . . . . . . . . . . . . . . . . . . . . . . . . . ",
". . . . . . . . . . . . . . . . . . . + @ @ + . . . . . . . . . . . . . . . . . . . . . . . . . . . . . . . . . . . . . . . . . ",
". . . . . . . . . . . . . . . . . # $ % & * = $ # . . . . . . . . . . . . . . . . . . . . . . . . . . . . . . . . . . . . . . . ",
". . . . . . . . . . . . . . . . - ; > , ' ) , > ; - . . . . . . . . . . . . . . . . . . . . . . . . . . . . . . . . . . . . . . ",
". . . . . . . . . . . . . . . . + ! ~ { { { { ~ ! + . . . . . . . . . . . . . . . . . . . . . . . . . . . . . . . . . . . . . . ",
". . . . . . . . . . . . . . . . @ ] ) { { { { ) ] @ . . . . . . . . . . . . . . . . . . . . . . . . . . . . . . . . . . . . . . ",
". . . . . . . . . . . . . . . . + ! ~ { { { { ~ ! + . . . . . . . . . . . . . . . . . . . . . . . . . . . . . . . . . . . . . . ",
". . . . . . . . . . . . . . . . - ; > ^ / ( ^ > ; - . . . . . . . . . . . . . . . . . . . . + @ @ + . . . . . . . . . . . . . . ",
". . . . . . . . . . . . . . . . . # $ _ : < [ $ # . . . . . . . . . . . . . . . . . . . # $ % & * = $ # . . . . . . . . . . . . ",
". . . . . . . . . . . . . . . . . . . ; } } ; . . . . . . . . . . . . . . . . . . . . - ; > , ' ) , > ; - . . . . . . . . . . . ",
". . . . . . . . . . . . . . . . . . . | 1 1 | . . . . . . . . . . . . . . . . . . . . + ! ~ { { { { ~ ! + . . . . . . . . . . . ",
". . . . . . . . . . . . . . . . . . . | 1 1 | . . . . . . . . . . . . . . . . . . . . @ ] ) { { { { ) ] @ . . . . . . . . . . . ",
". . . . . . . . . . . . . . . . . . . | 1 1 2 3 3 3 3 3 3 3 3 3 3 3 3 3 3 3 3 3 3 3 - 4 ! ~ { { { { ~ ! + . . . . . . . . . . . ",
". . . . . . . . . . . . . . . . . . . 5 6 7 8 9 0 a a a a a a a a a a a a a a 0 9 b c d e > f ( / ~ > ; - . . . . . . . . . . . ",
". . . . . . . . . . . . . . . . . . - g h i j k l m m m m m m m m m m m m m m l k n o p q r s t u v $ # . . . . . . . . . . . . ",
". . . . . . . . . . . . . . . . . - w x y z A B C D E E E E E E E E E E E E D F B G H n I w J K L M . . . . . . . . . . . . . . ",
". . . . . . . . . . . . . . . . - N p O P Q R S T U U U U U U U U U U U U U U T S V E W X p Y Z `  .. . . . . . . . . . . . . . ",
". . . . . . . . . . . . . . . . - c o ..+.@.#.$.%.&.&.&.&.&.&.&.&.&.&.&.&.&.&.%.*.=.-.E H o ;.Z `  .. . . . . . . . . . . . . . ",
". . . . . . . . . . . . . . . . - b n >.,.'.).!.!.!.!.!.!.!.!.!.!.!.!.!.!.!.!.!.!.&.=.V G n ~.{.`  .. . . . . . . . . . . . . . ",
". . . . . . . . . . . . . . . . 3 9 k ].^./.(.!.!.!.!.!.!.!.!.!.!.!.!.!.!.!.!.!.!.!.*.S _.k :.{.`  .. . . . . . . . . . . . . . ",
". . . . . . . . . . . . . . . . 3 0 l <.[.}.!.!.!.!.!.!.!.!.!.!.!.!.!.!.!.!.!.!.!.!.%.T F l |.{.`  .. . . . . . . . . . . . . . ",
". . . . . . . . . . . . . . . . 3 a m 1.2.(.!.!.!.!.!.!.!.!.!.!.!.!.!.!.!.!.!.!.!.!.&.U E m 3.{.`  .. . . . . . . . . . . . . . ",
". . . . . . . . . . . . . . . . 3 a m 1.4.(.!.!.!.!.!.!.!.!.!.!.!.!.!.!.!.!.!.!.!.!.&.U E m 3.{.`  .. . . . . . . . . . . . . . ",
". . . . . . . . . . . . . . . . 3 a m 1.4.(.!.!.!.!.!.!.!.!.!.!.!.!.!.!.!.!.!.!.!.!.&.U E m 3.{.`  .. . . . . . . . . . . . . . ",
". . . . . . . . . . . . . . . . 3 a m 1.4.(.!.!.!.!.!.!.!.!.!.!.!.!.!.!.!.!.!.!.!.!.&.U E m 3.{.`  .. . . . . . . . . . . . . . ",
". . . . . . . . . . . . . . . . 3 a 5.6.4.(.!.!.!.!.!.!.!.!.!.!.!.!.!.!.!.!.!.!.!.!.&.U E m 3.{.`  .. . . . . . . . . . . . . . ",
". . . . . . . . . . . . . . . . d 7.8.9.0.a.!.!.!.!.!.!.!.!.!.!.!.!.!.!.!.!.!.!.!.!.&.U E m 3.{.`  .. . . . . . . . . . . . . . ",
". . . . . . . . . . . . . . . - b.c.d.e.f.g.!.!.!.!.!.!.!.!.!.!.!.!.!.!.!.!.!.!.!.!.&.U E m 3.{.`  .. . . . . . . . . . . . . . ",
". . . . . . . . . . . . . . . + h.i.j.k.f.l.!.!.!.!.!.!.!.!.!.!.!.!.!.!.!.!.!.!.!.!.&.U E m 3.{.`  .. . . . . . . . . . . . . . ",
". . . . . . . . . . . . . . . @ m.n.j.k.f.l.!.!.!.!.!.!.!.!.!.!.!.!.!.!.!.!.!.!.!.!.&.U E m 3.{.`  .. . . . . . . . . . . . . . ",
". . . . . . . . . . . . . . . + h.i.j.k.f.l.!.!.!.!.!.!.!.!.!.!.!.!.!.!.!.!.!.!.!.!.&.U E m o.p.L M . . . . . . . . . . . . . . ",
". . . . . . . . . . . . . . . - b.q.r.e.f.g.!.!.!.!.!.!.!.!.!.!.!.!.!.!.!.!.!.!.!.!.&.U E s.t.u.u v $ # . . . . . . . . . . . . ",
". . . . . . . . . . . . . . . . v.w.x.9.y.z.!.!.!.!.!.!.!.!.!.!.!.!.!.!.!.!.!.!.!.!.z.A.B.C.D.E./ ~ > ; - . . . . . . . . . . . ",
". . . . . . . . . . . . . . . . F.G.H.I.J.).!.!.!.!.!.!.!.!.!.!.!.!.!.!.!.!.!.!.!.!.K.L.M.N.O.P.{ { ~ ! + . . . . . . . . . . . ",
". . . . . . . . . . . . . . . - Q.R.S.T.U &.!.!.!.!.!.!.!.!.!.!.!.!.!.!.!.!.!.!.!.!.z.U.9.V.O.P.{ { ) ] @ . . . . . . . . . . . ",
". . . . . . . . . . . . . . . W.X.R.Y.D T %.!.!.!.!.!.!.!.!.!.!.!.!.!.!.!.!.!.!.!.!.&.Z.`. +.+P.{ { ~ ! + . . . . . . . . . . . ",
". . . . . . . . . . . . . . - ++@+#+$+B S *.!.!.!.!.!.!.!.!.!.!.!.!.!.!.!.!.!.!.!.!.*.S %+&+*+=+) , > ; - . . . . . . . . . . . ",
". . . . . . . . . . . . . . -+;+>+,+'+G V =.&.!.!.!.!.!.!.!.!.!.!.!.!.!.!.!.!.!.!.&.=.)+!+~+{+]+* = $ # . . . . . . . . . . . . ",
". . . . . . . . . . . . . - ^+/+* (+o H E -.=.*.%.&.&.&.&.&.&.&.&.&.&.&.&.&.&.%.*.=.-.E H o _+:+@ + . . . . . . . . . . . . . . ",
". . . . . . . . . . . . . -+K <+[+}+p X W E V S T U U U U U U U U U U U U U U T S )+E W X 0 N - . . . . . . . . . . . . . . . . ",
". . . . . . . . . . . . . | |+1+2+- w I X H G _.F D E E E E E E E E E E E E D F _.G H X I w - . . . . . . . . . . . . . . . . . ",
". . . . . . . . . . . . + 3+4+5++ . - w 0 o n k l m m m m m m m m m m m m m m l 6+n o 0 w 3 . . . . . . . . . . . . . . . . . . ",
". . . . . . . . # 7+8+; 9+0+a+b+. . . - N c b 9 0 a a a a a a a a a a a a a a 0 9 b c N - . . . . . . . . . . . . . . . . . . . ",
". . . . . . . # c+d+] e+f+g+h+i+# . . . - - 3 3 3 3 3 3 3 3 3 3 3 3 3 3 3 3 3 3 3 3 - - . . . . . . . . . . . . . . . . . . . . ",
". . . . . . . j+k+e+l+( / ' m+k+j+. . . . . . . . . . . . . . . . . . . . . . . . . . . . . . . . . . . . . . . . . . . . . . . ",
". . . . . . . n+o+p+{ { { { p+o+n+. . . . . . . . . . . . . . . . . . . . . . . . . . . . . . . . . . . . . . . . . . . . . . . ",
". . . . . . . q+r+s+{ { { { s+r+q+. . . . . . . . . . . . . . . . . . . . . . . . . . . . . . . . . . . . . . . . . . . . . . . ",
". . . . . . . n+o+p+{ { { { p+o+n+. . . . . . . . . . . . . . . . . . . . . . . . . . . . . . . . . . . . . . . . . . . . . . . ",
". . . . . . . j+k+e+l+( s+l+e+k+j+. . . . . . . . . . . . . . . . . . . . . . . . . . . . . . . . . . . . . . . . . . . . . . . ",
". . . . . . . # c+d+] t+u+1+d+c+# . . . . . . . . . . . . . . . . . . . . . . . . . . . . . . . . . . . . . . . . . . . . . . . ",
". . . . . . . . # 7+8+; q+v+7+# . . . . . . . . . . . . . . . . . . . . . . . . . . . . . . . . . . . . . . . . . . . . . . . . ",
". . . . . . . . . . . . . . . . . . . . . . . . . . . . . . . . . . . . . . . . . . . . . . . . . . . . . . . . . . . . . . . . ",
". . . . . . . . . . . . . . . . . . . . . . . . . . . . . . . . . . . . . . . . . . . . . . . . . . . . . . . . . . . . . . . . ",
". . . . . . . . . . . . . . . . . . . . . . . . . . . . . . . . . . . . . . . . . . . . . . . . . . . . . . . . . . . . . . . . ",
". . . . . . . . . . . . . . . . . . . . . . . . . . . . . . . . . . . . . . . . . . . . . . . . . . . . . . . . . . . . . . . . ",
". . . . . . . . . . . . . . . . . . . . . . . . . . . . . . . . . . . . . . . . . . . . . . . . . . . . . . . . . . . . . . . . "};
