/* XPM */
static const char * layout_start_xpm[] = {
"64 64 158 2",
"  	c None",
". 	c #FFFFFF",
"+ 	c #FCFCFC",
"@ 	c #FAFAFA",
"# 	c #FDFDFD",
"$ 	c #E1E1E1",
"% 	c #989898",
"& 	c #555555",
"* 	c #5F5F5F",
"= 	c #999999",
"- 	c #FEFEFE",
"; 	c #DBDBDB",
"> 	c #545454",
", 	c #171717",
"' 	c #040404",
") 	c #060606",
"! 	c #8A8A8A",
"~ 	c #121212",
"{ 	c #000000",
"] 	c #5D5D5D",
"^ 	c #141414",
"/ 	c #010101",
"( 	c #020202",
"_ 	c #848484",
": 	c #1E1E1E",
"< 	c #222222",
"[ 	c #858585",
"} 	c #595959",
"| 	c #DEDEDE",
"1 	c #5B5B5B",
"2 	c #DDDDDD",
"3 	c #616161",
"4 	c #E0E0E0",
"5 	c #161616",
"6 	c #CECECE",
"7 	c #303030",
"8 	c #8B8B8B",
"9 	c #F0F0F0",
"0 	c #909090",
"a 	c #323232",
"b 	c #101010",
"c 	c #7A7A7A",
"d 	c #CCCCCC",
"e 	c #2C2C2C",
"f 	c #959595",
"g 	c #F2F2F2",
"h 	c #EFEFEF",
"i 	c #929292",
"j 	c #2B2B2B",
"k 	c #CACACA",
"l 	c #D3D9FD",
"m 	c #8D9DFD",
"n 	c #8496FD",
"o 	c #9AA8FD",
"p 	c #DFE4FE",
"q 	c #9EACFD",
"r 	c #8294FD",
"s 	c #8697FD",
"t 	c #A7B3FD",
"u 	c #97A6FD",
"v 	c #A1AEFD",
"w 	c #CBCBCB",
"x 	c #9A9A9A",
"y 	c #F3F3F3",
"z 	c #A0AEFD",
"A 	c #8798FD",
"B 	c #9DABFD",
"C 	c #CDD4FE",
"D 	c #F2F4FE",
"E 	c #C0C0C0",
"F 	c #151515",
"G 	c #B8B8B8",
"H 	c #A5B2FD",
"I 	c #8A9BFD",
"J 	c #BDC7FD",
"K 	c #BFBFBF",
"L 	c #899AFD",
"M 	c #98A7FD",
"N 	c #FBFBFB",
"O 	c #B5B5B5",
"P 	c #BEBEBE",
"Q 	c #A3B0F9",
"R 	c #9094AF",
"S 	c #919191",
"T 	c #333333",
"U 	c #A4B1FD",
"V 	c #8294F9",
"W 	c #6875BE",
"X 	c #B9BDD8",
"Y 	c #9BA8F3",
"Z 	c #8B9AF6",
"` 	c #7F8CD7",
" .	c #6774BF",
"..	c #9CA8EA",
"+.	c #6A77C2",
"@.	c #8693E2",
"#.	c #40455F",
"$.	c #4A4A4A",
"%.	c #080808",
"&.	c #050505",
"*.	c #494949",
"=.	c #929FEB",
"-.	c #95A3F7",
";.	c #8C91AB",
">.	c #AFAFAF",
",.	c #1D1D1D",
"'.	c #313131",
").	c #5A5A5A",
"!.	c #8596FA",
"~.	c #98A1D8",
"{.	c #4E505A",
"].	c #131313",
"^.	c #878787",
"/.	c #C3C3C3",
"(.	c #F9F9F9",
"_.	c #6774C3",
":.	c #40445E",
"<.	c #1A1A1A",
"[.	c #C7C7C7",
"}.	c #888888",
"|.	c #98A6F5",
"1.	c #BABED9",
"2.	c #B9B9B9",
"3.	c #979797",
"4.	c #9BA9FD",
"5.	c #828282",
"6.	c #F1F1F1",
"7.	c #C6C6C6",
"8.	c #8799FD",
"9.	c #D6D6D6",
"0.	c #575757",
"a.	c #5E5E5E",
"b.	c #B0B0B0",
"c.	c #B1BCFD",
"d.	c #F4F4F4",
"e.	c #E4E4E4",
"f.	c #515151",
"g.	c #565656",
"h.	c #91A0FD",
"i.	c #EAEAEA",
"j.	c #A7A7A7",
"k.	c #2E2E2E",
"l.	c #242424",
"m.	c #0A0A0A",
"n.	c #737373",
"o.	c #E7E7E7",
"p.	c #9F9F9F",
"q.	c #0C0C0C",
"r.	c #282828",
"s.	c #E2E2E2",
"t.	c #525252",
"u.	c #090909",
"v.	c #DCDCDC",
"w.	c #343434",
"x.	c #030303",
"y.	c #2F2F2F",
"z.	c #353535",
"A.	c #E5E5E5",
". . . . . . . . . . . . . . . . . . . . . . . . . . . . . . . . . . . . . . . . . . . . . . . . . . . . . . . . . . . . . . . . ",
". . . . . . . . . . . . . . . . . . . . . . . . . . . . . . . . . . . . . . . . . . . . . . . . . . . . . . . . . . . . . . . . ",
". . . . . . . . . . . . . . . . . . . . . . . . . . . . . . . . . . . . . . . . . . . . . . . . . . . . . . . . . . . . . . . . ",
". . . . . . . . . . . . . . . . . . . . . . . . . . . . . . . . . . . . . . . . . . . . . . . . . . . . . . . . . . . . . . . . ",
". . . . . . . . . . . . . . . . . . . . . . . . . . . . . . . . . . . . . . . . . . . . . . . . . . . . . . . . . . . . . . . . ",
". . . . . . . . . . . . . . . . . . . . . . . . . . . . . . . . . . . . . . . . . . . . . . . . . . . . . . . . . . . . . . . . ",
". . . . . . . . . . . . . . . . . . . . . . . . . . . . . . . . . . . . . . . . . . . . . . . . . . . . . . . . . . . . . . . . ",
". . . . . . . . . . . . . . . . . . . . . . . . . . . . . . . . . . . . . . . . . . . . . . . . . . . . . . . . . . . . . . . . ",
". . . . . . . . . . . . . . . . . . . . . . . . . . . . . . . . . . . . . . . . . . . . . . . . . . . . . . . . . . . . . . . . ",
". . . . . . . . . . . . . . . . . . . + @ @ + . . . . . . . . . . . . . . . . . . . . . . . . . . . . . . . . . . . . . . . . . ",
". . . . . . . . . . . . . . . . . # $ % & * = $ # . . . . . . . . . . . . . . . . . . . . . . . . . . . . . . . . . . . . . . . ",
". . . . . . . . . . . . . . . . - ; > , ' ) , > ; - . . . . . . . . . . . . . . . . . . . . . . . . . . . . . . . . . . . . . . ",
". . . . . . . . . . . . . . . . + ! ~ { { { { ~ ! + . . . . . . . . . . . . . . . . . . . . . . . . . . . . . . . . . . . . . . ",
". . . . . . . . . . . . . . . . @ ] ) { { { { ) ] @ . . . . . . . . . . . . . . . . . . . . . . . . . . . . . . . . . . . . . . ",
". . . . . . . . . . . . . . . . + ! ~ { { { { ~ ! + . . . . . . . . . . . . . . . . . . . . . . . . . . . . . . . . . . . . . . ",
". . . . . . . . . . . . . . . . - ; > ^ / ( ^ > ; - . . . . . . . . . . . . . . . . . . . . + @ @ + . . . . . . . . . . . . . . ",
". . . . . . . . . . . . . . . . . # $ _ : < [ $ # . . . . . . . . . . . . . . . . . . . # $ % & * = $ # . . . . . . . . . . . . ",
". . . . . . . . . . . . . . . . . . . ; } } ; . . . . . . . . . . . . . . . . . . . . - ; > , ' ) , > ; - . . . . . . . . . . . ",
". . . . . . . . . . . . . . . . . . . | 1 1 | . . . . . . . . . . . . . . . . . . . . + ! ~ { { { { ~ ! + . . . . . . . . . . . ",
". . . . . . . . . . . . . . . . . . . | 1 1 | . . . . . . . . . . . . . . . . . . . . @ ] ) { { { { ) ] @ . . . . . . . . . . . ",
". . . . . . . . . . . . . . . . . . . | 1 1 | . . . . . . . . . . . . . . . . . . . . + ! ~ { { { { ~ ! + . . . . . . . . . . . ",
". . . . . . . . . . . . . . . . . . . 2 & 3 4 . . . . . . . . . . . . . . . . . . . . - ; > 5 ( / ~ > ; - . . . . . . . . . . . ",
". . . . . . . . . . . . . . . . . . . 6 7 8 9 . . . . . . . . . . . . . . . . . . . . . # $ 0 a b c $ # . . . . . . . . . . . . ",
". . . . . . . . . . . . . . . . . . . d e f g . . . . . . . . . . . . . . . . . . . . . . . h i j k . . . . . . . . . . . . . . ",
". . . . . . . . . . . . . . . . . . . d e f g l m n o p . . . . . . . . . . . . . . . . . . g f e d . . . . . . . . . . . . . . ",
". . . . . . . . . . . . . . . . . . . d e f g q r r r s t p . . . . . . . . . . . . . . . . g f e d . . . . . . . . . . . . . . ",
". . . . . . . . . . . . . . . . . . . d e f g u r r r r r r v p . . . . . . . . . . . . . . g f e d . . . . . . . . . . . . . . ",
". . . . . . . . . . . . . . . . . . . w j x y z r r A r r r r r B C D . . . . . . . . . . . g f e d . . . . . . . . . . . . . . ",
". . . . . . . . . . . . . . . . . . . E F G - H r r r r r r r r r r I J D . . . . . . . . . g f e d . . . . . . . . . . . . . . ",
". . . . . . . . . . . . . . . . . . . K ^ K . H r r r r r r r r r r r r L t p . . . . . . . g f e d . . . . . . . . . . . . . . ",
". . . . . . . . . . . . . . . . . . . K ^ K . H r r r r r r r r r r r r r r r v p . . . . . g f e d . . . . . . . . . . . . . . ",
". . . . . . . . . . . . . . . . . . . K ^ K . H r r r r r r r r r r r r r r r r r B C D . . g f e d . . . . . . . . . . . . . . ",
". . . . . . . . . . . . . . . . . . . K ^ K . H r r r r r r r r r r r r r r r r r r r M C D g f e d . . . . . . . . . . . . . . ",
". . . . . . . . . . . . . . . . . . N O F P . H r r r r r r r r r r r r r r r r r r r r r L Q R e d . . . . . . . . . . . . . . ",
". . . . . . . . . . . . . . . . # $ S T b c $ U r r r r r r r r r r r r r r r r r r r r r r r V W X . . . . . . . . . . . . . . ",
". . . . . . . . . . . . . . . - ; > 5 ( / ~ > Y r r r r r r r r r r r r r r r r r r r r r r r r r Z . . . . . . . . . . . . . . ",
". . . . . . . . . . . . . . . + ! ~ { { { { b ` r r r r r r r r r r r r r r r r r r r r r r r r r r . . . . . . . . . . . . . . ",
". . . . . . . . . . . . . . . @ ] ) { { { { (  .r r r r r r r r r r r r r r r r r r r r r r r r r ... . . . . . . . . . . . . . ",
". . . . . . . . . . . . . . . + ! ~ { { { { ) +.r r r r r r r r r r r r r r r r r r r r r r r @.#.k . . . . . . . . . . . . . . ",
". . . . . . . . . . . . . . . - ; $.%./ &.^ *.=.r r r r r r r r r r r r r r r r r r r r r -.;.a b c $ # . . . . . . . . . . . . ",
". . . . . . . . . . . . . . . . + >.,.'.).= $ U r r r r r r r r r r r r r r r r r r r !.~.{.].( / ~ > ; - . . . . . . . . . . . ",
". . . . . . . . . . . . . . . . h ^.a /.(.+ . H r r r r r r r r r r r r r r r r r r _.:.<.) { { { { ~ ! + . . . . . . . . . . . ",
". . . . . . . . . . . . . . . - [.T }.h . . . H r r r r r r r r r r r r r r r r |.1.2.3.T ( { { { { ) ] @ . . . . . . . . . . . ",
". . . . . . . . . . . . . . . h ^.T [.- . . . H r r r r r r r r r r r r r r 4.p . . - 9 5.b { { { { ~ ! + . . . . . . . . . . . ",
". . . . . . . . . . . . . . - [.T }.h . . . . H r r r r r r r r r r r r I J D . . . . - ; > , ' ) , > ; - . . . . . . . . . . . ",
". . . . . . . . . . . . . . 6.S 7 7.- . . . . H r r r r r r r r r r 8.J D . . . . . . . # $ % & * = $ # . . . . . . . . . . . . ",
". . . . . . . . . . . . . - 9.).* 4 . . . . . H r r r r r r r r r z p . . . . . . . . . . . + @ @ + . . . . . . . . . . . . . . ",
". . . . . . . . . . . . . 6.i T 2.+ . . . . . H r r r r r r r v p . . . . . . . . . . . . . . . . . . . . . . . . . . . . . . . ",
". . . . . . . . . . . . . | 0.a.4 . . . . . . H r r r r r 4.p . . . . . . . . . . . . . . . . . . . . . . . . . . . . . . . . . ",
". . . . . . . . . . . . + >.<.b.+ . . . . . . c.r r r 8.J D . . . . . . . . . . . . . . . . . . . . . . . . . . . . . . . . . . ",
". . . . . . . . # d.e.; E f.g.2 . . . . . . . p h.r M p . . . . . . . . . . . . . . . . . . . . . . . . . . . . . . . . . . . . ",
". . . . . . . # i.j.] k.l.m.n.o.# . . . . . . . . . . . . . . . . . . . . . . . . . . . . . . . . . . . . . . . . . . . . . . . ",
". . . . . . . g p.k.q.( / ' r.p.g . . . . . . . . . . . . . . . . . . . . . . . . . . . . . . . . . . . . . . . . . . . . . . . ",
". . . . . . . s.t.u.{ { { { u.t.s.. . . . . . . . . . . . . . . . . . . . . . . . . . . . . . . . . . . . . . . . . . . . . . . ",
". . . . . . . v.w.x.{ { { { x.w.v.. . . . . . . . . . . . . . . . . . . . . . . . . . . . . . . . . . . . . . . . . . . . . . . ",
". . . . . . . s.t.u.{ { { { u.t.s.. . . . . . . . . . . . . . . . . . . . . . . . . . . . . . . . . . . . . . . . . . . . . . . ",
". . . . . . . g p.k.q.( x.q.k.p.g . . . . . . . . . . . . . . . . . . . . . . . . . . . . . . . . . . . . . . . . . . . . . . . ",
". . . . . . . # i.j.] y.z.a.j.i.# . . . . . . . . . . . . . . . . . . . . . . . . . . . . . . . . . . . . . . . . . . . . . . . ",
". . . . . . . . # d.e.; v.A.d.# . . . . . . . . . . . . . . . . . . . . . . . . . . . . . . . . . . . . . . . . . . . . . . . . ",
". . . . . . . . . . . . . . . . . . . . . . . . . . . . . . . . . . . . . . . . . . . . . . . . . . . . . . . . . . . . . . . . ",
". . . . . . . . . . . . . . . . . . . . . . . . . . . . . . . . . . . . . . . . . . . . . . . . . . . . . . . . . . . . . . . . ",
". . . . . . . . . . . . . . . . . . . . . . . . . . . . . . . . . . . . . . . . . . . . . . . . . . . . . . . . . . . . . . . . ",
". . . . . . . . . . . . . . . . . . . . . . . . . . . . . . . . . . . . . . . . . . . . . . . . . . . . . . . . . . . . . . . . ",
". . . . . . . . . . . . . . . . . . . . . . . . . . . . . . . . . . . . . . . . . . . . . . . . . . . . . . . . . . . . . . . . "};
