/* XPM */
static const char * load_data_xpm[] = {
"32 32 34 1",
" 	c None",
".	c #000000",
"+	c #FF0000",
"@	c #003364",
"#	c #004080",
"$	c #0078EE",
"%	c #00407E",
"&	c #003F7D",
"*	c #003F7C",
"=	c #003161",
"-	c #000409",
";	c #3B5CB7",
">	c #FE0001",
",	c #953263",
"'	c #0B73E3",
")	c #0D72E2",
"!	c #E20E1B",
"~	c #943264",
"{	c #1D6AD3",
"]	c #F90305",
"^	c #0178ED",
"/	c #3C5CB6",
"(	c #5251A2",
"_	c #FA0205",
":	c #2C64C5",
"<	c #D31529",
"[	c #5052A3",
"}	c #4D0000",
"|	c #780000",
"1	c #770000",
"2	c #020000",
"3	c #750000",
"4	c #740000",
"5	c #570000",
"                                ",
"                                ",
"...                             ",
"...                             ",
"...                             ",
"...                       ++++  ",
"...@                      ++++  ",
"...#$                    ++++   ",
"...%$        $$          ++++   ",
"...&$$     $$$$$         +++    ",
"...*$$$   $$$$$$        ++++    ",
"...=$$$$ $$$$$$$$       +++     ",
"...-$$$$$$$$$$$$$   +  ++++     ",
"...  $$$$$$$  $$$$ +++ ++++     ",
"....  $$$$$    $$$;>++++++      ",
"....           $$$$,++++++      ",
"....            '$$)!++++       ",
"....           +~$$${+++]^      ",
".... ++ +     ++>/$$$(+_:$$     ",
"....++++++   ++++<^$$$ [$$$$    ",
"...}+++++++++++++  $$$$$$$$$$   ",
"...|++++++++++++   $$$$$$$$$$$  ",
"...1++   ++++++     $$$$$ $$$$  ",
"2..3+     ++++      $$$$   $$$$ ",
"...4+      ++        $$     $$  ",
"...5                            ",
"....                            ",
"....                            ",
"........................        ",
"..............................  ",
"..............................  ",
"..............................  "};
