/* XPM */
static const char * pause_xpm[] = {
"33 34 2 1",
" 	c None",
".	c #000000",
"                                 ",
" ............       ............ ",
" ............       ............ ",
" ............       ............ ",
" ............       ............ ",
" ............       ............ ",
" ............       ............ ",
" ............       ............ ",
" ............       ............ ",
" ............       ............ ",
" ............       ............ ",
" ............       ............ ",
" ............       ............ ",
" ............       ............ ",
" ............       ............ ",
" ............       ............ ",
" ............       ............ ",
" ............       ............ ",
" ............       ............ ",
" ............       ............ ",
" ............       ............ ",
" ............       ............ ",
" ............       ............ ",
" ............       ............ ",
" ............       ............ ",
" ............       ............ ",
" ............       ............ ",
" ............       ............ ",
" ............       ............ ",
" ............       ............ ",
" ............       ............ ",
" ............       ............ ",
" ............       ............ ",
"                                 "};
