/* XPM */
static const char * play_xpm[] = {
"34 31 2 1",
" 	c None",
".	c #000000",
"                                  ",
" .                                ",
" ...                              ",
" ......                           ",
" ........                         ",
" ..........                       ",
" ............                     ",
" ...............                  ",
" .................                ",
" ...................              ",
" .....................            ",
" .......................          ",
" ..........................       ",
" ............................     ",
" ..............................   ",
" ................................ ",
" ..............................   ",
" ............................     ",
" ..........................       ",
" .......................          ",
" .....................            ",
" ...................              ",
" .................                ",
" ...............                  ",
" ............                     ",
" ..........                       ",
" ........                         ",
" ......                           ",
" ...                              ",
" .                                ",
"                                  "};
