/* XPM */
static const char *revert_curve_xpm[] = {
/* columns rows colors chars-per-pixel */
"64 64 14 1",
"  c black",
". c #00007D",
"X c #0000A9",
"o c #0000AE",
"O c #0000BE",
"+ c #0000CA",
"@ c #0000D7",
"# c #0000DE",
"$ c #0000DF",
"% c #0000E0",
"& c #0000E4",
"* c #0000E5",
"= c #0000E6",
"- c None",
/* pixels */
"----------------------------------------------------------------",
"----------------------------------------------------------------",
"-------------------------------------------------&--------------",
"-------------------------------------------------====-----------",
"--------------------------------------------------==&=&=--------",
"---------------------------------------------------&=&=&===-----",
"---------------------------------------==&=&==&==&==&=&====&==--",
"---------------------------------=====&=&=&=&=====&o=&=&=&&=&=--",
"----------------------------&=&==&=&=&=======&==&=.=&===&==-----",
"-------------------------===&&====&====----------&===&=---------",
"----------------------=====&=&===---------------===-------------",
"-------------------&===&&=&==-----------------------------------",
"-----------------===&=====--------------------------------------",
"---------------=&==&==------------------------------------------",
"--------------===&==--------------------------------------------",
"------------==&===----------------------------------------------",
"-----------=&===--------- --------------------------------------",
"----------===&-----------  -------------------------------------",
"---------===&-------------  ------------------------------------",
"--------=&==--------------   -----------------------------------",
"-------==&=---------------    ----------------------------------",
"------====----------------     ---------------------------------",
"-----=&==------------------     --------------------------------",
"-----&=&-------------------      -------------------------------",
"-----===-------------------       ------------------------------",
"----&=&--------------------     --------------------------------",
"----=&=---------------------     -------------------------------",
"---=&==--------------------- -   -------------------------------",
"---===-------------------------   ------------------------------",
"---==&-------------------------   ------------------------------",
"---=&=--------------------------   -----------------------$$$---",
"---==&--------------------------    ----------------------$$$---",
"---===---------------------------   ----------------------$$$---",
"---------------------------------    --------------------$$$----",
"----------------------------------   --------------------$$$----",
"----------------------------------    - -----------------$$$----",
"-----------------------------------     -----------------$$$----",
"--------------------------------- -     ----------------&$$-----",
"----------------------------------      ----------------$$$-----",
"-----------------------------------      --------------&$$$-----",
"------------------------------------     -------------$$$$------",
"-------------------------------------    -------------$$$-------",
"--------------------------------------   ------------$$$$-------",
"---------------------------------------   ----------$$$$--------",
"----------------------------------------  --------$$$$&---------",
"----------------------------------------- -------$$$$$----------",
"-----------------------------------------------$$$$$$-----------",
"----------------------------------------------$$$$$-------------",
"-------------------------------------------$$$$$$$--------------",
"-----------------------------------------$$$$$$$----------------",
"-------------------------------------$$$$$$$$$------------------",
"----------------------------------$$$$$$$$$$--------------------",
"-------------=&=-------------$$$$$$$$$$$$-----------------------",
"---------==&===---------$$$$$$$$$$$$$$--------------------------",
"-----=&=+=&==X$$$$$$$$$$$$$$$$$$$$$-----------------------------",
"--=====&====O$$$$$$$$$$$$$$$$$----------------------------------",
"--===&==&=&=@$$$$$$&$$&$----------------------------------------",
"-----=&==&==&---------------------------------------------------",
"---------===&==-------------------------------------------------",
"------------===-------------------------------------------------",
"----------------------------------------------------------------",
"----------------------------------------------------------------",
"----------------------------------------------------------------",
"----------------------------------------------------------------"
};
