/* XPM */
static const char * stop_xpm[] = {
"34 34 2 1",
" 	c None",
".	c #000000",
"                                  ",
" ................................ ",
" ................................ ",
" ................................ ",
" ................................ ",
" ................................ ",
" ................................ ",
" ................................ ",
" ................................ ",
" ................................ ",
" ................................ ",
" ................................ ",
" ................................ ",
" ................................ ",
" ................................ ",
" ................................ ",
" ................................ ",
" ................................ ",
" ................................ ",
" ................................ ",
" ................................ ",
" ................................ ",
" ................................ ",
" ................................ ",
" ................................ ",
" ................................ ",
" ................................ ",
" ................................ ",
" ................................ ",
" ................................ ",
" ................................ ",
" ................................ ",
" ................................ ",
"                                  "};
