<?xml version="1.0" encoding="UTF-8" standalone="no"?>
<svg
   xmlns:dc="http://purl.org/dc/elements/1.1/"
   xmlns:cc="http://creativecommons.org/ns#"
   xmlns:rdf="http://www.w3.org/1999/02/22-rdf-syntax-ns#"
   xmlns:svg="http://www.w3.org/2000/svg"
   xmlns="http://www.w3.org/2000/svg"
   xmlns:sodipodi="http://sodipodi.sourceforge.net/DTD/sodipodi-0.dtd"
   xmlns:inkscape="http://www.inkscape.org/namespaces/inkscape"
   version="1.1"
   id="svg2"
   width="512"
   height="512"
   viewBox="0 0 512 512"
   sodipodi:docname="Bar-chart-icon.svg"
   inkscape:export-filename="/home/shoops/git/COPASI/copasi/resourcesUI/images/bars.png"
   inkscape:export-xdpi="9"
   inkscape:export-ydpi="9"
   inkscape:version="1.0.1 (3bc2e813f5, 2020-09-07)">
  <metadata
     id="metadata8">
    <rdf:RDF>
      <cc:Work
         rdf:about="">
        <dc:format>image/svg+xml</dc:format>
        <dc:type
           rdf:resource="http://purl.org/dc/dcmitype/StillImage" />
      </cc:Work>
    </rdf:RDF>
  </metadata>
  <defs
     id="defs6">
    <marker
       style="overflow:visible"
       id="Arrow1Lstart"
       refX="0.0"
       refY="0.0"
       orient="auto"
       inkscape:stockid="Arrow1Lstart"
       inkscape:isstock="true">
      <path
         transform="scale(0.8) translate(12.5,0)"
         style="fill-rule:evenodd;stroke:#000000;stroke-width:1.0pt"
         d="M 0.0,0.0 L 5.0,-5.0 L -12.5,0.0 L 5.0,5.0 L 0.0,0.0 z "
         id="path986" />
    </marker>
  </defs>
  <sodipodi:namedview
     pagecolor="#ffffff"
     bordercolor="#666666"
     borderopacity="1"
     objecttolerance="10"
     gridtolerance="10"
     guidetolerance="10"
     inkscape:pageopacity="0"
     inkscape:pageshadow="2"
     inkscape:window-width="1762"
     inkscape:window-height="1046"
     id="namedview4"
     showgrid="false"
     showguides="true"
     inkscape:guide-bbox="true"
     inkscape:zoom="1.3964844"
     inkscape:cx="320.30344"
     inkscape:cy="256"
     inkscape:window-x="282"
     inkscape:window-y="194"
     inkscape:window-maximized="0"
     inkscape:current-layer="g10"
     inkscape:document-rotation="0" />
  <g
     inkscape:groupmode="layer"
     inkscape:label="Image"
     id="g10">
    <rect
       style="color:#27ae60;fill:#e3dedb;fill-opacity:1;stroke:none;stroke-width:0.999991"
       class="ColorScheme-PositiveText"
       height="512"
       rx="69.973885"
       width="511.35123"
       id="rect3"
       x="0"
       y="0"
       ry="69.973885" />
    <path
       id="rect865"
       style="opacity:1;fill:#1a1a1a;fill-opacity:1;stroke-width:0"
       d="m 52.527691,47.594101 c -6.273953,0 -11.324184,5.830317 -11.324184,13.072987 V 444.18058 c 0,0.19513 0.01819,0.38494 0.02545,0.57797 l -0.0035,1.28192 c -0.0057,2.57794 1.063718,4.94119 2.848862,6.83471 2.071151,2.68337 5.080662,4.37838 8.453265,4.37838 h 1.866469 c 0.210226,0.008 0.416852,0.0265 0.629498,0.0268 l 405.483509,0.793 c 7.65756,0.015 13.832,-4.97382 13.84558,-11.1862 l 0.0373,-17.05151 c 0.0136,-6.21241 -6.1388,-11.22501 -13.79636,-11.23999 L 91.293594,417.87331 v -0.29403 A 10.343447,10.241982 0 0 1 81.072305,408.77044 V 60.667088 c 0,-7.24267 -5.051929,-13.072987 -11.325882,-13.072987 z" />
    <rect
       style="opacity:1;fill:#00d400;fill-opacity:1;stroke-width:0"
       id="rect917"
       width="88.475456"
       height="324.82126"
       x="381.30307"
       y="75.183914"
       rx="18.744892"
       ry="22.594402" />
    <rect
       style="opacity:1;fill:#d40000;fill-opacity:1;stroke-width:0"
       id="rect917-6"
       width="88.475456"
       height="226.06015"
       x="243.94174"
       y="173.94504"
       rx="18.744892"
       ry="22.594402" />
    <rect
       style="opacity:1;fill:#5599ff;fill-opacity:1;stroke-width:0"
       id="rect917-7"
       width="88.475456"
       height="146.69286"
       x="106.58041"
       y="253.31232"
       rx="18.744892"
       ry="22.594402" />
  </g>
</svg>
