<?xml version="1.0" encoding="UTF-8" standalone="no"?>
<svg
   xmlns:dc="http://purl.org/dc/elements/1.1/"
   xmlns:cc="http://creativecommons.org/ns#"
   xmlns:rdf="http://www.w3.org/1999/02/22-rdf-syntax-ns#"
   xmlns:svg="http://www.w3.org/2000/svg"
   xmlns="http://www.w3.org/2000/svg"
   xmlns:sodipodi="http://sodipodi.sourceforge.net/DTD/sodipodi-0.dtd"
   xmlns:inkscape="http://www.inkscape.org/namespaces/inkscape"
   version="1.1"
   id="svg2085"
   width="1024"
   height="1024"
   viewBox="0 0 1024 1024"
   sodipodi:docname="miriam.svg"
   inkscape:version="1.0.1 (3bc2e813f5, 2020-09-07)"
   inkscape:export-filename="/raid/shoops/git/COPASI/copasi/resourcesUI/images/miriam.png"
   inkscape:export-xdpi="4.5"
   inkscape:export-ydpi="4.5">
  <metadata
     id="metadata2091">
    <rdf:RDF>
      <cc:Work
         rdf:about="">
        <dc:format>image/svg+xml</dc:format>
        <dc:type
           rdf:resource="http://purl.org/dc/dcmitype/StillImage" />
        <dc:title></dc:title>
      </cc:Work>
    </rdf:RDF>
  </metadata>
  <defs
     id="defs2089" />
  <sodipodi:namedview
     pagecolor="#ffffff"
     bordercolor="#666666"
     borderopacity="1"
     objecttolerance="10"
     gridtolerance="10"
     guidetolerance="10"
     inkscape:pageopacity="0"
     inkscape:pageshadow="2"
     inkscape:window-width="2560"
     inkscape:window-height="1379"
     id="namedview2087"
     showgrid="false"
     inkscape:zoom="0.88989273"
     inkscape:cx="553.94536"
     inkscape:cy="547.69525"
     inkscape:window-x="0"
     inkscape:window-y="0"
     inkscape:window-maximized="1"
     inkscape:current-layer="g2093"
     inkscape:pagecheckerboard="true"
     showguides="true"
     inkscape:guide-bbox="true"
     inkscape:snap-nodes="false"
     inkscape:snap-bbox="false">
    <sodipodi:guide
       position="509.05012,510.45496"
       orientation="1,0"
       id="guide2915" />
    <sodipodi:guide
       position="-484.32804,511.57869"
       orientation="0,-1"
       id="guide3137" />
  </sodipodi:namedview>
  <g
     inkscape:groupmode="layer"
     inkscape:label="Image"
     id="g2093"
     style="display:inline">
    <path
       id="path3135"
       style="display:inline;fill:#c5ddd8;fill-opacity:1;stroke-width:0"
       d="m 402.19922,122.86328 a 402.85068,402.85068 0 0 0 -106.27149,47.73438 v 107.32226 l 143.1543,-0.11133 z m -131.36914,65.0957 a 402.85068,402.85068 0 0 0 -87.53516,90.04883 l 87.53516,-0.0684 z m 552.89258,66.73047 a 403.05548,403.05548 0 0 1 17.33984,22.80274 h 0.0644 a 402.85068,402.85068 0 0 0 -17.40429,-22.80274 z m 33.68554,47.88672 a 403.05548,403.05548 0 0 1 46.46094,113.99805 403.05548,403.05548 0 0 1 3.20508,14.67383 l -153.96094,36.64843 v 32.11719 l 161.9961,-0.12695 A 402.85068,402.85068 0 0 0 857.5293,302.57617 Z m -412.35351,0.32422 -149.12696,0.11523 v 197.35547 l 103.92188,-0.0801 c 0.14042,-1.57128 0.30819,-3.14105 0.51562,-4.70508 3.1904,-24.98258 15.1706,-48.69605 33.23047,-66.22656 17.01663,-16.70482 39.53467,-27.56919 63.11524,-30.91602 v -70.44922 a 182.54082,182.54082 0 0 0 -27.21289,4.33984 182.54082,182.54082 0 0 0 -0.42188,0.0996 182.54082,182.54082 0 0 0 -15.89648,4.59766 z m -174.22461,0.13477 -103.89844,0.082 a 402.85068,402.85068 0 0 0 -57.26758,197.40039 l 161.16602,-0.12696 z m 250.97851,24.61328 v 70.11523 c 2.70266,0.22632 5.39864,0.52893 8.07813,0.94922 21.41455,3.28897 41.76231,13.00064 57.88672,27.45508 16.29133,14.49089 28.1332,33.85962 33.75781,54.91406 1.69825,6.22983 2.81749,12.6059 3.39648,19.03125 l 103.08789,-0.0801 v -26.16211 l -35.79101,8.51953 a 182.54082,182.54082 0 0 0 -2.875,-14.75195 182.54082,182.54082 0 0 0 -167.54102,-139.99023 z m 393.16993,197.33398 -161.86524,0.12696 v 210.06054 l 93.60938,-0.0723 a 402.85068,402.85068 0 0 0 68.25586,-210.11524 z m -186.9629,0.14649 -103.61914,0.082 c -0.91879,6.92005 -2.46603,13.75572 -4.64648,20.38672 -6.8767,21.20228 -20.30292,40.18042 -37.88086,53.86523 -5.72071,4.49278 -11.89664,8.38398 -18.38281,11.66406 12.92252,-0.15238 25.84505,-0.30462 38.76758,-0.45703 0.77864,-0.009 1.55729,-0.0183 2.33593,-0.0273 -5.98585,41.55289 -11.97396,83.10547 -17.96093,124.6582 l 141.38671,-0.11133 z m -327.58984,0.25586 -104.49805,0.082 v 193.30859 c 4.99982,-34.70966 10.00043,-69.41921 15,-104.12891 22.80903,-0.26685 45.61873,-0.5368 68.42774,-0.80468 0.53066,-0.0509 1.63294,0.22391 0.88672,-0.55274 27.81379,-0.32854 55.6276,-0.65625 83.4414,-0.98437 -1.36687,-0.65237 -2.72142,-1.32912 -4.06054,-2.03711 -19.63106,-10.28042 -36.01493,-26.57253 -46.55664,-46.05078 -6.58052,-12.01711 -10.82235,-25.26161 -12.64063,-38.83203 z m -129.5957,0.10156 -160.99805,0.12695 a 402.85068,402.85068 0 0 0 68.58399,210.00586 l 92.41406,-0.0723 z m 557.56836,234.7207 -75.28516,0.0586 v 73.10352 a 402.85068,402.85068 0 0 0 75.28516,-73.16211 z m -100.38282,0.0781 -145.00195,0.11328 c -7.19469,49.93424 -14.38982,99.86842 -21.58398,149.80273 a 402.85068,402.85068 0 0 0 166.58593,-59.5664 z m -365.82812,0.28711 -66.25977,0.0527 v 89.47461 a 402.85068,402.85068 0 0 0 49.4961,26.86523 c 5.5875,-38.79758 11.1755,-77.59509 16.76367,-116.39257 z m -91.35742,0.0723 -74.04883,0.0586 a 402.85068,402.85068 0 0 0 74.04883,72.03321 z" />
    <g
       id="g3133"
       transform="rotate(-13.457991,513.66505,510.33615)"
       style="display:inline">
      <path
         id="path3075"
         style="display:inline;fill:#b82d35;fill-opacity:1;stroke-width:0"
         d="M 509.05078,8.6757812 V 88.042969 c 7.03563,0.0092 14.08723,0.102395 21.0625,0.398437 6.34398,0.273605 12.65733,0.681819 18.94727,1.238282 4.29912,0.383936 8.76943,0.836846 13.01367,1.347656 36.42765,4.34008 72.29109,13.405846 106.38281,26.958986 34.83512,13.81822 67.80591,32.30938 97.79883,54.77539 2.05538,1.55336 4.2494,3.22097 6.33398,4.84961 27.16567,21.1439 51.84729,45.76621 73.11524,72.92383 12.75895,16.28178 24.3237,33.49671 34.57226,51.46484 12.10855,21.22581 22.42268,43.62067 30.69336,66.66797 1.74811,4.87307 3.47277,9.95517 5.04102,14.89648 1.20182,3.76973 2.33854,7.51692 3.41797,11.2793 2.24438,7.86499 4.35566,15.99521 6.14062,23.96875 3.15873,14.01177 5.60275,28.16618 7.32813,42.48633 0.73445,6.13264 1.33606,12.26617 1.8125,18.46875 0.3044,4.03669 0.57033,8.24297 0.75976,12.35156 0.35878,7.11872 0.45344,14.26457 0.49219,21.42578 h 79.36721 c -0.022,-21.45901 -1.2403,-42.92334 -3.9375,-64.21484 -7.8389,-62.6455 -27.60877,-123.77571 -57.97268,-179.13086 C 926.89219,221.74807 892.32269,177.71526 851.53125,140.4668 805.79841,98.631856 752.24845,65.379052 694.47852,42.929688 641.42725,22.290957 584.85677,10.714033 527.95703,8.9394531 521.65783,8.7365405 515.35355,8.6536189 509.05078,8.6757812 Z" />
      <path
         id="path2933"
         style="display:inline;fill:#ff2a2a;fill-opacity:1;stroke-width:0"
         d="m 509.05078,253.56055 v 55.60351 c 4.66608,0.007 9.3316,0.0872 13.99024,0.375 1.01122,0.0769 2.29098,0.15535 3.40625,0.24024 5.33732,0.41778 10.651,1.05196 15.89453,1.8789 7.47491,1.1881 14.92569,2.79876 22.16992,4.79492 12.25871,3.3698 24.19204,7.90664 35.60937,13.49805 0.82085,0.4168 1.85316,0.91693 2.69336,1.34961 19.3812,9.86062 37.31513,22.96666 52.61719,38.52734 4.7593,4.82824 9.30469,9.92167 13.51953,15.16016 11.28901,14.01157 20.70384,29.53068 27.91602,46.01563 1.59216,3.64504 3.15809,7.51722 4.55078,11.32421 5.61534,15.25093 9.43222,31.36039 11.25586,47.58399 0.27796,2.45057 0.49698,4.81716 0.68555,7.31055 0.20356,2.73875 0.36231,5.43164 0.45117,8.21679 0.0956,2.6795 0.11963,5.38954 0.12109,8.10547 h 55.60938 c -0.0393,-14.71264 -1.11384,-29.42775 -3.60547,-43.93359 -6.53121,-39.00113 -22.15417,-76.45309 -45.31836,-108.50586 -21.21927,-29.46708 -48.71499,-54.39283 -80.14844,-72.57813 -28.7481,-16.68014 -60.72502,-27.77904 -93.64258,-32.40429 -12.5071,-1.77457 -25.14391,-2.59797 -37.77539,-2.5625 z" />
      <path
         id="path2931"
         style="display:inline;fill:#d30a0a;fill-opacity:1;stroke-width:0"
         d="m 509.57031,140.00586 c -0.17319,10e-4 -0.34635,0.003 -0.51953,0.004 v 60.57421 c 6.71743,-0.0108 13.40381,0.11357 20.11133,0.51172 3.57818,0.20707 7.28013,0.48189 10.85742,0.81641 12.09726,1.13135 24.12843,2.95919 36.01367,5.48242 31.75711,6.75203 62.5798,18.53953 90.75,34.79102 8.84359,5.09161 17.38387,10.57886 25.69922,16.53125 14.92633,10.65706 29.04913,22.78403 41.91602,35.96875 8.41371,8.64091 16.4288,17.8612 23.81445,27.46875 13.68577,17.76257 25.52295,37.14404 35.08008,57.49609 0.84226,1.76297 1.64686,3.55329 2.47851,5.38672 7.48794,16.75059 13.50133,34.15932 17.93946,51.96289 0.66627,2.71026 1.36102,5.64084 1.95898,8.37305 4.84146,21.98968 7.29053,44.5997 7.2793,67.16797 -7e-5,0.3346 -9.5e-4,0.6693 -0.002,1.0039 h 60.57031 c 0.0265,-17.39972 -1.09904,-34.80289 -3.48633,-52.03906 -5.3973,-39.26187 -17.12213,-77.64345 -34.59961,-113.21289 -15.00229,-30.56384 -34.20928,-59.062 -56.93555,-84.41602 -30.70501,-34.28434 -67.82754,-62.79941 -108.88476,-83.59961 -41.29122,-20.96114 -86.5279,-34.11461 -132.62305,-38.54687 -12.43264,-1.20246 -24.92681,-1.77581 -37.41797,-1.72461 z" />
      <path
         style="display:inline;fill:#389198;fill-opacity:1;stroke-width:0"
         d="m 481.46472,1010.5078 c -2.16318,-0.2017 -10.25405,-0.9236 -17.9797,-1.6042 C 382.10115,1001.7338 296.10057,970.06386 226.65714,921.6911 202.77098,905.05251 183.57951,888.76744 159.43099,864.64581 127.41027,832.66073 106.36048,805.96023 83.862167,768.79089 73.617444,751.86564 56.211579,717.16456 48.974511,699.23736 33.013245,659.69916 20.94568,612.00136 15.609616,567.36054 13.152124,546.80147 12.241312,498.26651 13.901484,476.33833 21.612106,374.49358 58.769399,279.55921 121.83571,200.5737 205.65894,95.591815 327.93621,28.948145 462.09062,15.127667 c 9.43093,-0.971568 19.67093,-1.766486 22.75555,-1.766486 h 5.60839 v 34.715432 c 0,39.031458 0.73951,36.079617 -9.03877,36.079617 -3.01607,0 -13.4352,1.020954 -23.15362,2.268785 -67.19101,8.627233 -128.66724,31.606325 -185.24954,69.244105 -50.50984,33.59844 -94.80049,79.75477 -127.00368,132.35352 -77.465366,126.52723 -83.862387,285.47121 -16.80313,417.49984 21.57125,42.47023 45.41656,75.3543 79.1428,109.14249 34.33746,34.40055 69.13683,59.68983 111.04274,80.69663 154.89676,77.64737 341.67657,54.57593 472.78496,-58.39938 83.57849,-72.01908 137.68335,-176.86372 146.66609,-284.21019 0.69819,-8.3437 1.50809,-16.81382 1.79977,-18.82249 l 0.53034,-3.65212 h 34.95333 34.95335 l -0.775,13.7657 c -2.4082,42.77191 -13.16534,94.66775 -28.24806,136.27675 -25.72992,70.98174 -64.31399,131.73006 -117.39866,184.83727 -94.31063,94.35064 -221.835,146.82666 -354.53762,145.89166 -13.59715,-0.096 -26.49196,-0.3393 -28.65514,-0.541 z"
         id="path3090" />
    </g>
    <g
       id="g2658"
       style="display:inline;stroke-width:1.06808"
       transform="matrix(0.93626375,0,0,0.93626375,-8.5860555,3.7262709)">
      <path
         style="display:none;fill:#ff2a2a;fill-opacity:1;stroke-width:0"
         d="M 535.10495,622.43977 C 515.31028,616.43102 500.279,607.5138 485.8586,593.22465 c -13.98967,-13.86234 -24.28728,-31.05003 -29.29767,-48.9006 -3.09193,-11.01564 -2.76821,-39.90304 0.58556,-52.25349 9.87167,-36.3529 39.02366,-64.77409 78.49995,-76.53207 20.24832,-6.03095 39.46479,-3.79198 62.6863,7.30377 31.19281,14.90462 54.0488,42.04832 63.0239,74.84696 1.64416,6.00846 2.15221,11.58142 2.15129,23.59835 -10e-4,14.35327 -0.27765,16.52021 -3.15517,24.72208 -7.31839,20.85976 -25.92008,45.27252 -44.04154,57.79989 -9.95614,6.88267 -28.69233,16.01016 -38.20564,18.61221 -3.70831,1.01428 -12.81053,2.06768 -20.22716,2.3409 -12.03337,0.44327 -14.48453,0.19326 -22.77347,-2.32288 z"
         id="path2876" />
      <path
         style="display:none;fill:#ff2a2a;fill-opacity:1;stroke-width:0"
         d="m 512.92918,1003.9648 c -2.4722,-0.5361 -8.99835,-2.2867 -14.50253,-3.8902 -5.50419,-1.60354 -21.18024,-5.20562 -34.83566,-8.00462 -48.02061,-9.84295 -66.51514,-16.07214 -84.94765,-28.61144 -10.75143,-7.31401 -10.56409,-6.86665 -9.75775,-23.29966 0.96314,-19.62869 2.88724,-29.8496 13.69759,-72.76218 8.71286,-34.58646 11.68928,-48.91748 13.47815,-64.89546 l 0.72342,-6.46146 -4.85672,-0.0166 c -12.90736,-0.0441 -29.01643,-6.74962 -36.98608,-15.39567 -7.67801,-8.32966 -10.42878,-15.76568 -10.92647,-29.53693 -0.48576,-13.44116 1.17939,-21.68352 6.79746,-33.64692 3.0863,-6.57213 3.43281,-8.35322 3.20341,-16.46566 -0.90544,-32.0184 14.98729,-52.93258 46.53974,-61.24438 10.4435,-2.75111 34.75167,-3.3803 45.99842,-1.1906 4.53962,0.88384 26.77702,1.31085 69.67132,1.33785 34.65192,0.0218 69.78115,0.50707 78.06498,1.07834 14.0061,0.9659 15.27627,1.24445 18.12654,3.97518 7.55157,7.23485 12.0295,21.86038 10.63126,34.72307 -1.19351,10.97949 -3.36667,19.21613 -12.2965,46.60582 -5.59246,17.1533 -9.39054,31.16781 -11.29376,41.67281 -7.68762,42.43277 -18.65677,91.0666 -30.28993,134.2963 -3.49269,12.97909 -7.37063,29.91933 -8.61765,37.64498 -6.02168,37.30611 -8.26629,45.40934 -15.03339,54.27194 -2.22874,2.9189 -6.03285,6.10179 -9.02228,7.54889 -5.76552,2.7911 -16.42088,3.8159 -23.56592,2.2666 z"
         id="path2878" />
    </g>
    <g
       id="g3218"
       transform="rotate(-13.457991,513.66505,510.33615)"
       style="display:inline">
      <path
         id="path3210"
         style="display:inline;fill:#b82d35;fill-opacity:1;stroke-width:0"
         d="M 509.05078,8.6757812 V 88.042969 c 7.03563,0.0092 14.08723,0.102395 21.0625,0.398437 6.34398,0.273605 12.65733,0.681819 18.94727,1.238282 4.29912,0.383936 8.76943,0.836846 13.01367,1.347656 36.42765,4.34008 72.29109,13.405846 106.38281,26.958986 34.83512,13.81822 67.80591,32.30938 97.79883,54.77539 2.05538,1.55336 4.2494,3.22097 6.33398,4.84961 27.16567,21.1439 51.84729,45.76621 73.11524,72.92383 12.75895,16.28178 24.3237,33.49671 34.57226,51.46484 12.10855,21.22581 22.42268,43.62067 30.69336,66.66797 1.74811,4.87307 3.47277,9.95517 5.04102,14.89648 1.20182,3.76973 2.33854,7.51692 3.41797,11.2793 2.24438,7.86499 4.35566,15.99521 6.14062,23.96875 3.15873,14.01177 5.60275,28.16618 7.32813,42.48633 0.73445,6.13264 1.33606,12.26617 1.8125,18.46875 0.3044,4.03669 0.57033,8.24297 0.75976,12.35156 0.35878,7.11872 0.45344,14.26457 0.49219,21.42578 h 79.36721 c -0.022,-21.45901 -1.2403,-42.92334 -3.9375,-64.21484 -7.8389,-62.6455 -27.60877,-123.77571 -57.97268,-179.13086 C 926.89219,221.74807 892.32269,177.71526 851.53125,140.4668 805.79841,98.631856 752.24845,65.379052 694.47852,42.929688 641.42725,22.290957 584.85677,10.714033 527.95703,8.9394531 521.65783,8.7365405 515.35355,8.6536189 509.05078,8.6757812 Z" />
      <path
         id="path3212"
         style="display:inline;fill:#ff2a2a;fill-opacity:1;stroke-width:0"
         d="m 509.05078,253.56055 v 55.60351 c 4.66608,0.007 9.3316,0.0872 13.99024,0.375 1.01122,0.0769 2.29098,0.15535 3.40625,0.24024 5.33732,0.41778 10.651,1.05196 15.89453,1.8789 7.47491,1.1881 14.92569,2.79876 22.16992,4.79492 12.25871,3.3698 24.19204,7.90664 35.60937,13.49805 0.82085,0.4168 1.85316,0.91693 2.69336,1.34961 19.3812,9.86062 37.31513,22.96666 52.61719,38.52734 4.7593,4.82824 9.30469,9.92167 13.51953,15.16016 11.28901,14.01157 20.70384,29.53068 27.91602,46.01563 1.59216,3.64504 3.15809,7.51722 4.55078,11.32421 5.61534,15.25093 9.43222,31.36039 11.25586,47.58399 0.27796,2.45057 0.49698,4.81716 0.68555,7.31055 0.20356,2.73875 0.36231,5.43164 0.45117,8.21679 0.0956,2.6795 0.11963,5.38954 0.12109,8.10547 h 55.60938 c -0.0393,-14.71264 -1.11384,-29.42775 -3.60547,-43.93359 -6.53121,-39.00113 -22.15417,-76.45309 -45.31836,-108.50586 -21.21927,-29.46708 -48.71499,-54.39283 -80.14844,-72.57813 -28.7481,-16.68014 -60.72502,-27.77904 -93.64258,-32.40429 -12.5071,-1.77457 -25.14391,-2.59797 -37.77539,-2.5625 z" />
      <path
         id="path3214"
         style="display:inline;fill:#d30a0a;fill-opacity:1;stroke-width:0"
         d="m 509.57031,140.00586 c -0.17319,10e-4 -0.34635,0.003 -0.51953,0.004 v 60.57421 c 6.71743,-0.0108 13.40381,0.11357 20.11133,0.51172 3.57818,0.20707 7.28013,0.48189 10.85742,0.81641 12.09726,1.13135 24.12843,2.95919 36.01367,5.48242 31.75711,6.75203 62.5798,18.53953 90.75,34.79102 8.84359,5.09161 17.38387,10.57886 25.69922,16.53125 14.92633,10.65706 29.04913,22.78403 41.91602,35.96875 8.41371,8.64091 16.4288,17.8612 23.81445,27.46875 13.68577,17.76257 25.52295,37.14404 35.08008,57.49609 0.84226,1.76297 1.64686,3.55329 2.47851,5.38672 7.48794,16.75059 13.50133,34.15932 17.93946,51.96289 0.66627,2.71026 1.36102,5.64084 1.95898,8.37305 4.84146,21.98968 7.29053,44.5997 7.2793,67.16797 -7e-5,0.3346 -9.5e-4,0.6693 -0.002,1.0039 h 60.57031 c 0.0265,-17.39972 -1.09904,-34.80289 -3.48633,-52.03906 -5.3973,-39.26187 -17.12213,-77.64345 -34.59961,-113.21289 -15.00229,-30.56384 -34.20928,-59.062 -56.93555,-84.41602 -30.70501,-34.28434 -67.82754,-62.79941 -108.88476,-83.59961 -41.29122,-20.96114 -86.5279,-34.11461 -132.62305,-38.54687 -12.43264,-1.20246 -24.92681,-1.77581 -37.41797,-1.72461 z" />
      <path
         style="display:inline;fill:#389198;fill-opacity:1;stroke-width:0"
         d="m 481.46472,1010.5078 c -2.16318,-0.2017 -10.25405,-0.9236 -17.9797,-1.6042 C 382.10115,1001.7338 296.10057,970.06386 226.65714,921.6911 202.77098,905.05251 183.57951,888.76744 159.43099,864.64581 127.41027,832.66073 106.36048,805.96023 83.862167,768.79089 73.617444,751.86564 56.211579,717.16456 48.974511,699.23736 33.013245,659.69916 20.94568,612.00136 15.609616,567.36054 13.152124,546.80147 12.241312,498.26651 13.901484,476.33833 21.612106,374.49358 58.769399,279.55921 121.83571,200.5737 205.65894,95.591815 327.93621,28.948145 462.09062,15.127667 c 9.43093,-0.971568 19.67093,-1.766486 22.75555,-1.766486 h 5.60839 v 34.715432 c 0,39.031458 0.73951,36.079617 -9.03877,36.079617 -3.01607,0 -13.4352,1.020954 -23.15362,2.268785 -67.19101,8.627233 -128.66724,31.606325 -185.24954,69.244105 -50.50984,33.59844 -94.80049,79.75477 -127.00368,132.35352 -77.465366,126.52723 -83.862387,285.47121 -16.80313,417.49984 21.57125,42.47023 45.41656,75.3543 79.1428,109.14249 34.33746,34.40055 69.13683,59.68983 111.04274,80.69663 154.89676,77.64737 341.67657,54.57593 472.78496,-58.39938 83.57849,-72.01908 137.68335,-176.86372 146.66609,-284.21019 0.69819,-8.3437 1.50809,-16.81382 1.79977,-18.82249 l 0.53034,-3.65212 h 34.95333 34.95335 l -0.775,13.7657 c -2.4082,42.77191 -13.16534,94.66775 -28.24806,136.27675 -25.72992,70.98174 -64.31399,131.73006 -117.39866,184.83727 -94.31063,94.35064 -221.835,146.82666 -354.53762,145.89166 -13.59715,-0.096 -26.49196,-0.3393 -28.65514,-0.541 z"
         id="path3216" />
    </g>
    <path
       id="path3204"
       style="display:inline;fill:#ff2a2a;fill-opacity:1;stroke-width:0"
       d="m 525.98756,410.81603 c -20.81145,-2.86493 -42.47918,1.01154 -61.01106,10.90491 -17.46314,9.27051 -32.09822,23.78287 -41.46074,41.20227 -9.12458,16.87169 -13.30343,36.37532 -11.84586,55.50425 1.47437,20.01711 9.08024,39.53688 21.5829,55.24344 11.8713,14.99411 28.08365,26.50348 46.17332,32.72023 18.11844,6.2736 38.03287,7.24252 56.66833,2.71856 19.07187,-4.5846 36.7316,-14.86465 50.10525,-29.21828 13.73055,-14.65716 22.92725,-33.49465 26.00265,-53.34436 3.09029,-19.61693 0.23434,-40.12899 -8.15929,-58.13156 -8.34497,-18.04344 -22.14477,-33.52073 -39.1589,-43.81272 -11.83501,-7.19963 -25.16697,-11.9334 -38.8966,-13.78674 z" />
    <path
       id="rect3230"
       style="display:inline;fill:#ff2a2a;fill-opacity:1;stroke-width:0"
       d="m 595.3398,618.75243 -204.97538,2.41843 -0.0783,0.54322 -72.41296,0.85516 -17.88884,124.14945 72.41296,-0.85516 -19.9348,138.34851 a 406.12369,406.12369 0 0 0 102.02218,28.67144 406.12369,406.12369 0 0 0 2.39826,0.33749 l 96.19006,-1.13494 z" />
  </g>
</svg>
