/* XPM */
static const char * closeSlider[] = {
"11 11 3 1",
" 	c None",
".	c #DB0B0B",
"+	c #000000",
"  .......  ",
" ++.....++ ",
".+++...+++.",
"..+++.+++..",
"...+++++...",
"....+++....",
"...+++++...",
"..+++.+++..",
".+++...+++.",
" ++.....++ ",
"  .......  "};
