/* XPM */
static char * CopasiDoc16_Alpha_xpm[] = {
"16 16 188 2",
"  	c None",
". 	c #87A9DC",
"+ 	c #88ABDE",
"@ 	c #84A3D6",
"# 	c #FFFFFF",
"$ 	c #FBFEFF",
"% 	c #F8FBFF",
"& 	c #F5FAFE",
"* 	c #CECEB0",
"= 	c #C9C9B2",
"- 	c #B8B89C",
"; 	c #A4A48A",
"> 	c #ABAB8E",
", 	c #324868",
"' 	c #FBFDFF",
") 	c #F7FBFF",
"! 	c #D3D3B5",
"~ 	c #C1C1AB",
"{ 	c #93938B",
"] 	c #737384",
"^ 	c #7A7A83",
"/ 	c #8E8E82",
"( 	c #B1B195",
"_ 	c #D5D5B4",
": 	c #1A2B47",
"< 	c #F7FAFF",
"[ 	c #CECEBF",
"} 	c #A2A298",
"| 	c #707083",
"1 	c #7C7C84",
"2 	c #AEAE9E",
"3 	c #CCCCBC",
"4 	c #CBCBB0",
"5 	c #CFCFAF",
"6 	c #AAB3F5",
"7 	c #6C78A9",
"8 	c #B5B5AB",
"9 	c #7C7C8C",
"0 	c #676782",
"a 	c #8B8B87",
"b 	c #B7B7A3",
"c 	c #E2EEFD",
"d 	c #DEECFD",
"e 	c #DAEAFD",
"f 	c #D8E8FC",
"g 	c #D4E6FC",
"h 	c #BAC9F4",
"i 	c #11203A",
"j 	c #A2A29F",
"k 	c #6F7087",
"l 	c #7A7A89",
"m 	c #A7A7A1",
"n 	c #E4EFFD",
"o 	c #E1EDFD",
"p 	c #DAEAFC",
"q 	c #D7E8FC",
"r 	c #D3E6FC",
"s 	c #D0E4FC",
"t 	c #BDCDF3",
"u 	c #0F1B35",
"v 	c #A2A29E",
"w 	c #737387",
"x 	c #969693",
"y 	c #C9C9BE",
"z 	c #E3EFFD",
"A 	c #DFEDFD",
"B 	c #DCEBFC",
"C 	c #D9E9FD",
"D 	c #D5C79E",
"E 	c #D7C19D",
"F 	c #C29F74",
"G 	c #B98F62",
"H 	c #C7A175",
"I 	c #E1CAA8",
"J 	c #AEAE9F",
"K 	c #6F6F84",
"L 	c #939390",
"M 	c #C3C3AA",
"N 	c #E1EEFD",
"O 	c #DFECFD",
"P 	c #DBEBFD",
"Q 	c #D1C197",
"R 	c #C4A87E",
"S 	c #A97C52",
"T 	c #915F4F",
"U 	c #7C525A",
"V 	c #754E5E",
"W 	c #875350",
"X 	c #A8704E",
"Y 	c #DDC392",
"Z 	c #79796E",
"` 	c #7C7C79",
" .	c #B9B9A2",
"..	c #E0EEFD",
"+.	c #DDECFD",
"@.	c #DBEAFC",
"#.	c #CCA97F",
"$.	c #A47957",
"%.	c #7D595B",
"&.	c #826866",
"*.	c #9F8C76",
"=.	c #C2B698",
"-.	c #CAC1A4",
";.	c #C1AE93",
">.	c #8E634E",
",.	c #B98A4E",
"'.	c #64645D",
").	c #92927E",
"!.	c #809CCF",
"~.	c #DDEBFC",
"{.	c #C9A278",
"].	c #965F4E",
"^.	c #866861",
"/.	c #A49885",
"(.	c #CBC6B5",
"_.	c #C6DEFB",
":.	c #C2DCFB",
"<.	c #BFDBFA",
"[.	c #C4BBAA",
"}.	c #7D5F5C",
"|.	c #A97942",
"1.	c #7C95C8",
"2.	c #E4D1B0",
"3.	c #A36A4B",
"4.	c #8C6B5F",
"5.	c #C6BCA9",
"6.	c #C8E0FB",
"7.	c #C4DEFB",
"8.	c #C1DCFA",
"9.	c #BED9FB",
"0.	c #C9B192",
"a.	c #8C7270",
"b.	c #845E5E",
"c.	c #C2AC8A",
"d.	c #7A7A78",
"e.	c #B1B19C",
"f.	c #D4E7FC",
"g.	c #DDCA9F",
"h.	c #975F41",
"i.	c #9A7C5B",
"j.	c #D2BC90",
"k.	c #DFC396",
"l.	c #DDC092",
"m.	c #D2B587",
"n.	c #B2875E",
"o.	c #945A45",
"p.	c #845C5D",
"q.	c #B29D8A",
"r.	c #AFAF9F",
"s.	c #707081",
"t.	c #83837C",
"u.	c #ADAC98",
"v.	c #C0BA94",
"w.	c #A48544",
"x.	c #8E5E2E",
"y.	c #884534",
"z.	c #823734",
"A.	c #853A36",
"B.	c #7F4447",
"C.	c #744F5B",
"D.	c #8B756B",
"E.	c #B5A993",
"F.	c #0D1A33",
"G.	c #BDBDA6",
"H.	c #676783",
"I.	c #605F84",
"J.	c #5B5673",
"K.	c #55496C",
"L.	c #4E3B6B",
"M.	c #51396A",
"N.	c #6C5669",
"O.	c #928276",
"P.	c #B2AA93",
"Q.	c #C4C1A4",
"R.	c #A5BDEE",
"S.	c #CBCBAA",
"T.	c #C6C6AF",
"U.	c #C4C4AE",
"V.	c #C4C2AE",
"W.	c #C2C1AE",
"X.	c #C5C2B2",
"Y.	c #CFCEC0",
"Z.	c #CECCB0",
"`.	c #9396C1",
" +	c #8B91B6",
".+	c #8B8EB8",
"++	c #0D1B33",
"@+	c #0D1B32",
"    . . . . . . + @ .           ",
"    . # $ % & * = - ; > ,       ",
"    . ' ) ! ~ { ] ^ / ( _ :     ",
"    . < [ } | 1 2 3 4 5 6 7     ",
"    . 8 9 0 a b c d e f g h i   ",
"    j k l m n o d p q r s t u   ",
"  v w x y z A B C D E F G H I   ",
"J K L M N O P Q R S T U V W X Y ",
"Z `  ...+.@.#.$.%.&.*.=.-.;.>.,.",
"'.).!.~.e {.].^./.(._.:.<.[.}.|.",
"'.).1.f 2.3.4.5.6.7.8.9.0.a.b.c.",
"Z d.e.f.g.h.i.j.k.l.m.n.o.p.q.  ",
"r.s.t.u.v.w.x.y.z.A.B.C.D.E.F.  ",
"  G.).H.I.J.K.L.M.N.O.P.Q.R.F.  ",
"    S.T.U.U.V.W.X.Y.Z.`. +.+++  ",
"        @+F.F.F.F.F.F.F.F.@+    "};
