/* XPM */
static char * Copasi32_Alpha_xpm[] = {
"32 32 385 2",
"  	c None",
". 	c #EFEFD2",
"+ 	c #E1E1BD",
"@ 	c #D4D4AC",
"# 	c #D2D2A9",
"$ 	c #DADAB5",
"% 	c #EFEFD5",
"& 	c #CFCF9D",
"* 	c #BFBF87",
"= 	c #B5B586",
"- 	c #909078",
"; 	c #737370",
"> 	c #73736D",
", 	c #7A7A6B",
"' 	c #909075",
") 	c #D0D0A2",
"! 	c #F3F3DA",
"~ 	c #C7C797",
"{ 	c #9D9D76",
"] 	c #6E6E6E",
"^ 	c #494970",
"/ 	c #44446D",
"( 	c #40406A",
"_ 	c #3F3F69",
": 	c #5C5C68",
"< 	c #75756A",
"[ 	c #87886E",
"} 	c #BABB89",
"| 	c #E9EBC8",
"1 	c #CFCFA1",
"2 	c #A9A97D",
"3 	c #72726F",
"4 	c #4C4C6B",
"5 	c #3B3B6C",
"6 	c #42426F",
"7 	c #62626E",
"8 	c #85856B",
"9 	c #8B8B61",
"0 	c #AEAE7B",
"a 	c #CCCCA1",
"b 	c #D4D4AA",
"c 	c #D9DAAF",
"d 	c #E1E1B9",
"e 	c #BEBE96",
"f 	c #787878",
"g 	c #424271",
"h 	c #32326F",
"i 	c #56566E",
"j 	c #8B8B78",
"k 	c #B7B789",
"l 	c #CCCC9D",
"m 	c #DDDDBE",
"n 	c #EAEACF",
"o 	c #CACA9F",
"p 	c #9C9C7E",
"q 	c #666671",
"r 	c #333370",
"s 	c #353571",
"t 	c #656578",
"u 	c #AEAE91",
"v 	c #DDDDB8",
"w 	c #F1F1D3",
"x 	c #E5E5C7",
"y 	c #B2B299",
"z 	c #656579",
"A 	c #343472",
"B 	c #2D2D6F",
"C 	c #4E4E71",
"D 	c #93937D",
"E 	c #C9C99D",
"F 	c #EAEACC",
"G 	c #D0D1A5",
"H 	c #ACAC8B",
"I 	c #5E5E75",
"J 	c #2A2A72",
"K 	c #313172",
"L 	c #68686F",
"M 	c #A1A17B",
"N 	c #D6D6AB",
"O 	c #BEBF9F",
"P 	c #78797C",
"Q 	c #414272",
"R 	c #2E2E71",
"S 	c #505070",
"T 	c #8B8B80",
"U 	c #BFBF99",
"V 	c #BFC19E",
"W 	c #7D807E",
"X 	c #393972",
"Y 	c #616174",
"Z 	c #A4A485",
"` 	c #D6D6AF",
" .	c #C1C19E",
"..	c #74747B",
"+.	c #3A3A72",
"@.	c #4D4D72",
"#.	c #92927C",
"$.	c #C1C192",
"%.	c #F1E4B0",
"&.	c #EAD79D",
"*.	c #E8D193",
"=.	c #F1E4B2",
"-.	c #BFBF9E",
";.	c #7E7E7E",
">.	c #454575",
",.	c #99998A",
"'.	c #D5D5AE",
").	c #E8D36F",
"!.	c #E6D184",
"~.	c #D9B966",
"{.	c #C79A4F",
"].	c #B07437",
"^.	c #AA692F",
"/.	c #B27436",
"(.	c #CA9D52",
"_.	c #E1C881",
":.	c #EFE3B6",
"<.	c #C2C29E",
"[.	c #393973",
"}.	c #4D4D73",
"|.	c #98988A",
"1.	c #D9D9BB",
"2.	c #F6F1D1",
"3.	c #EBDBA6",
"4.	c #D6B25B",
"5.	c #C38F34",
"6.	c #AB6B2E",
"7.	c #8D4227",
"8.	c #752B28",
"9.	c #5E1A30",
"0.	c #571633",
"a.	c #591631",
"b.	c #681A26",
"c.	c #85311E",
"d.	c #A75D27",
"e.	c #CB994B",
"f.	c #EAD993",
"g.	c #DADAB0",
"h.	c #8C8C80",
"i.	c #373771",
"j.	c #404071",
"k.	c #989888",
"l.	c #D6D6B2",
"m.	c #ECDAA6",
"n.	c #D9BD7A",
"o.	c #BA8A4B",
"p.	c #97522A",
"q.	c #7C2F22",
"r.	c #69252B",
"s.	c #56213D",
"t.	c #57314D",
"u.	c #4D375D",
"v.	c #493761",
"w.	c #4B375F",
"x.	c #583752",
"y.	c #6B3238",
"z.	c #7C261A",
"A.	c #9C491C",
"B.	c #D7B467",
"C.	c #F5EEC7",
"D.	c #B4B476",
"E.	c #55556C",
"F.	c #33336D",
"G.	c #828272",
"H.	c #D2D2B2",
"I.	c #D4B15F",
"J.	c #B7833E",
"K.	c #854735",
"L.	c #612638",
"M.	c #501F41",
"N.	c #51324F",
"O.	c #6F5C5A",
"P.	c #867B6A",
"Q.	c #B2AD7A",
"R.	c #BBB77A",
"S.	c #BAB979",
"T.	c #BAB978",
"U.	c #BDB777",
"V.	c #B3A46E",
"W.	c #81523C",
"X.	c #772821",
"Y.	c #B17437",
"Z.	c #E6D18D",
"`.	c #8D8D47",
" +	c #373766",
".+	c #4F4F6C",
"++	c #ADAD80",
"@+	c #E0C182",
"#+	c #C08B4C",
"$+	c #702B2A",
"%+	c #481D48",
"&+	c #44305D",
"*+	c #685C65",
"=+	c #969274",
"-+	c #C2C090",
";+	c #D9D8B0",
">+	c #ECECCA",
",+	c #E0DDB9",
"'+	c #92835F",
")+	c #57273E",
"!+	c #8E4421",
"~+	c #CFA63C",
"{+	c #83833C",
"]+	c #333365",
"^+	c #66666F",
"/+	c #DEBF80",
"(+	c #B3733C",
"_+	c #813023",
":+	c #571F3A",
"<+	c #4F3252",
"[+	c #6F6567",
"}+	c #9D9B7B",
"|+	c #C9C89A",
"1+	c #E3E3C3",
"2+	c #E0DFC3",
"3+	c #8A8368",
"4+	c #47234B",
"5+	c #80321D",
"6+	c #C5931D",
"7+	c #82823B",
"8+	c #343466",
"9+	c #6B6B6F",
"0+	c #E2C784",
"a+	c #B98045",
"b+	c #802E22",
"c+	c #5D2036",
"d+	c #6B555B",
"e+	c #969173",
"f+	c #C5C495",
"g+	c #E3E3B9",
"h+	c #E8E8CD",
"i+	c #BCB899",
"j+	c #68545B",
"k+	c #501E3F",
"l+	c #90522F",
"m+	c #D4B457",
"n+	c #C79449",
"o+	c #8A361E",
"p+	c #5C2138",
"q+	c #735D61",
"r+	c #BCB898",
"s+	c #E1E1C2",
"t+	c #E9E5C3",
"u+	c #B6B192",
"v+	c #725E64",
"w+	c #542041",
"x+	c #69303B",
"y+	c #A98C63",
"z+	c #E4DAA7",
"A+	c #E4CD84",
"B+	c #A75E29",
"C+	c #6E1C20",
"D+	c #654750",
"E+	c #AFAA87",
"F+	c #E8E8CA",
"G+	c #E6D18F",
"H+	c #C8AD70",
"I+	c #7A5B57",
"J+	c #532343",
"K+	c #672E3C",
"L+	c #94735A",
"M+	c #CCC294",
"N+	c #DBBD63",
"O+	c #903F21",
"P+	c #561532",
"Q+	c #6A585C",
"R+	c #C3BE8B",
"S+	c #F5ECC1",
"T+	c #EAD89F",
"U+	c #DABA72",
"V+	c #B7763A",
"W+	c #8F3C21",
"X+	c #611B2E",
"Y+	c #632E40",
"Z+	c #987D65",
"`+	c #CABF93",
" @	c #818170",
".@	c #CCCCA8",
"+@	c #DCBC61",
"@@	c #9B4D22",
"#@	c #692026",
"$@	c #674245",
"%@	c #AB8E54",
"&@	c #D5B459",
"*@	c #DAB95A",
"=@	c #D9B75B",
"-@	c #D2AC5C",
";@	c #B47A3C",
">@	c #9D582A",
",@	c #7B2920",
"'@	c #671724",
")@	c #5C2F47",
"!@	c #877368",
"~@	c #C6BF96",
"{@	c #383871",
"]@	c #3E3E6C",
"^@	c #828270",
"/@	c #B1B183",
"(@	c #D6D6AC",
"_@	c #C69933",
":@	c #A86D15",
"<@	c #945314",
"[@	c #974A14",
"}@	c #9C4614",
"|@	c #983A15",
"1@	c #963715",
"2@	c #953715",
"3@	c #8E361A",
"4@	c #7D2E24",
"5@	c #5F1B31",
"6@	c #52193A",
"7@	c #4E2A4C",
"8@	c #695158",
"9@	c #978B76",
"0@	c #C5C19B",
"a@	c #C3C39E",
"b@	c #79797A",
"c@	c #474770",
"d@	c #3E3E6B",
"e@	c #59596B",
"f@	c #888874",
"g@	c #ABAB76",
"h@	c #B8B87A",
"i@	c #B9B770",
"j@	c #B9AF49",
"k@	c #B09E25",
"l@	c #A1821D",
"m@	c #905F1C",
"n@	c #7E381B",
"o@	c #69101B",
"p@	c #63051B",
"q@	c #64061A",
"r@	c #63071C",
"s@	c #580D2B",
"t@	c #451444",
"u@	c #3C235B",
"v@	c #554663",
"w@	c #8A836C",
"x@	c #B4B17F",
"y@	c #D7D7AE",
"z@	c #D1D1A5",
"A@	c #B3B387",
"B@	c #767668",
"C@	c #474764",
"D@	c #2F2F6F",
"E@	c #363671",
"F@	c #3C3C71",
"G@	c #3D3C70",
"H@	c #3C3B67",
"I@	c #3A3960",
"J@	c #37335E",
"K@	c #332A5E",
"L@	c #2B1B5E",
"M@	c #22095E",
"N@	c #20055E",
"O@	c #21065D",
"P@	c #2C1059",
"Q@	c #3D2256",
"R@	c #533E5B",
"S@	c #6E6466",
"T@	c #8E8A74",
"U@	c #B7B586",
"V@	c #DAD9B2",
"W@	c #EBEBC1",
"X@	c #CCCC80",
"Y@	c #98986A",
"Z@	c #52526F",
"`@	c #3D3D71",
" #	c #3D3D72",
".#	c #3B3B71",
"+#	c #3B3A71",
"@#	c #3A3871",
"##	c #3A3771",
"$#	c #3F3D70",
"%#	c #5E5C6D",
"&#	c #88866C",
"*#	c #A4A173",
"=#	c #DDDCB3",
"-#	c #E1E1B2",
";#	c #C4C48C",
">#	c #B9B97D",
",#	c #B9B97B",
"'#	c #BBBB7F",
")#	c #CCCC9B",
"!#	c #DEDEC0",
"                                                                ",
"                                                                ",
"                                    . + @ # # $ %               ",
"                                & * = - ; > , ' ) !             ",
"                            ~ { ] ^ / ( _ : < [ } |             ",
"                        1 2 3 4 5 6 7 8 9 0 a b c               ",
"                    d e f g h i j k l m                         ",
"                n o p q r s t u v w                             ",
"              x y z A B C D E F                                 ",
"            G H I J K L M N                                     ",
"          O P Q R S T U                                         ",
"        V W X s Y Z `                                           ",
"       ...+.@.#.$.                          %.&.*.*.&.=.        ",
"    -.;.+.>.,.'.                      ).!.~.{.].^.^./.(._.:.    ",
"  <...[.}.|.1.                  2.3.4.5.6.7.8.9.0.a.b.c.d.e.f.  ",
"g.h.i.j.k.l.                  m.n.o.p.q.r.s.t.u.v.w.x.y.z.A.B.C.",
"D.E.F.G.H.                &.I.J.K.L.M.N.O.P.Q.R.S.T.U.V.W.X.Y.Z.",
"`. +.+++                @+#+p.$+%+&+*+=+-+;+>+        ,+'+)+!+~+",
"{+]+^+a               /+(+_+:+<+[+}+|+1+              2+3+4+5+6+",
"7+8+9+#             0+a+b+c+d+e+f+g+                h+i+j+k+l+m+",
"7+8+9+#           :.n+o+p+q+r+s+                  t+u+v+w+x+y+z+",
"{+]+^+a           A+B+C+D+E+F+                  G+H+I+J+K+L+M+  ",
"`. +.+++          N+O+P+Q+R+              S+T+U+V+W+X+Y+Z+`+    ",
"D.E.F. @.@        +@@@#@$@%@&@*@*@*@*@*@=@-@;@>@,@'@)@!@~@      ",
"g.h.{@]@^@/@(@      _@:@<@[@}@|@1@1@1@2@3@4@5@6@7@8@9@0@        ",
"  a@b@c@d@e@f@g@h@i@j@k@l@m@n@o@p@p@q@r@s@t@u@v@w@x@y@          ",
"    z@A@B@C@D@E@F@G@H@I@J@K@L@M@N@O@P@Q@R@S@T@U@V@              ",
"      W@X@Y@Z@`@F@ #`@F@F@.#+#@###$#%#&#*#|+=#                  ",
"          -#;#>#,#,#,#,#,#,#,#,#,#'#)#!#                        ",
"                                                                ",
"                                                                ",
"                                                                "};
