/* XPM */
static char * Copasi48_Alpha_xpm[] = {
"48 48 451 2",
"  	c None",
". 	c #DEDE8F",
"+ 	c #C0C061",
"@ 	c #B0B049",
"# 	c #AFAF46",
"$ 	c #C1C164",
"% 	c #E1E19D",
"& 	c #DEDE90",
"* 	c #AFAF49",
"= 	c #ABAB4B",
"- 	c #98985A",
"; 	c #5D5D61",
"> 	c #424263",
", 	c #3F3F63",
"' 	c #444462",
") 	c #454561",
"! 	c #494961",
"~ 	c #676762",
"{ 	c #B1B175",
"] 	c #E4E4A1",
"^ 	c #BDBD65",
"/ 	c #9A9A5E",
"( 	c #414163",
"_ 	c #3D3D64",
": 	c #363667",
"< 	c #1B1B70",
"[ 	c #111174",
"} 	c #1C1C70",
"| 	c #383866",
"1 	c #434361",
"2 	c #474760",
"3 	c #57575D",
"4 	c #909061",
"5 	c #D3D381",
"6 	c #5C5C63",
"7 	c #363668",
"8 	c #1A1A70",
"9 	c #ACAC4A",
"0 	c #B4B448",
"a 	c #C7C763",
"b 	c #E7E79F",
"c 	c #E0E09D",
"d 	c #BEBE68",
"e 	c #323269",
"f 	c #404064",
"g 	c #DADA93",
"h 	c #A7A775",
"i 	c #5D5D66",
"j 	c #343469",
"k 	c #181872",
"l 	c #1A1A71",
"m 	c #363669",
"n 	c #99995B",
"o 	c #AEAE4F",
"p 	c #989860",
"q 	c #4F4F68",
"r 	c #1A1A73",
"s 	c #0D0D76",
"t 	c #151572",
"u 	c #DCDC9F",
"v 	c #A7A777",
"w 	c #161673",
"x 	c #D9D994",
"y 	c #A5A575",
"z 	c #50506B",
"A 	c #181873",
"B 	c #0A0A77",
"C 	c #141473",
"D 	c #DDDE9E",
"E 	c #BBBC69",
"F 	c #979761",
"G 	c #4E4E68",
"H 	c #171773",
"I 	c #D9DAA2",
"J 	c #A4A678",
"K 	c #5D5E66",
"L 	c #34346A",
"M 	c #151573",
"N 	c #333369",
"O 	c #D9DAA1",
"P 	c #A2A478",
"Q 	c #51526B",
"R 	c #1A1B72",
"S 	c #0E0E75",
"T 	c #1A1A72",
"U 	c #DADC9F",
"V 	c #A3A677",
"W 	c #51526A",
"X 	c #161672",
"Y 	c #A5A576",
"Z 	c #50516A",
"` 	c #51516B",
" .	c #D9D993",
"..	c #EEDE81",
"+.	c #DEC044",
"@.	c #D6B025",
"#.	c #D6AF20",
"$.	c #ECDE82",
"%.	c #191972",
"&.	c #D6AE28",
"*.	c #CA982C",
"=.	c #A95D17",
"-.	c #9B410B",
";.	c #993E0A",
">.	c #AB5D15",
",.	c #CB9A2F",
"'.	c #DDBD48",
").	c #99400C",
"!.	c #8B300F",
"~.	c #6F1419",
"{.	c #63081D",
"].	c #62071E",
"^.	c #62071D",
"/.	c #690817",
"(.	c #7E140B",
"_.	c #94340A",
":.	c #AA5C15",
"<.	c #DEBF49",
"[.	c #F0E48F",
"}.	c #E0E09C",
"|.	c #A7A776",
"1.	c #50506A",
"2.	c #CA9A30",
"3.	c #701419",
"4.	c #630A1E",
"5.	c #560A2B",
"6.	c #370849",
"7.	c #290757",
"8.	c #270759",
"9.	c #280757",
"0.	c #360749",
"a.	c #570829",
"b.	c #6B0C16",
"c.	c #7F1609",
"d.	c #963508",
"e.	c #B2691A",
"f.	c #DEC149",
"g.	c #191973",
"h.	c #DBBD48",
"i.	c #C89A32",
"j.	c #A65B19",
"k.	c #8D3411",
"l.	c #380A48",
"m.	c #351452",
"n.	c #493051",
"o.	c #473B5A",
"p.	c #423D60",
"q.	c #423E61",
"r.	c #423E60",
"s.	c #483D59",
"t.	c #563B4A",
"u.	c #5F2F3A",
"v.	c #69141E",
"w.	c #7A0D08",
"x.	c #963608",
"y.	c #E0E089",
"z.	c #9A9A5C",
"A.	c #0D0D75",
"B.	c #999960",
"C.	c #C99A31",
"D.	c #A05B1D",
"E.	c #7E341E",
"F.	c #671421",
"G.	c #53082D",
"H.	c #4A405A",
"I.	c #625D5D",
"J.	c #9B9858",
"K.	c #ADAC49",
"L.	c #AFAE45",
"M.	c #AFAF45",
"N.	c #B0AE44",
"O.	c #B0AC47",
"P.	c #A4964D",
"Q.	c #764D3B",
"R.	c #68141F",
"S.	c #7D150B",
"T.	c #A95B16",
"U.	c #DDBE47",
"V.	c #C4C447",
"W.	c #5C5C5D",
"X.	c #5B5B63",
"Y.	c #BEBE66",
"Z.	c #EEE08F",
"`.	c #DDBE49",
" +	c #A75B18",
".+	c #8B3412",
"++	c #5F1428",
"@+	c #34084A",
"#+	c #280858",
"$+	c #2D145B",
"%+	c #3F345F",
"&+	c #605C5E",
"*+	c #9B9958",
"=+	c #AFAE4E",
"-+	c #D9D682",
";+	c #A3974E",
">+	c #593040",
",+	c #5E0C24",
"'+	c #8E330F",
")+	c #CA9A2F",
"!+	c #EEE07C",
"~+	c #B6B626",
"{+	c #41415D",
"]+	c #31316A",
"^+	c #DDDD8F",
"/+	c #ECDC8F",
"(+	c #D2A74D",
"_+	c #AA5D1A",
":+	c #8D3410",
"<+	c #6D141A",
"[+	c #2F0850",
"}+	c #201466",
"|+	c #383465",
"1+	c #5E5B60",
"2+	c #9B9A5D",
"3+	c #BEBD65",
"4+	c #AFAD49",
"5+	c #493C58",
"6+	c #370848",
"7+	c #6F1418",
"8+	c #AA5C11",
"9+	c #DFC42C",
"0+	c #B5B522",
"a+	c #3E3E5D",
"b+	c #3C3C65",
"c+	c #ACAC4B",
"d+	c #D0A54D",
"e+	c #A35018",
"f+	c #7D180E",
"g+	c #5A0825",
"h+	c #2F1459",
"i+	c #3E345F",
"j+	c #5D5B61",
"k+	c #ACAD4B",
"l+	c #413C60",
"m+	c #2A0755",
"n+	c #650A1C",
"o+	c #9D4506",
"p+	c #DAB80A",
"q+	c #3E3E65",
"r+	c #AEAE46",
"s+	c #7D160D",
"t+	c #590625",
"u+	c #3C124B",
"v+	c #40335D",
"w+	c #5F5B5F",
"x+	c #DADA92",
"y+	c #999759",
"z+	c #3C305D",
"A+	c #34074A",
"B+	c #A95C12",
"C+	c #EEE090",
"D+	c #A45018",
"E+	c #3F164A",
"F+	c #5B4F5B",
"G+	c #9A985C",
"H+	c #DDDC9F",
"I+	c #A7A573",
"J+	c #5B4E5C",
"K+	c #3A124C",
"L+	c #51082D",
"M+	c #7F331E",
"N+	c #C49A35",
"O+	c #EDE07D",
"P+	c #AB5D19",
"Q+	c #7F180C",
"R+	c #590624",
"S+	c #5C505E",
"T+	c #DAD993",
"U+	c #A7A574",
"V+	c #3D164C",
"W+	c #4F062F",
"X+	c #61182A",
"Y+	c #855D3F",
"Z+	c #CCBE5B",
"`+	c #93340A",
" @	c #670817",
".@	c #411245",
"+@	c #5C4E5B",
"@@	c #DED98F",
"#@	c #AAA570",
"$@	c #5D505E",
"%@	c #5F162A",
"&@	c #785043",
"*@	c #B5A76A",
"=@	c #E3E09A",
"-@	c #7D140B",
";@	c #540729",
">@	c #4A304F",
",@	c #9B9757",
"'@	c #DCDA93",
")@	c #DABE4C",
"!@	c #B99840",
"~@	c #704F47",
"{@	c #431647",
"]@	c #4F0630",
"^@	c #5F162B",
"/@	c #B2A56A",
"(@	c #E0DC9D",
"_@	c #D6B226",
":@	c #9B410A",
"<@	c #6A0816",
"[@	c #380747",
"}@	c #463B59",
"|@	c #ADAB4D",
"1@	c #ECDA83",
"2@	c #D3A74B",
"3@	c #68121F",
"4@	c #51062E",
"5@	c #5B162F",
"6@	c #775044",
"7@	c #DEDC9D",
"8@	c #BEBE65",
"9@	c #9B420A",
"0@	c #6A0916",
"a@	c #360546",
"b@	c #3E305B",
"c@	c #9C9755",
"d@	c #DDD982",
"e@	c #D5AE28",
"f@	c #C9972C",
"g@	c #A34F15",
"h@	c #851807",
"i@	c #73070C",
"j@	c #560427",
"k@	c #421647",
"l@	c #6A5051",
"m@	c #B0A56C",
"n@	c #98985D",
"o@	c #D6D686",
"p@	c #DFC147",
"q@	c #AC5F19",
"r@	c #811A0C",
"s@	c #5C0A25",
"t@	c #461844",
"u@	c #714F43",
"v@	c #B89639",
"w@	c #D2AC25",
"x@	c #D6AE20",
"y@	c #D5AC24",
"z@	c #8A300F",
"A@	c #6E1218",
"B@	c #5F041E",
"C@	c #54072B",
"D@	c #40184B",
"E@	c #A9A573",
"F@	c #DDDC9E",
"G@	c #4D4D64",
"H@	c #98985C",
"I@	c #F1E18E",
"J@	c #D3AB47",
"K@	c #AB5F12",
"L@	c #944009",
"M@	c #813315",
"N@	c #7C2815",
"O@	c #93390B",
"P@	c #9D4107",
"Q@	c #9D3F07",
"R@	c #9C3E07",
"S@	c #9B3D07",
"T@	c #983B09",
"U@	c #61081F",
"V@	c #52072C",
"W@	c #4C3451",
"X@	c #675D5D",
"Y@	c #AAA775",
"Z@	c #51516A",
"`@	c #1B1B72",
" #	c #191971",
".#	c #E8DD63",
"+#	c #DBC124",
"@#	c #D2B107",
"##	c #C19405",
"$#	c #A35805",
"%#	c #983E04",
"&#	c #912F03",
"*#	c #841403",
"=#	c #7E0803",
"-#	c #7D0703",
";#	c #7C0703",
">#	c #750709",
",#	c #660618",
"'#	c #51052D",
")#	c #31034B",
"!#	c #270758",
"~#	c #605B5E",
"{#	c #9D9A5B",
"]#	c #BFBE66",
"^#	c #98985B",
"/#	c #B2B249",
"(#	c #B9B746",
"_#	c #B9B52C",
":#	c #B7B21F",
"<#	c #B1A51E",
"[#	c #A3891E",
"}#	c #9B791E",
"|#	c #8C5B1E",
"1#	c #6C1E1E",
"2#	c #5E031E",
"3#	c #5D001E",
"4#	c #5B001F",
"5#	c #4F012D",
"6#	c #33054B",
"7#	c #22085E",
"8#	c #1F1469",
"9#	c #5C5C61",
"0#	c #353564",
"a#	c #1A1A6F",
"b#	c #171772",
"c#	c #303069",
"d#	c #3B3B65",
"e#	c #3D3D65",
"f#	c #3E3E64",
"g#	c #3E3E63",
"h#	c #3E3E5E",
"i#	c #3E3D5D",
"j#	c #3D3C5D",
"k#	c #3B385D",
"l#	c #3A345D",
"m#	c #33285D",
"n#	c #250C5D",
"o#	c #1E015D",
"p#	c #1E005D",
"q#	c #1E005C",
"r#	c #20015B",
"s#	c #23055A",
"t#	c #260859",
"u#	c #2D145A",
"v#	c #3A305F",
"w#	c #434061",
"x#	c #5E5D61",
"y#	c #E0E090",
"z#	c #C4C466",
"A#	c #9C9C47",
"B#	c #50505B",
"C#	c #0E0E76",
"D#	c #0F0F76",
"E#	c #0E0D75",
"F#	c #0D0C75",
"G#	c #0B0875",
"H#	c #0B0775",
"I#	c #0C0874",
"J#	c #17146F",
"K#	c #333066",
"L#	c #605D5F",
"M#	c #99985A",
"N#	c #F2F293",
"O#	c #DFDF57",
"P#	c #A8A858",
"Q#	c #5F5F61",
"R#	c #E0E08F",
"                                                                                                ",
"                                                                                                ",
"                                                                                                ",
"                                                                                                ",
"                                                        . + @ # # # @ $ %                       ",
"                                                & + * = - ; > , ' ) ! ~ { ]                     ",
"                                            & ^ / ; ( _ : < [ } | 1 2 3 4 5                     ",
"                                        & ^ / 6 7 8 [ < : _ ( ; - 9 # 0 a b                     ",
"                                    c d / 6 7 } } e f ; - = * + .                               ",
"                                  g h i j k l m 6 n o + .                                       ",
"                              & ^ p q r s r q p ^ .                                             ",
"                          c d / 6 j t t j i h g                                                 ",
"                        u v i j w s r q p d c                                                   ",
"                      x y z A B C j i h g                                                       ",
"                  D E F G H B A q p d c                                                         ",
"                I J K L M t N i h g                                                             ",
"              O P Q R S T q p d c                                                               ",
"            U V W l X j i h g                                                                   ",
"          u Y Z T T q p d c                                                                     ",
"        u Y ` T T z y  .                                          ..+.@.#.#.#.@.+.$.            ",
"      u Y z %.%.z Y u                                       ..+.&.*.=.-.;.;.;.-.>.,.'.$.        ",
"    u Y z %.%.z Y u                                   $.+.&.*.=.).!.~.{.].].^./.(._.:.,.<.[.    ",
"  }.|.1.%.%.z Y u                                 $.'.2.=.).!.3.4.5.6.7.8.8.9.0.a.b.c.d.e.f.    ",
"  d i g.M q y u                               $.h.i.j.k.3.4.5.l.m.n.o.p.q.q.r.s.t.u.v.w.x.,.$.  ",
"y.z.j A.N B.g                             $.'.C.D.E.F.G.6.m.n.H.I.J.K.L.# # M.N.O.P.Q.R.S.T.U.  ",
"V.W.M M X.Y.                          Z.`.2. +.+++@+#+$+%+&+*+=++ .               -+;+>+,+'+)+!+",
"~+{+S ]+n ^+                        /+(+_+:+<+G.[+}+|+1+2+3+.                       4+5+6+7+8+9+",
"0+a+S b+c+                        /+d+e+f+g+6.h+i+j+/ ^ &                           k+l+m+n+o+p+",
"0+a+S q+r+                      /+d+e+s+t+u+v+w+2+3+&                             x+y+z+A+<+B+9+",
"0+a+S q+#                     C+(+D+s+t+E+F+G+3+&                               H+I+J+K+L+M+N+O+",
"0+a+S q+#                     `.P+Q+R+E+S+I+T+                                H+U+S+V+W+X+Y+Z+  ",
"0+a+S q+r+                  $.,.`+ @.@+@I+H+                                @@#@$@V+W+%@&@*@=@  ",
"0+a+S b+c+                  +.>.-@;@>@,@'@                              Z.)@!@~@{@]@^@&@/@(@    ",
"~+{+S ]+n ^+                _@:@<@[@}@|@                              1@2@P+'+3@4@5@6@/@7@      ",
"V.W.M M X.8@                _@9@0@a@b@c@d@                      ..+.e@f@g@h@i@j@k@l@m@7@        ",
"y.z.j A.N n@o@              p@q@r@s@t@u@v@w@#.#.#.#.#.#.#.#.x@y@*.=.).z@A@B@C@D@$@E@F@          ",
"  d i g.M G@H@^ &           I@J@K@L@M@N@O@P@Q@R@R@R@R@R@R@R@S@T@!.~.U@V@6.m.W@X@Y@H+            ",
"  }.|.Z@`@ #7 6 / ^ .         .#+#@###$#%#&#*#=#-#-#-#-#-#;#>#,#'#)#!#$+%+~#{#]#c               ",
"    u v i m } < 7 6 ^#c+r+# /#(#_#:#<#[#}#|#1#2#3#3#3#3#3#4#5#6#7#8#|+1+2+3+&                   ",
"      c d / 9#0#a#b#c#d#e#q+f#g#h#i#j#k#l#m#n#o#p#p#q#r#s#t#u#v#w#x#/ ^ &                       ",
"          y#z#A#B#8 A.C#C#D#D#C#S S S S E#F#G#H#H#H#I#J#K#w#L#M#o + &                           ",
"            N#O#P#Q#( f#q+q+q+q+q+q+q+q+q+q+q+q+q+f#( ; ^#o + .                                 ",
"                R#+ @ # # # # # # # # # # # # # # # @ + .                                       ",
"                                                                                                ",
"                                                                                                ",
"                                                                                                ",
"                                                                                                ",
"                                                                                                "};
