/* XPM */
static char * Copasi16_Alpha_xpm[] = {
"16 16 131 2",
"  	c None",
". 	c #CECEB0",
"+ 	c #C9C9B2",
"@ 	c #B8B89C",
"# 	c #A4A48A",
"$ 	c #ABAB8E",
"% 	c #D3D3B5",
"& 	c #C1C1AB",
"* 	c #93938B",
"= 	c #737384",
"- 	c #7A7A83",
"; 	c #8E8E82",
"> 	c #B1B195",
", 	c #D5D5B4",
"' 	c #CECEBF",
") 	c #A2A298",
"! 	c #707083",
"~ 	c #7C7C84",
"{ 	c #AEAE9E",
"] 	c #CCCCBC",
"^ 	c #CBCBB0",
"/ 	c #CFCFAF",
"( 	c #B5B5AB",
"_ 	c #7C7C8C",
": 	c #676782",
"< 	c #8B8B87",
"[ 	c #B7B7A3",
"} 	c #A2A29F",
"| 	c #6F7087",
"1 	c #7A7A89",
"2 	c #A7A7A1",
"3 	c #A2A29E",
"4 	c #737387",
"5 	c #969693",
"6 	c #C9C9BE",
"7 	c #D5C79E",
"8 	c #D7C19D",
"9 	c #C29F74",
"0 	c #B98F62",
"a 	c #C7A175",
"b 	c #E1CAA8",
"c 	c #AEAE9F",
"d 	c #6F6F84",
"e 	c #939390",
"f 	c #C3C3AA",
"g 	c #D1C197",
"h 	c #C4A87E",
"i 	c #A97C52",
"j 	c #915F4F",
"k 	c #7C525A",
"l 	c #754E5E",
"m 	c #875350",
"n 	c #A8704E",
"o 	c #DDC392",
"p 	c #79796E",
"q 	c #7C7C79",
"r 	c #B9B9A2",
"s 	c #CCA97F",
"t 	c #A47957",
"u 	c #7D595B",
"v 	c #826866",
"w 	c #9F8C76",
"x 	c #C2B698",
"y 	c #CAC1A4",
"z 	c #C1AE93",
"A 	c #8E634E",
"B 	c #B98A4E",
"C 	c #64645D",
"D 	c #92927E",
"E 	c #C9A278",
"F 	c #965F4E",
"G 	c #866861",
"H 	c #A49885",
"I 	c #CBC6B5",
"J 	c #C4BBAA",
"K 	c #7D5F5C",
"L 	c #A97942",
"M 	c #E4D1B0",
"N 	c #A36A4B",
"O 	c #8C6B5F",
"P 	c #C6BCA9",
"Q 	c #C9B192",
"R 	c #8C7270",
"S 	c #845E5E",
"T 	c #C2AC8A",
"U 	c #7A7A78",
"V 	c #B1B19C",
"W 	c #DDCA9F",
"X 	c #975F41",
"Y 	c #9A7C5B",
"Z 	c #D2BC90",
"` 	c #DFC396",
" .	c #DDC092",
"..	c #D2B587",
"+.	c #B2875E",
"@.	c #945A45",
"#.	c #845C5D",
"$.	c #B29D8A",
"%.	c #AFAF9F",
"&.	c #707081",
"*.	c #83837C",
"=.	c #ADAC98",
"-.	c #C0BA94",
";.	c #A48544",
">.	c #8E5E2E",
",.	c #884534",
"'.	c #823734",
").	c #853A36",
"!.	c #7F4447",
"~.	c #744F5B",
"{.	c #8B756B",
"].	c #B5A993",
"^.	c #BDBDA6",
"/.	c #676783",
"(.	c #605F84",
"_.	c #5B5673",
":.	c #55496C",
"<.	c #4E3B6B",
"[.	c #51396A",
"}.	c #6C5669",
"|.	c #928276",
"1.	c #B2AA93",
"2.	c #C4C1A4",
"3.	c #CBCBAA",
"4.	c #C6C6AF",
"5.	c #C4C4AE",
"6.	c #C4C2AE",
"7.	c #C2C1AE",
"8.	c #C5C2B2",
"9.	c #CFCEC0",
"0.	c #CECCB0",
"                                ",
"              . + @ # $         ",
"          % & * = - ; > ,       ",
"        ' ) ! ~ { ] ^ /         ",
"      ( _ : < [                 ",
"    } | 1 2                     ",
"  3 4 5 6         7 8 9 0 a b   ",
"c d e f       g h i j k l m n o ",
"p q r       s t u v w x y z A B ",
"C D       E F G H I       J K L ",
"C D     M N O P         Q R S T ",
"p U V   W X Y Z `  ...+.@.#.$.  ",
"%.&.*.=.-.;.>.,.'.).!.~.{.].    ",
"  ^.D /.(._.:.<.[.}.|.1.2.      ",
"    3.4.5.5.6.7.8.9.0.          ",
"                                "};
