/* XPM */
static char * CopasiDoc48_Alpha_xpm[] = {
"48 48 852 2",
"  	c None",
". 	c #99CBFE",
"+ 	c #B1D6FC",
"@ 	c #B0D4FA",
"# 	c #AED1F8",
"$ 	c #ADCFF5",
"% 	c #ABCDF3",
"& 	c #AACBF1",
"* 	c #A9C8EE",
"= 	c #A8C5EC",
"- 	c #A6C3EA",
"; 	c #A5C1E8",
"> 	c #A4BFE5",
", 	c #A2BDE3",
"' 	c #A1BAE0",
") 	c #9FB7DE",
"! 	c #9EB5DB",
"~ 	c #9DB3DA",
"{ 	c #9BB1D7",
"] 	c #9AAED5",
"^ 	c #99ACD2",
"/ 	c #98AAD0",
"( 	c #96A7CE",
"_ 	c #95A5CB",
": 	c #94A3C9",
"< 	c #92A0C6",
"[ 	c #919EC4",
"} 	c #7585B8",
"| 	c #7482B5",
"1 	c #97C7FA",
"2 	c #FFFFFF",
"3 	c #FEFEFE",
"4 	c #FDFDFD",
"5 	c #FCFCFC",
"6 	c #FBFBFB",
"7 	c #FAFAFA",
"8 	c #F9F9F9",
"9 	c #F8F8F8",
"0 	c #F7F7F7",
"a 	c #F6F6F6",
"b 	c #F5F5F5",
"c 	c #F4F4F4",
"d 	c #F3F3F3",
"e 	c #F2F2F3",
"f 	c #F0F1F2",
"g 	c #EFF0F1",
"h 	c #ECEEF0",
"i 	c #EBEDF0",
"j 	c #E9ECEF",
"k 	c #E8EBEE",
"l 	c #7483B6",
"m 	c #B6DFEC",
"n 	c #56628E",
"o 	c #95C4F7",
"p 	c #FEFFFF",
"q 	c #FDFEFF",
"r 	c #FCFEFE",
"s 	c #FBFDFE",
"t 	c #FAFCFF",
"u 	c #F8FBFF",
"v 	c #F7FBFF",
"w 	c #F7FAFF",
"x 	c #F6FAFF",
"y 	c #F5F9FF",
"z 	c #F3F8FF",
"A 	c #F2F8FF",
"B 	c #F1F8FE",
"C 	c #F0F7FE",
"D 	c #F0F6FE",
"E 	c #EEF5FE",
"F 	c #EDF5FE",
"G 	c #ECF4FE",
"H 	c #ECF3FE",
"I 	c #EAF3FE",
"J 	c #E9F2FE",
"K 	c #E8F2FE",
"L 	c #E7F1FD",
"M 	c #737FB2",
"N 	c #C2F5FF",
"O 	c #7BA8E0",
"P 	c #57618E",
"Q 	c #93C2F5",
"R 	c #FEFEFF",
"S 	c #FCFDFF",
"T 	c #FBFCFE",
"U 	c #F9FCFE",
"V 	c #F8FBFE",
"W 	c #F7FBFE",
"X 	c #F5F9FE",
"Y 	c #F4F8FE",
"Z 	c #F2F8FE",
"` 	c #F1F7FE",
" .	c #EFF6FE",
"..	c #EDF4FD",
"+.	c #ECF4FD",
"@.	c #EBF4FE",
"#.	c #E8F1FD",
"$.	c #E7F1FE",
"%.	c #E6F0FD",
"&.	c #717DB0",
"*.	c #B8EBFF",
"=.	c #74C0FF",
"-.	c #6AA1DE",
";.	c #565D8A",
">.	c #92C0F3",
",.	c #FBFCFF",
"'.	c #F4F9FF",
").	c #ECF5FD",
"!.	c #EAF3FD",
"~.	c #E9F2FD",
"{.	c #E6F0FE",
"].	c #E5F0FD",
"^.	c #707BAE",
"/.	c #ADE0FF",
"(.	c #67BBFF",
"_.	c #5BB7FF",
":.	c #5B9BDD",
"<.	c #545A87",
"[.	c #91BDF0",
"}.	c #FBFDFF",
"|.	c #F9FCFF",
"1.	c #F6FAFE",
"2.	c #F3F9FE",
"3.	c #F3F8FE",
"4.	c #F0F6FD",
"5.	c #EFF5FE",
"6.	c #EBF4FD",
"7.	c #E9F3FD",
"8.	c #DEDE8F",
"9.	c #C0C061",
"0.	c #B0B049",
"a.	c #AFAF46",
"b.	c #C1C164",
"c.	c #E1E19D",
"d.	c #4993DB",
"e.	c #525683",
"f.	c #90BAED",
"g.	c #FAFCFE",
"h.	c #F6F9FE",
"i.	c #F4F9FE",
"j.	c #F2F7FE",
"k.	c #EBF5FE",
"l.	c #EBF3FE",
"m.	c #EAF2FE",
"n.	c #DEDE90",
"o.	c #AFAF49",
"p.	c #ABAB4B",
"q.	c #98985A",
"r.	c #5D5D61",
"s.	c #424263",
"t.	c #3F3F63",
"u.	c #444462",
"v.	c #454561",
"w.	c #494961",
"x.	c #676762",
"y.	c #B1B175",
"z.	c #E4E4A1",
"A.	c #398CD9",
"B.	c #505380",
"C.	c #8FB7EA",
"D.	c #F7FAFE",
"E.	c #EEF6FE",
"F.	c #EEF5FD",
"G.	c #BDBD65",
"H.	c #9A9A5E",
"I.	c #414163",
"J.	c #3D3D64",
"K.	c #363667",
"L.	c #1B1B70",
"M.	c #111174",
"N.	c #1C1C70",
"O.	c #383866",
"P.	c #434361",
"Q.	c #474760",
"R.	c #57575D",
"S.	c #909061",
"T.	c #D3D381",
"U.	c #0070D6",
"V.	c #1966BF",
"W.	c #4E517E",
"X.	c #8EB4E7",
"Y.	c #EDF5FD",
"Z.	c #5C5C63",
"`.	c #363668",
" +	c #1A1A70",
".+	c #ACAC4A",
"++	c #B4B448",
"@+	c #C7C763",
"#+	c #E7E79F",
"$+	c #8186B1",
"%+	c #7070B0",
"&+	c #696A9B",
"*+	c #15213B",
"=+	c #8CB2E5",
"-+	c #F4F8FF",
";+	c #E0E09D",
">+	c #BEBE68",
",+	c #323269",
"'+	c #404064",
")+	c #BDBCFF",
"!+	c #B7B8FF",
"~+	c #B3B3FF",
"{+	c #AEAEFF",
"]+	c #A9A9FF",
"^+	c #A4A4FF",
"/+	c #9FA0FF",
"(+	c #7E83AE",
"_+	c #111E37",
":+	c #8BB0E3",
"<+	c #DADA93",
"[+	c #A7A775",
"}+	c #5D5D66",
"|+	c #343469",
"1+	c #181872",
"2+	c #1A1A71",
"3+	c #363669",
"4+	c #99995B",
"5+	c #AEAE4F",
"6+	c #DEECFC",
"7+	c #DDEBFD",
"8+	c #DCEBFC",
"9+	c #DBEAFD",
"0+	c #DAEAFD",
"a+	c #D9E9FC",
"b+	c #D7E8FD",
"c+	c #D7E8FC",
"d+	c #D6E8FC",
"e+	c #D5E7FC",
"f+	c #9D9CFF",
"g+	c #7D82AC",
"h+	c #0D1B34",
"i+	c #8AADE0",
"j+	c #EEF6FD",
"k+	c #989860",
"l+	c #4F4F68",
"m+	c #1A1A73",
"n+	c #0D0D76",
"o+	c #E0EDFD",
"p+	c #DFECFD",
"q+	c #DEECFD",
"r+	c #DDECFC",
"s+	c #DCEBFD",
"t+	c #D8E9FC",
"u+	c #D8E9FD",
"v+	c #D6E7FC",
"w+	c #D5E6FC",
"x+	c #D4E6FC",
"y+	c #9D9EFF",
"z+	c #7B80AB",
"A+	c #0D1A33",
"B+	c #88AADD",
"C+	c #F1F1F1",
"D+	c #151572",
"E+	c #E1EEFD",
"F+	c #DFEDFD",
"G+	c #DCEAFD",
"H+	c #DAEAFC",
"I+	c #D9E9FD",
"J+	c #D4E7FC",
"K+	c #D3E5FC",
"L+	c #D2E5FC",
"M+	c #797FAA",
"N+	c #86A7DA",
"O+	c #F0F0F0",
"P+	c #EDF6FD",
"Q+	c #EDF4FE",
"R+	c #DCDC9F",
"S+	c #A7A777",
"T+	c #161673",
"U+	c #DBEBFD",
"V+	c #D8E8FC",
"W+	c #D5E6FD",
"X+	c #D4E7FD",
"Y+	c #D3E6FC",
"Z+	c #D1E5FC",
"`+	c #D0E5FC",
" @	c #A0A0FF",
".@	c #787DA9",
"+@	c #85A5D8",
"@@	c #EFEFEF",
"#@	c #D9D994",
"$@	c #A5A575",
"%@	c #50506B",
"&@	c #181873",
"*@	c #0A0A77",
"=@	c #141473",
"-@	c #E0EEFD",
";@	c #DFEDFC",
">@	c #DBEAFC",
",@	c #D9EAFC",
"'@	c #D5E7FD",
")@	c #D0E4FC",
"!@	c #CFE4FB",
"~@	c #A3A2FF",
"{@	c #777BA8",
"]@	c #84A2D5",
"^@	c #EEEEEE",
"/@	c #DDDE9E",
"(@	c #BBBC69",
"_@	c #979761",
":@	c #4E4E68",
"<@	c #171773",
"[@	c #DBEBFC",
"}@	c #D1E4FC",
"|@	c #CEE3FC",
"1@	c #767AA6",
"2@	c #82A0D3",
"3@	c #ECECEC",
"4@	c #D9DAA2",
"5@	c #A4A678",
"6@	c #5D5E66",
"7@	c #34346A",
"8@	c #151573",
"9@	c #333369",
"0@	c #DDECFD",
"a@	c #D5E8FC",
"b@	c #D3E7FC",
"c@	c #D1E5FB",
"d@	c #D0E3FC",
"e@	c #CEE3FB",
"f@	c #CEE2FC",
"g@	c #CCE2FB",
"h@	c #A5A5FF",
"i@	c #7479A5",
"j@	c #819DD0",
"k@	c #D9DAA1",
"l@	c #A2A478",
"m@	c #51526B",
"n@	c #1A1B72",
"o@	c #0E0E75",
"p@	c #1A1A72",
"q@	c #DEEBFD",
"r@	c #DAE9FC",
"s@	c #D7E9FC",
"t@	c #D6E8FD",
"u@	c #D2E6FC",
"v@	c #CFE3FC",
"w@	c #CDE2FB",
"x@	c #CBE1FB",
"y@	c #A7A7FF",
"z@	c #7377A3",
"A@	c #DADC9F",
"B@	c #A3A677",
"C@	c #51526A",
"D@	c #161672",
"E@	c #D9EAFD",
"F@	c #D1E6FC",
"G@	c #CDE2FC",
"H@	c #CBE1FC",
"I@	c #CAE0FB",
"J@	c #A8A8FF",
"K@	c #7275A2",
"L@	c #A5A576",
"M@	c #50516A",
"N@	c #DDEBFC",
"O@	c #D6E7FD",
"P@	c #D0E4FB",
"Q@	c #CFE3FB",
"R@	c #CAE0FC",
"S@	c #C8E0FB",
"T@	c #7074A1",
"U@	c #51516B",
"V@	c #D9D993",
"W@	c #E2EEFD",
"X@	c #DAEBFD",
"Y@	c #D7E9FD",
"Z@	c #D7E7FC",
"`@	c #EEDE81",
" #	c #DEC044",
".#	c #D6B025",
"+#	c #D6AF20",
"@#	c #ECDE82",
"##	c #191972",
"$#	c #DEEDFD",
"%#	c #D6AE28",
"&#	c #CA982C",
"*#	c #A95D17",
"=#	c #9B410B",
"-#	c #993E0A",
";#	c #AB5D15",
">#	c #CB9A2F",
",#	c #DDBD48",
"'#	c #D0E5FB",
")#	c #99400C",
"!#	c #8B300F",
"~#	c #6F1419",
"{#	c #63081D",
"]#	c #62071E",
"^#	c #62071D",
"/#	c #690817",
"(#	c #7E140B",
"_#	c #94340A",
":#	c #AA5C15",
"<#	c #DEBF49",
"[#	c #F0E48F",
"}#	c #E0E09C",
"|#	c #A7A776",
"1#	c #50506A",
"2#	c #E0EDFC",
"3#	c #DAE9FD",
"4#	c #CA9A30",
"5#	c #701419",
"6#	c #630A1E",
"7#	c #560A2B",
"8#	c #370849",
"9#	c #290757",
"0#	c #270759",
"a#	c #280757",
"b#	c #360749",
"c#	c #570829",
"d#	c #6B0C16",
"e#	c #7F1609",
"f#	c #963508",
"g#	c #B2691A",
"h#	c #DEC149",
"i#	c #191973",
"j#	c #DCEAFC",
"k#	c #DBBD48",
"l#	c #C89A32",
"m#	c #A65B19",
"n#	c #8D3411",
"o#	c #380A48",
"p#	c #351452",
"q#	c #493051",
"r#	c #473B5A",
"s#	c #423D60",
"t#	c #423E61",
"u#	c #423E60",
"v#	c #483D59",
"w#	c #563B4A",
"x#	c #5F2F3A",
"y#	c #69141E",
"z#	c #7A0D08",
"A#	c #963608",
"B#	c #E0E089",
"C#	c #9A9A5C",
"D#	c #0D0D75",
"E#	c #999960",
"F#	c #E1E1E1",
"G#	c #C99A31",
"H#	c #A05B1D",
"I#	c #7E341E",
"J#	c #671421",
"K#	c #53082D",
"L#	c #4A405A",
"M#	c #625D5D",
"N#	c #9B9858",
"O#	c #ADAC49",
"P#	c #AFAE45",
"Q#	c #AFAF45",
"R#	c #B0AE44",
"S#	c #B0AC47",
"T#	c #A4964D",
"U#	c #764D3B",
"V#	c #68141F",
"W#	c #7D150B",
"X#	c #A95B16",
"Y#	c #DDBE47",
"Z#	c #C4C447",
"`#	c #5C5C5D",
" $	c #5B5B63",
".$	c #BEBE66",
"+$	c #E0E0E0",
"@$	c #EEE08F",
"#$	c #DDBE49",
"$$	c #A75B18",
"%$	c #8B3412",
"&$	c #5F1428",
"*$	c #34084A",
"=$	c #280858",
"-$	c #2D145B",
";$	c #3F345F",
">$	c #605C5E",
",$	c #9B9958",
"'$	c #AFAE4E",
")$	c #C3DCFB",
"!$	c #C2DCFA",
"~$	c #C1DBFB",
"{$	c #BFDBFB",
"]$	c #BEDAFB",
"^$	c #B4B4FF",
"/$	c #676998",
"($	c #D9D682",
"_$	c #A3974E",
":$	c #593040",
"<$	c #5E0C24",
"[$	c #8E330F",
"}$	c #CA9A2F",
"|$	c #EEE07C",
"1$	c #B6B626",
"2$	c #41415D",
"3$	c #31316A",
"4$	c #DDDD8F",
"5$	c #DFDFDF",
"6$	c #ECDC8F",
"7$	c #D2A74D",
"8$	c #AA5D1A",
"9$	c #8D3410",
"0$	c #6D141A",
"a$	c #2F0850",
"b$	c #201466",
"c$	c #383465",
"d$	c #5E5B60",
"e$	c #9B9A5D",
"f$	c #BEBD65",
"g$	c #C4DEFB",
"h$	c #C3DDFB",
"i$	c #C2DCFB",
"j$	c #C0DAFB",
"k$	c #BDDAFA",
"l$	c #B5B5FF",
"m$	c #656897",
"n$	c #AFAD49",
"o$	c #493C58",
"p$	c #370848",
"q$	c #6F1418",
"r$	c #AA5C11",
"s$	c #DFC42C",
"t$	c #B5B522",
"u$	c #3E3E5D",
"v$	c #3C3C65",
"w$	c #ACAC4B",
"x$	c #DDDDDD",
"y$	c #D0A54D",
"z$	c #A35018",
"A$	c #7D180E",
"B$	c #5A0825",
"C$	c #2F1459",
"D$	c #3E345F",
"E$	c #5D5B61",
"F$	c #C5DEFB",
"G$	c #C4DDFB",
"H$	c #C1DCFB",
"I$	c #C0DBFA",
"J$	c #BED9FA",
"K$	c #BCD9FA",
"L$	c #BBD8FA",
"M$	c #B7B6FF",
"N$	c #646695",
"O$	c #ACAD4B",
"P$	c #413C60",
"Q$	c #2A0755",
"R$	c #650A1C",
"S$	c #9D4506",
"T$	c #DAB80A",
"U$	c #3E3E65",
"V$	c #AEAE46",
"W$	c #DCDCDC",
"X$	c #7D160D",
"Y$	c #590625",
"Z$	c #3C124B",
"`$	c #40335D",
" %	c #5F5B5F",
".%	c #BCD9FB",
"+%	c #BBD8FB",
"@%	c #BBD7FA",
"#%	c #B8B8FF",
"$%	c #626494",
"%%	c #DADA92",
"&%	c #999759",
"*%	c #3C305D",
"=%	c #34074A",
"-%	c #A95C12",
";%	c #DBDBDB",
">%	c #D9E8FD",
",%	c #EEE090",
"'%	c #A45018",
")%	c #3F164A",
"!%	c #5B4F5B",
"~%	c #9A985C",
"{%	c #C7DFFB",
"]%	c #C2DBFA",
"^%	c #BFDBFA",
"/%	c #BDD9FB",
"(%	c #BAD8FA",
"_%	c #B9D7FA",
":%	c #B9BAFF",
"<%	c #DDDC9F",
"[%	c #A7A573",
"}%	c #5B4E5C",
"|%	c #3A124C",
"1%	c #51082D",
"2%	c #7F331E",
"3%	c #C49A35",
"4%	c #EDE07D",
"5%	c #6F78AB",
"6%	c #DADADA",
"7%	c #AB5D19",
"8%	c #7F180C",
"9%	c #590624",
"0%	c #5C505E",
"a%	c #DAD993",
"b%	c #C6DFFC",
"c%	c #C6DEFC",
"d%	c #BFDAFB",
"e%	c #BBD9FA",
"f%	c #B8D6FA",
"g%	c #A7A574",
"h%	c #3D164C",
"i%	c #4F062F",
"j%	c #61182A",
"k%	c #855D3F",
"l%	c #CCBE5B",
"m%	c #6E75A8",
"n%	c #D8D8D8",
"o%	c #93340A",
"p%	c #670817",
"q%	c #411245",
"r%	c #5C4E5B",
"s%	c #C6DEFB",
"t%	c #C0DBFB",
"u%	c #BEDAFA",
"v%	c #BCD8FB",
"w%	c #BAD7FA",
"x%	c #B9D8FB",
"y%	c #B8D7FA",
"z%	c #B7D5FA",
"A%	c #DED98F",
"B%	c #AAA570",
"C%	c #5D505E",
"D%	c #5F162A",
"E%	c #785043",
"F%	c #B5A76A",
"G%	c #E3E09A",
"H%	c #6C72A5",
"I%	c #D7D7D7",
"J%	c #7D140B",
"K%	c #540729",
"L%	c #4A304F",
"M%	c #9B9757",
"N%	c #DCDA93",
"O%	c #C7DEFB",
"P%	c #C1DCFA",
"Q%	c #BDDAFB",
"R%	c #DABE4C",
"S%	c #B99840",
"T%	c #704F47",
"U%	c #431647",
"V%	c #4F0630",
"W%	c #5F162B",
"X%	c #B2A56A",
"Y%	c #E0DC9D",
"Z%	c #6B70A3",
"`%	c #D6D6D6",
" &	c #CEE4FC",
".&	c #CDE3FB",
"+&	c #D6B226",
"@&	c #9B410A",
"#&	c #6A0816",
"$&	c #380747",
"%&	c #463B59",
"&&	c #ADAB4D",
"*&	c #BFDAFA",
"=&	c #B9D8FA",
"-&	c #B9D7FB",
";&	c #B7D6FA",
">&	c #ECDA83",
",&	c #D3A74B",
"'&	c #68121F",
")&	c #51062E",
"!&	c #5B162F",
"~&	c #775044",
"{&	c #DEDC9D",
"]&	c #BEBE65",
"^&	c #6A6EA1",
"/&	c #D5D5D5",
"(&	c #CCE2FC",
"_&	c #9B420A",
":&	c #6A0916",
"<&	c #360546",
"[&	c #3E305B",
"}&	c #9C9755",
"|&	c #DDD982",
"1&	c #D5AE28",
"2&	c #C9972C",
"3&	c #A34F15",
"4&	c #851807",
"5&	c #73070C",
"6&	c #560427",
"7&	c #421647",
"8&	c #6A5051",
"9&	c #B0A56C",
"0&	c #98985D",
"a&	c #D6D686",
"b&	c #D3D3D3",
"c&	c #CCE1FC",
"d&	c #DFC147",
"e&	c #AC5F19",
"f&	c #811A0C",
"g&	c #5C0A25",
"h&	c #461844",
"i&	c #714F43",
"j&	c #B89639",
"k&	c #D2AC25",
"l&	c #D6AE20",
"m&	c #D5AC24",
"n&	c #8A300F",
"o&	c #6E1218",
"p&	c #5F041E",
"q&	c #54072B",
"r&	c #40184B",
"s&	c #A9A573",
"t&	c #DDDC9E",
"u&	c #4D4D64",
"v&	c #98985C",
"w&	c #C9E1FB",
"x&	c #F1E18E",
"y&	c #D3AB47",
"z&	c #AB5F12",
"A&	c #944009",
"B&	c #813315",
"C&	c #7C2815",
"D&	c #93390B",
"E&	c #9D4107",
"F&	c #9D3F07",
"G&	c #9C3E07",
"H&	c #9B3D07",
"I&	c #983B09",
"J&	c #61081F",
"K&	c #52072C",
"L&	c #4C3451",
"M&	c #675D5D",
"N&	c #AAA775",
"O&	c #51516A",
"P&	c #1B1B72",
"Q&	c #191971",
"R&	c #C8DFFC",
"S&	c #C7DFFC",
"T&	c #E8DD63",
"U&	c #DBC124",
"V&	c #D2B107",
"W&	c #C19405",
"X&	c #A35805",
"Y&	c #983E04",
"Z&	c #912F03",
"`&	c #841403",
" *	c #7E0803",
".*	c #7D0703",
"+*	c #7C0703",
"@*	c #750709",
"#*	c #660618",
"$*	c #51052D",
"%*	c #31034B",
"&*	c #270758",
"**	c #605B5E",
"=*	c #9D9A5B",
"-*	c #BFBE66",
";*	c #98985B",
">*	c #B2B249",
",*	c #B9B746",
"'*	c #B9B52C",
")*	c #B7B21F",
"!*	c #B1A51E",
"~*	c #A3891E",
"{*	c #9B791E",
"]*	c #8C5B1E",
"^*	c #6C1E1E",
"/*	c #5E031E",
"(*	c #5D001E",
"_*	c #5B001F",
":*	c #4F012D",
"<*	c #33054B",
"[*	c #22085E",
"}*	c #1F1469",
"|*	c #C7C6FF",
"1*	c #545587",
"2*	c #5C5C61",
"3*	c #353564",
"4*	c #1A1A6F",
"5*	c #171772",
"6*	c #303069",
"7*	c #3B3B65",
"8*	c #3D3D65",
"9*	c #3E3E64",
"0*	c #3E3E63",
"a*	c #3E3E5E",
"b*	c #3E3D5D",
"c*	c #3D3C5D",
"d*	c #3B385D",
"e*	c #3A345D",
"f*	c #33285D",
"g*	c #250C5D",
"h*	c #1E015D",
"i*	c #1E005D",
"j*	c #1E005C",
"k*	c #20015B",
"l*	c #23055A",
"m*	c #260859",
"n*	c #2D145A",
"o*	c #3A305F",
"p*	c #434061",
"q*	c #5E5D61",
"r*	c #ACCFFA",
"s*	c #ABCFF9",
"t*	c #C8C8FF",
"u*	c #535485",
"v*	c #E0E090",
"w*	c #C4C466",
"x*	c #9C9C47",
"y*	c #50505B",
"z*	c #0E0E76",
"A*	c #0F0F76",
"B*	c #0E0D75",
"C*	c #0D0C75",
"D*	c #0B0875",
"E*	c #0B0775",
"F*	c #0C0874",
"G*	c #17146F",
"H*	c #333066",
"I*	c #605D5F",
"J*	c #99985A",
"K*	c #ADD0FA",
"L*	c #ACD0F9",
"M*	c #AACEFA",
"N*	c #C9C9FF",
"O*	c #525384",
"P*	c #F2F293",
"Q*	c #DFDF57",
"R*	c #A8A858",
"S*	c #5F5F61",
"T*	c #AFD1F9",
"U*	c #AED1FA",
"V*	c #ACD0FA",
"W*	c #ACCFF9",
"X*	c #A9CEFA",
"Y*	c #A8CDF9",
"Z*	c #CBCAFF",
"`*	c #505082",
" =	c #616194",
".=	c #CCCCF2",
"+=	c #E0E08F",
"@=	c #CCCCFF",
"#=	c #99CCFF",
"$=	c #4F4F81",
"%=	c #5F5F92",
"&=	c #5D5D90",
"*=	c #5C5C8F",
"==	c #5B5B8E",
"-=	c #5A5A8D",
";=	c #59598C",
">=	c #58588B",
",=	c #565689",
"'=	c #545487",
")=	c #535386",
"!=	c #515184",
"~=	c #505083",
"{=	c #4F4F82",
"]=	c #4D4D80",
"^=	c #4C4C7F",
"/=	c #0D1B33",
"(=	c #0D1B32",
"_=	c #0F1C34",
"            . + @ # $ % & * = - ; > , ' ) ! ~ { ] ^ / ( _ : < [ } |                             ",
"            1 2 2 3 4 5 5 6 7 7 8 9 0 0 a b b c d e f g h i j k l m n                           ",
"            o 3 2 p q r s t u v w x y z A B C D E F G H I J K L M N O P                         ",
"            Q 4 R r S T U V W x X Y Y Z ` D  .E ..+.@.I J #.$.%.&.*.=.-.;.                      ",
"            >.6 S S ,.U V W x X '.Z Z C  . .F ).G !.J ~.L {.].].^./.(._.:.<.                    ",
"            [.7 }.t |.u 1.1.X 2.3.` ` 4.5.E G 6.!.7.#.L 8.9.0.a.a.a.0.b.c.d.e.                  ",
"            f.8 g.u v 1.h.i.3.j.` D  .E F k.l.m.n.9.o.p.q.r.s.t.u.v.w.x.y.z.A.B.                ",
"            C.9 V D.h.y Y Z j.` D E.F.F l.l.n.G.H.r.I.J.K.L.M.N.O.P.Q.R.S.T.U.V.W.              ",
"            X.a D.1.i.Y 3.` `  . .Y.F l.n.G.H.Z.`. +M.L.K.J.I.r.q..+a.++@+#+$+%+&+*+            ",
"            =+b h.-+3.j.B C 5.E.Y.G ;+>+H.Z.`.N.N.,+'+r.q.p.o.9.8.)+!+~+{+]+^+/+(+_+            ",
"            :+c -+3.Z ` C  .E G @.<+[+}+|+1+2+3+Z.4+5+9.8.6+7+8+9+0+a+b+c+d+e+f+g+h+            ",
"            i+d 3.j.C D j+F ..n.G.k+l+m+n+m+l+k+G.8.o+p+q+r+s+0+a+t+u+v+e+w+x+y+z+A+            ",
"            B+C+` C 5.j+F ;+>+H.Z.|+D+D+|+}+[+<+E+o+F+7+s+G+H+I+t+c+d+J+x+K+L+/+M+A+            ",
"            N+O+D  .P+Q+R+S+}+|+T+n+m+l+k+>+;+o+F+q+7+8+U+0+t+V+c+v+W+X+Y+Z+`+ @.@A+            ",
"            +@@@E F G #@$@%@&@*@=@|+}+[+<+-@o+;@6+7+G+>@,@u+b+c+'@e+Y+L+Z+)@!@~@{@A+            ",
"            ]@^@F /@(@_@:@<@*@&@l+k+>+;+E+F+p+q+s+[@H+I+u+b+d+e+J+Y+L+}@)@!@|@^+1@A+            ",
"            2@3@4@5@6@7@8@D+9@}+[+<+E+o+F+q+0@8+9+0+a+V+b+a@J+b@K+c@`+d@e@f@g@h@i@A+            ",
"            j@k@l@m@n@o@p@l+k+>+;+E+o+p+q@s+U+0+r@t+s@t@e+x+Y+u@Z+}@v@|@w@g@x@y@z@A+            ",
"            A@B@C@2+D@|+}+[+<+E+o+o+p+q+s+>@9+E@V+b+v+e+x+Y+F@}@)@|@e@G@H@x@I@J@K@A+            ",
"          R+L@M@p@p@l+k+>+;+E+o+o+q+N@8+9+r@I+V+c+O@e+Y+L+L+c@P@Q@G@w@H@R@I@S@]+T@A+            ",
"        R+L@U@p@p@%@$@V@W@E+o+p+N@N@>@X@0+t+Y@Z@'@e+x+L+}@)@v@|@G@`@ #.#+#+#+#.# #@#            ",
"      R+L@%@####%@L@R+E+-@F+$#7+N@9+0+,@u+s@d+v+x+Y+L+Z+)@!@`@ #%#&#*#=#-#-#-#=#;#>#,#@#        ",
"    R+L@%@####%@L@R+E+o+o+6+7+G+U+H+I+u+d+a@e+x+u@L+'#@# #%#&#*#)#!#~#{#]#]#^#/#(#_#:#>#<#[#    ",
"  }#|#1#####%@L@R+E+2#p+q+7+s+U+3#I+V+Z@e+J+x+u@Z+@#,#4#*#)#!#5#6#7#8#9#0#0#a#b#c#d#e#f#g#h#    ",
"  >+}+i#8@l+$@R+-@o+$#q+s+j#H+I+t+b+d+e+J+Y+u@@#k#l#m#n#5#6#7#o#p#q#r#s#t#t#u#v#w#x#y#z#A#>#@#  ",
"B#C#|+D#9@E#<+F#;@p+r+s+9+H+a+t+b+a@e+x+Y+@#,#G#H#I#J#K#8#p#q#L#M#N#O#P#a.a.Q#R#S#T#U#V#W#X#Y#  ",
"Z#`#8@8@ $.$} +$q+N@s+H+H+a+t+O@e+e+Y+@$#$4#$$%$&$*$=$-$;$>$,$'$9.8.)$!$~${$]$^$/$($_$:$<$[$}$|$",
"1$2$o@3$4+4$l 5$8+9+9+I+t+b+d+e+x+K+6$7$8$9$0$K#a$b$c$d$e$f$8.g$h$i$i$~$j$]$k$l$m$A+n$o$p$q$r$s$",
"t$u$o@v$w$  M x$>@H+E@t+c+d+'@x+u@6$y$z$A$B$8#C$D$E$H.G.n.F$G$h$i$H$I${$J$K$L$M$N$A+O$P$Q$R$S$T$",
"t$u$o@U$V$  &.W$a+I+s@d+a@w+x+Y+6$y$z$X$Y$Z$`$ %e$f$n.F$F$G$)$!$~${$]$J$.%+%@%#%$%%%&%*%=%0$-%s$",
"t$u$o@U$a.  ^.;%>%c+c+e+J+x+L+,%7$'%X$Y$)%!%~%f$n.{%F$G$G$i$]%I$^%]$/%K$L$(%_%:%<%[%}%|%1%2%3%4%",
"t$u$o@U$a.  5%6%c+v+e+x+Y+L+Z+#$7%8%9%)%0%[%a%{%b%c%G$h$)$~$I$d%]$/%e%(%(%_%f%<%g%0%h%i%j%k%l%  ",
"t$u$o@U$V$  m%n%v+w+Y+L+Z+)@@#>#o%p%q%r%[%<%{%s%F$G$)$i$~$t%u%u%.%v%w%x%y%z%A%B%C%h%i%D%E%F%G%  ",
"t$u$o@v$w$  H%I%x+Y+u@Z+)@v@ #;#J%K%L%M%N%O%F$g$h$)$P%t%t%]$Q%v%L$(%_%f%@$R%S%T%U%V%W%E%X%Y%    ",
"1$2$o@3$4+4$Z%`%Y+L+)@!@ &.&+&@&#&$&%&&&s%F$g$G$i$H$t%*&u%/%K$(%=&-&;&>&,&7%[$'&)&!&~&X%{&      ",
"Z#`#8@8@ $]&^&/&L+}@d@|@G@(&+&_&:&<&[&}&|&G$h$H$H${$]$Q%/%L$L$w%`@ #1&2&3&4&5&6&7&8&9&{&        ",
"B#C#|+D#9@0&a&b&`+!@|@G@c&x@d&e&f&g&h&i&j&k&+#+#+#+#+#+#+#+#l&m&&#*#)#n&o&p&q&r&C%s&t&          ",
"  >+}+i#8@u&v&G.n.|@w@g@H@w&x&y&z&A&B&C&D&E&F&G&G&G&G&G&G&G&H&I&!#~#J&K&8#p#L&M&N&<%            ",
"  }#|#O&P&Q&`.Z.H.G.8.R@w&R&S&T&U&V&W&X&Y&Z&`& *.*.*.*.*.*+*@*#*$*%*&*-$;$**=*-*;+A+            ",
"    R+S+}+3+N.L.`.Z.;*w$V$a.>*,*'*)*!*~*{*]*^*/*(*(*(*(*(*_*:*<*[*}*c$d$e$f$n.|*1*A+            ",
"      ;+>+H.2*3*4*5*6*7*8*U$9*0*a*b*c*d*e*f*g*h*i*i*j*k*l*m*n*o*p*q*H.G.n.r*s*t*u*A+            ",
"          v*w*x*y* +D#z*z*A*A*z*o@o@o@o@B*C*D*E*E*E*F*G*H*p*I*J*5+9.n.K*L*s*M*N*O*A+            ",
"            P*Q*R*S*I.9*U$U$U$U$U$U$U$U$U$U$U$U$U$9*I.r.;*5+9.8.T*U*V*W*s*X*Y*Z*`*A+            ",
"             =.=+=9.0.a.a.a.a.a.a.a.a.a.a.a.a.a.a.a.0.9.8.@=@=@=@=@=@=@=@=@=@=#=$=A+            ",
"            %=&=*===-=;=>=,='='=)=!=~=~=~=~=~=~=~=~=~=~=~=~=~=~=~=~=~=~=~={=]=^=]=/=            ",
"                (=A+A+A+A+A+A+A+A+A+A+A+A+A+A+A+A+A+A+A+_=A+A+A+A+A+A+A+A+A+A+A+(=              ",
"                                                                                                ",
"                                                                                                "};
