/* XPM */
static const char * editSlider[] = {
"9 9 23 1",
" 	c None",
".	c #000000",
"+	c #0F0000",
"@	c #8D0606",
"#	c #D9C72C",
"$	c #C9B828",
"%	c #0E0000",
"&	c #A80808",
"*	c #C2B127",
"=	c #8D811C",
"-	c #CFBE2A",
";	c #5C5412",
">	c #716816",
",	c #B4A524",
"'	c #A72F0E",
")	c #B8881E",
"!	c #716716",
"~	c #A7230B",
"{	c #A2380F",
"]	c #CC6819",
"^	c #D9C42B",
"/	c #A0330E",
"(	c #B5320F",
"     .+@ ",
"    .#$%&",
"   .#*=$.",
"  .#-;*#.",
" .#->,#. ",
".#*;,#.  ",
"')!*#.   ",
"~{]^.    ",
"./(+     "};
