/* XPM */
static const char * checkModel_xpm[] = {
"16 16 6 1",
" 	c None",
".	c #8C8EBF",
"+	c #5860AF",
"@	c #7377B7",
"#	c #AFAFCC",
"$	c #6A6EB3",
"                ",
"                ",
"                ",
"              . ",
"             .++",
"            @++#",
"           $+$  ",
"          $+@   ",
"         $+.    ",
"        @+.     ",
"+.     .+@      ",
"++@   .++       ",
" @++ .++        ",
"  .+$++         ",
"   .++          ",
"    +           "};
