/* XPM */
static char * Copasi16_Alpha_xpm[] = {
"16 16 99 2",
"  	c None",
". 	c #DDDDBB",
"+ 	c #F5F5D0",
"@ 	c #D8D8AA",
"# 	c #AAAA8E",
"$ 	c #AEAE90",
"% 	c #F1F1CA",
"& 	c #91917C",
"* 	c #2F2F6B",
"= 	c #464665",
"- 	c #71716C",
"; 	c #AAAA8D",
"> 	c #E6E6C4",
", 	c #FAFAE6",
"' 	c #BCBC93",
") 	c #2E2E70",
"! 	c #5A5A73",
"~ 	c #FAFAE5",
"{ 	c #F0F0CA",
"] 	c #5C5C76",
"^ 	c #262670",
"/ 	c #A4A487",
"( 	c #D6D8B7",
"_ 	c #2E2F70",
": 	c #D8D8B6",
"< 	c #A0A088",
"[ 	c #FAF5CC",
"} 	c #E0C17C",
"| 	c #D4AA64",
"1 	c #DFC17C",
"2 	c #FCFAE3",
"3 	c #DDDDBC",
"4 	c #2D2D71",
"5 	c #A0A08C",
"6 	c #ECD99A",
"7 	c #B2712B",
"8 	c #742623",
"9 	c #48123F",
"0 	c #390E4D",
"a 	c #581230",
"b 	c #9E4612",
"c 	c #F8F1C4",
"d 	c #707062",
"e 	c #6D6D6D",
"f 	c #EEDDAC",
"g 	c #AE6D2C",
"h 	c #461242",
"i 	c #554258",
"j 	c #ABA887",
"k 	c #ECECB8",
"l 	c #F0F0C0",
"m 	c #ECECB7",
"n 	c #6B3D3B",
"o 	c #C49044",
"p 	c #555554",
"q 	c #EBD8A4",
"r 	c #7F261B",
"s 	c #564156",
"t 	c #BCBC92",
"u 	c #F6F6DF",
"v 	c #503C54",
"w 	c #B07023",
"x 	c #984214",
"y 	c #6D585E",
"z 	c #F6F1C6",
"A 	c #705C61",
"B 	c #642636",
"C 	c #E2DDB8",
"D 	c #F8F1BC",
"E 	c #6B121D",
"F 	c #92886E",
"G 	c #F8F0B8",
"H 	c #F6ECB0",
"I 	c #D2A860",
"J 	c #8A2A12",
"K 	c #5A2640",
"L 	c #DCD8B2",
"M 	c #32326E",
"N 	c #6E6E6C",
"O 	c #F0F0B8",
"P 	c #D0B228",
"Q 	c #A6660B",
"R 	c #8A2508",
"S 	c #7E0E08",
"T 	c #640D21",
"U 	c #390E4E",
"V 	c #766D64",
"W 	c #DEDDBC",
"X 	c #8C8C62",
"Y 	c #1C1C71",
"Z 	c #1D1D71",
"` 	c #1D1D70",
" .	c #1C1C70",
"..	c #181370",
"+.	c #160E70",
"@.	c #443C62",
"#.	c #908D78",
"$.	c #D9D9AC",
"%.	c #F1F1C2",
"                                ",
"              . + @ # $         ",
"          . % & * = - ; >       ",
"        , ' ) ! @ ~ . .         ",
"      { ] ^ / .                 ",
"    ( _ ! .                     ",
"  : ) < ,         . [ } | 1 2   ",
"3 4 5 .       . 6 7 8 9 0 a b c ",
"d e .       f g h i j k l m n o ",
"p #       q r s t ~       u v w ",
"p #     2 x y u         z A B C ",
"d e .   D E F G G G H I J K L   ",
"3 M N @ O P Q R S S T U V W     ",
"  % X Y Z `  ...+.@.#.$..       ",
"    . %.l l l l l ~ .           ",
"                                "};
