/* XPM */
static char * Copasi48_Alpha_xpm[] = {
"48 48 839 2",
"  	c None",
". 	c #F6F6FA",
"+ 	c #F8F8FA",
"@ 	c #F9F9FB",
"# 	c #FBFBFC",
"$ 	c #FCFCFC",
"% 	c #FAFAFC",
"& 	c #FDFDFD",
"* 	c #F8F8FB",
"= 	c #F7F7FA",
"- 	c #F1F1F8",
"; 	c #D2D2ED",
"> 	c #B4B3E1",
", 	c #9997D6",
"' 	c #8280CE",
") 	c #7370C8",
"! 	c #7774C9",
"~ 	c #AFAEDE",
"{ 	c #EEEEF7",
"] 	c #F7F7FB",
"^ 	c #E9E8F5",
"/ 	c #C8C7E8",
"( 	c #A1A0D8",
"_ 	c #6562C4",
": 	c #332DB5",
"< 	c #1F17AE",
"[ 	c #150DAB",
"} 	c #1008A9",
"| 	c #0E05A9",
"1 	c #0F07A9",
"2 	c #2821AF",
"3 	c #918FD3",
"4 	c #E6E6F4",
"5 	c #BBBAE4",
"6 	c #8381D0",
"7 	c #4C47BC",
"8 	c #2A24B1",
"9 	c #1A12A9",
"0 	c #1007A6",
"a 	c #0B03A8",
"b 	c #0A02AB",
"c 	c #0B02AB",
"d 	c #0C04AB",
"e 	c #0E06AB",
"f 	c #140CAC",
"g 	c #251EAF",
"h 	c #8886CF",
"i 	c #ECECF6",
"j 	c #A7A5DB",
"k 	c #504BBE",
"l 	c #130BAA",
"m 	c #0C03AA",
"n 	c #0C04AA",
"o 	c #261FAD",
"p 	c #3F3AB6",
"q 	c #4B47BC",
"r 	c #524EBE",
"s 	c #6461C3",
"t 	c #7371C9",
"u 	c #9492D5",
"v 	c #B0AFDF",
"w 	c #F4F4F9",
"x 	c #C5C5E6",
"y 	c #6D6AC4",
"z 	c #2821AC",
"A 	c #0D05A8",
"B 	c #0A01AA",
"C 	c #1911AE",
"D 	c #403AB9",
"E 	c #8381CF",
"F 	c #BBBBE3",
"G 	c #E0E0F1",
"H 	c #EBEBF6",
"I 	c #F5F5FA",
"J 	c #FCFCFD",
"K 	c #E1E0F1",
"L 	c #8987CE",
"M 	c #3A35B0",
"N 	c #150DA6",
"O 	c #0A02A5",
"P 	c #0C04A9",
"Q 	c #1C14B0",
"R 	c #4B46BD",
"S 	c #9493D5",
"T 	c #D9D8EF",
"U 	c #FAFAFB",
"V 	c #CCCBEA",
"W 	c #5954C0",
"X 	c #1B13AB",
"Y 	c #0C03A5",
"Z 	c #0A02A6",
"` 	c #150DAC",
" .	c #413BB9",
"..	c #9896D6",
"+.	c #E4E4F3",
"@.	c #ADACDF",
"#.	c #443EBA",
"$.	c #120AAB",
"%.	c #0A01A9",
"&.	c #0D05AB",
"*.	c #2720B1",
"=.	c #706DC8",
"-.	c #D3D3EC",
";.	c #DCDCF0",
">.	c #8A88D2",
",.	c #2D26B4",
"'.	c #0A02AA",
").	c #140CAD",
"!.	c #443FBB",
"~.	c #A2A1DA",
"{.	c #C1C0E6",
"].	c #5853BF",
"^.	c #1D15AC",
"/.	c #0B03A9",
"(.	c #1A12AE",
"_.	c #5E5BC2",
":.	c #CCCCE9",
"<.	c #403BB9",
"[.	c #0B02AC",
"}.	c #211AB1",
"|.	c #7774CA",
"1.	c #DFDFF1",
"2.	c #F0F0F8",
"3.	c #9D9BD8",
"4.	c #322BB4",
"5.	c #0E05AA",
"6.	c #0900AB",
"7.	c #0D04AD",
"8.	c #271FB4",
"9.	c #8784D1",
"0.	c #F6F6F9",
"a.	c #E0DFF1",
"b.	c #7A77CD",
"c.	c #251EB0",
"d.	c #0C03A9",
"e.	c #0901AA",
"f.	c #1108AE",
"g.	c #3D37BA",
"h.	c #A19FDB",
"i.	c #F3F3F9",
"j.	c #D2D2EC",
"k.	c #5D59C2",
"l.	c #1810AE",
"m.	c #0A01AB",
"n.	c #160DAF",
"o.	c #4E4ABF",
"p.	c #C6C6E8",
"q.	c #D2D2E9",
"r.	c #5854B5",
"s.	c #140CA7",
"t.	c #0901A8",
"u.	c #2821B4",
"v.	c #7673CB",
"w.	c #DAD9EF",
"x.	c #D6D5EC",
"y.	c #5855A9",
"z.	c #100C7A",
"A.	c #080187",
"B.	c #0F06A3",
"C.	c #3A34B8",
"D.	c #A4A3DC",
"E.	c #E3E3F2",
"F.	c #635FBC",
"G.	c #110B8B",
"H.	c #060076",
"I.	c #0B076B",
"J.	c #4541A7",
"K.	c #BDBCE3",
"L.	c #FCF9F5",
"M.	c #FCFAF7",
"N.	c #FCFAF8",
"O.	c #F1F1F7",
"P.	c #8583CC",
"Q.	c #1B149E",
"R.	c #08018D",
"S.	c #0C0583",
"T.	c #48459B",
"U.	c #C7C7E2",
"V.	c #FCF9F7",
"W.	c #FCFBFA",
"X.	c #FDFCFB",
"Y.	c #FDFCFC",
"Z.	c #FCF8F3",
"`.	c #FCF6EE",
" +	c #FCF6ED",
".+	c #FDFDFC",
"++	c #C4C3E6",
"@+	c #2F28A9",
"#+	c #0A029A",
"$+	c #0B039C",
"%+	c #332DA4",
"&+	c #B8B7DE",
"*+	c #F9F8F7",
"=+	c #FCFAF9",
"-+	c #FDFBF9",
";+	c #FBF2EA",
">+	c #F7DFCB",
",+	c #F4D3B6",
"'+	c #F3C7A0",
")+	c #F0B57D",
"!+	c #EFA85F",
"~+	c #F0A650",
"{+	c #F1A84C",
"]+	c #F2A949",
"^+	c #F2AC51",
"/+	c #F4BE76",
"(+	c #F9E2C1",
"_+	c #FDFAF7",
":+	c #E6E6F2",
"<+	c #6F6BC5",
"[+	c #120AA4",
"}+	c #0A029B",
"|+	c #2019A3",
"1+	c #9290D3",
"2+	c #F5F5F9",
"3+	c #FCF9F8",
"4+	c #FBF9F7",
"5+	c #F7E7DE",
"6+	c #F0C5A8",
"7+	c #ECA46D",
"8+	c #E58543",
"9+	c #DD6520",
"0+	c #DA5913",
"a+	c #D9540C",
"b+	c #D84F05",
"c+	c #D64E02",
"d+	c #CD4E01",
"e+	c #BB4E01",
"f+	c #BD5201",
"g+	c #C85601",
"h+	c #D45E06",
"i+	c #EA8824",
"j+	c #F7C992",
"k+	c #FDFBF8",
"l+	c #8483BB",
"m+	c #181288",
"n+	c #090294",
"o+	c #140CA5",
"p+	c #6F6CC5",
"q+	c #EAEAF5",
"r+	c #FBFAF8",
"s+	c #FCF8F6",
"t+	c #F5DBCD",
"u+	c #E49C79",
"v+	c #D86736",
"w+	c #D24911",
"x+	c #D34104",
"y+	c #D34001",
"z+	c #CD3600",
"A+	c #C32C00",
"B+	c #B42700",
"C+	c #9E2100",
"D+	c #8B1D00",
"E+	c #731700",
"F+	c #541100",
"G+	c #511100",
"H+	c #5B1300",
"I+	c #711900",
"J+	c #A53301",
"K+	c #D76D1D",
"L+	c #F5CDA0",
"M+	c #CBCAE1",
"N+	c #302D7E",
"O+	c #06016E",
"P+	c #09037B",
"Q+	c #423EAF",
"R+	c #CECEEA",
"S+	c #FBF7F4",
"T+	c #F0D1C1",
"U+	c #E4946A",
"V+	c #D75D27",
"W+	c #CE3C07",
"X+	c #CC3100",
"Y+	c #C92B00",
"Z+	c #BF2600",
"`+	c #AB2100",
" @	c #8F1A00",
".@	c #761401",
"+@	c #5C0F02",
"@@	c #4B0D03",
"#@	c #4A1207",
"$@	c #461510",
"%@	c #481A16",
"&@	c #451818",
"*@	c #440E0F",
"=@	c #420A05",
"-@	c #500E00",
";@	c #842501",
">@	c #D87624",
",@	c #F8DBB7",
"'@	c #F3F3F8",
")@	c #7372AE",
"!@	c #0C0864",
"~@	c #050065",
"{@	c #1F1A8C",
"]@	c #A2A0D8",
"^@	c #F8E5D4",
"/@	c #E69A70",
"(@	c #D25120",
"_@	c #CC3604",
":@	c #CD3200",
"<@	c #C82B00",
"[@	c #BB2400",
"}@	c #9D1C01",
"|@	c #701307",
"1@	c #4B0C15",
"2@	c #411226",
"3@	c #552F41",
"4@	c #694A57",
"5@	c #7A5E6A",
"6@	c #A8918C",
"7@	c #BAACB0",
"8@	c #CBC1C3",
"9@	c #C3B2B2",
"0@	c #A4593B",
"a@	c #8C2C09",
"b@	c #631500",
"c@	c #510F00",
"d@	c #9A3702",
"e@	c #E9A257",
"f@	c #FCF8F2",
"g@	c #CCCCE5",
"h@	c #2F2B8B",
"i@	c #060170",
"j@	c #0C076D",
"k@	c #6764B3",
"l@	c #ECECF5",
"m@	c #FBF2E7",
"n@	c #F2BE8D",
"o@	c #E37832",
"p@	c #D64907",
"q@	c #CF3700",
"r@	c #C72900",
"s@	c #B82300",
"t@	c #971B01",
"u@	c #6C1208",
"v@	c #4A111E",
"w@	c #3E204B",
"x@	c #554781",
"y@	c #8A84AF",
"z@	c #D5D2DF",
"A@	c #F0EEF1",
"B@	c #F4F3F5",
"C@	c #FCFBFB",
"D@	c #F9F9FA",
"E@	c #FBFBFB",
"F@	c #F1CCA9",
"G@	c #E0883D",
"H@	c #BA4F0E",
"I@	c #732301",
"J@	c #631A00",
"K@	c #C26921",
"L@	c #F8E6CF",
"M@	c #FCFBF9",
"N@	c #9492C0",
"O@	c #130D77",
"P@	c #09037A",
"Q@	c #343099",
"R@	c #C8C8E5",
"S@	c #FAEAD5",
"T@	c #EFA55C",
"U@	c #E1640F",
"V@	c #DA4D01",
"W@	c #D13900",
"X@	c #BF2800",
"Y@	c #9B1C01",
"Z@	c #6B1308",
"`@	c #4C1624",
" #	c #54395E",
".#	c #8B80A3",
"+#	c #C5C2D8",
"@#	c #E9E9F2",
"##	c #FAEEE1",
"$#	c #E7B687",
"%#	c #8F4211",
"&#	c #561600",
"*#	c #903F0E",
"=#	c #EED0B0",
"-#	c #F5F5F8",
";#	c #665C89",
">#	c #130753",
",#	c #150D69",
"'#	c #8987C4",
")#	c #FAF8F6",
"!#	c #F8DDB8",
"~#	c #EE9740",
"{#	c #E16107",
"]#	c #DB5000",
"^#	c #CD3700",
"/#	c #AC2100",
"(#	c #771504",
"_#	c #541923",
":#	c #674A68",
"<#	c #A096B2",
"[#	c #DDDBE7",
"}#	c #EAD0B8",
"|#	c #904415",
"1#	c #661F00",
"2#	c #6B2B0F",
"3#	c #E0C8B4",
"4#	c #DFDEE9",
"5#	c #413264",
"6#	c #180645",
"7#	c #372A63",
"8#	c #D2D2E4",
"9#	c #F9F8F8",
"0#	c #F2D3AD",
"a#	c #EB8D2C",
"b#	c #E26403",
"c#	c #DB5100",
"d#	c #CA3300",
"e#	c #9A1D06",
"f#	c #581218",
"g#	c #542F4A",
"h#	c #877AA0",
"i#	c #D1CFE3",
"j#	c #F8F8F9",
"k#	c #C09B83",
"l#	c #732C06",
"m#	c #692100",
"n#	c #4F1F1C",
"o#	c #D1C7C9",
"p#	c #CAC7D6",
"q#	c #331D4B",
"r#	c #180642",
"s#	c #584E81",
"t#	c #EEEEF4",
"u#	c #E9D8CC",
"v#	c #E08A3B",
"w#	c #D85E04",
"x#	c #D45300",
"y#	c #C43400",
"z#	c #9A1E0C",
"A#	c #48113D",
"B#	c #5C4C84",
"C#	c #C5C2D6",
"D#	c #F3F3F7",
"E#	c #D5D0D8",
"F#	c #603A3D",
"G#	c #450F04",
"H#	c #460E01",
"I#	c #472231",
"J#	c #D3CEDA",
"K#	c #C2BCCB",
"L#	c #351637",
"M#	c #25072F",
"N#	c #786C93",
"O#	c #FAF1E6",
"P#	c #E3A15E",
"Q#	c #D15B0D",
"R#	c #D45103",
"S#	c #C43901",
"T#	c #9D320C",
"U#	c #4C183E",
"V#	c #594D9C",
"W#	c #D1D1E7",
"X#	c #DEDCE7",
"Y#	c #72596D",
"Z#	c #370B13",
"`#	c #360607",
" $	c #390702",
".$	c #5F4152",
"+$	c #E7E5EB",
"@$	c #C3BFD2",
"#$	c #2F163E",
"$$	c #230529",
"%$	c #796C8E",
"&$	c #F7CD94",
"*$	c #E57610",
"=$	c #D25701",
"-$	c #BF3B01",
";$	c #A2321A",
">$	c #4A2047",
",$	c #4D4388",
"'$	c #CACAE4",
")$	c #DEDDE9",
"!$	c #6C5C83",
"~$	c #330D24",
"{$	c #31050E",
"]$	c #380702",
"^$	c #3D0E0C",
"/$	c #958391",
"($	c #F7F7F8",
"_$	c #D4D3E2",
":$	c #2E215A",
"<$	c #160236",
"[$	c #554876",
"}$	c #F0F0F5",
"|$	c #FBF1E3",
"1$	c #F5A843",
"2$	c #E66C01",
"3$	c #D65300",
"4$	c #9D2914",
"5$	c #4E1C63",
"6$	c #342999",
"7$	c #B1B0D7",
"8$	c #FAF9F9",
"9$	c #DDDCE7",
"0$	c #6D5F85",
"a$	c #2D0D2E",
"b$	c #29041A",
"c$	c #340606",
"d$	c #390802",
"e$	c #603C41",
"f$	c #DAD5DA",
"g$	c #E9E8F1",
"h$	c #3E3977",
"i$	c #0B0148",
"j$	c #2D256B",
"k$	c #D6D5E7",
"l$	c #FAE1BC",
"m$	c #F5961A",
"n$	c #E87300",
"o$	c #C04207",
"p$	c #5C144D",
"q$	c #200F9C",
"r$	c #7D7ACD",
"s$	c #F4F3F6",
"t$	c #FBF9F8",
"u$	c #DED9DE",
"v$	c #6B5571",
"w$	c #300C28",
"x$	c #2A0419",
"y$	c #320609",
"z$	c #380701",
"A$	c #4A2020",
"B$	c #B4A6AD",
"C$	c #615D91",
"D$	c #0C024A",
"E$	c #180E5B",
"F$	c #A8A6CF",
"G$	c #F9D5A0",
"H$	c #F6940D",
"I$	c #E87A00",
"J$	c #973313",
"K$	c #200568",
"L$	c #2F28A5",
"M$	c #CDCCEA",
"N$	c #F4F4F8",
"O$	c #F8F7F7",
"P$	c #F8F4F2",
"Q$	c #E2CAB9",
"R$	c #875E50",
"S$	c #411110",
"T$	c #33060D",
"U$	c #390705",
"V$	c #390701",
"W$	c #411414",
"X$	c #937F88",
"Y$	c #F5F4F5",
"Z$	c #9A98BD",
"`$	c #160B4F",
" %	c #0F0349",
".%	c #635D98",
"+%	c #F9D39C",
"@%	c #F6930B",
"#%	c #E67900",
"$%	c #812B15",
"%%	c #13034E",
"&%	c #46418C",
"*%	c #E8E7F2",
"=%	c #F8F7F9",
"-%	c #FAF9F8",
";%	c #E5DCD5",
">%	c #B48C77",
",%	c #894420",
"'%	c #692303",
")%	c #501200",
"!%	c #4B0B01",
"~%	c #490B01",
"{%	c #3F1114",
"]%	c #7E6777",
"^%	c #EAE8EC",
"/%	c #D8D7E5",
"(%	c #392B64",
"_%	c #170133",
":%	c #331E4D",
"<%	c #BFBED7",
"[%	c #F6D8AB",
"}%	c #F6960F",
"|%	c #EA7B00",
"1%	c #942E07",
"2%	c #2B0521",
"3%	c #3A2040",
"4%	c #BFB6C3",
"5%	c #F5F3F2",
"6%	c #D9CDC4",
"7%	c #A88A77",
"8%	c #754932",
"9%	c #572009",
"0%	c #551700",
"a%	c #5A1400",
"b%	c #5F1100",
"c%	c #580E03",
"d%	c #3B0E1E",
"e%	c #6E5B79",
"f%	c #E3E1E8",
"g%	c #7A77A6",
"h%	c #11064E",
"i%	c #110449",
"j%	c #5D59A7",
"k%	c #EDEDF6",
"l%	c #F5E5CF",
"m%	c #F4A026",
"n%	c #F38600",
"o%	c #C54700",
"p%	c #621102",
"q%	c #3A0805",
"r%	c #5C3B49",
"s%	c #C2A89E",
"t%	c #E7CBB2",
"u%	c #ECD5BD",
"v%	c #F5E2CA",
"w%	c #F6E3CA",
"x%	c #EED5B7",
"y%	c #EDCEAA",
"z%	c #F1CB9F",
"A%	c #E6BD93",
"B%	c #C3A082",
"C%	c #8E6855",
"D%	c #623422",
"E%	c #4F1A07",
"F%	c #4B1300",
"G%	c #4D0F00",
"H%	c #5B1000",
"I%	c #631101",
"J%	c #500C09",
"K%	c #350E28",
"L%	c #635582",
"M%	c #D7D6E5",
"N%	c #D0D0E3",
"O%	c #2D2A79",
"P%	c #050157",
"Q%	c #17127B",
"R%	c #8987C2",
"S%	c #EFEFF5",
"T%	c #FBF8F4",
"U%	c #F4BF70",
"V%	c #F5920A",
"W%	c #E36500",
"X%	c #A32600",
"Y%	c #5D0F00",
"Z%	c #420C07",
"`%	c #652710",
" &	c #AC5514",
".&	c #CD6F1A",
"+&	c #DE801F",
"@&	c #E58621",
"#&	c #E27D18",
"$&	c #DC7312",
"%&	c #CD660D",
"&&	c #B4540A",
"*&	c #883806",
"=&	c #581A02",
"-&	c #490E00",
";&	c #560F00",
">&	c #6C1200",
",&	c #791500",
"'&	c #641004",
")&	c #3E091D",
"!&	c #2F1350",
"~&	c #655C96",
"{&	c #D6D5E6",
"]&	c #8D8CBB",
"^&	c #131066",
"/&	c #070152",
"(&	c #221353",
"_&	c #69629B",
":&	c #CAC9E4",
"<&	c #FBF1E1",
"[&	c #F5B962",
"}&	c #F08B10",
"|&	c #DC5A01",
"1&	c #B63400",
"2&	c #851E00",
"3&	c #601400",
"4&	c #5E1500",
"5&	c #6E1F00",
"6&	c #832900",
"7&	c #8D3000",
"8&	c #8E2F00",
"9&	c #8A2C00",
"0&	c #7A2300",
"a&	c #6E1C00",
"b&	c #6A1700",
"c&	c #6D1300",
"d&	c #831700",
"e&	c #901900",
"f&	c #7D1504",
"g&	c #520D10",
"h&	c #330D34",
"i&	c #43337B",
"j&	c #908CC4",
"k&	c #E8E8F3",
"l&	c #EDEDF4",
"m&	c #6968A6",
"n&	c #0F0A5D",
"o&	c #110137",
"p&	c #110658",
"q&	c #332D9E",
"r&	c #9492D0",
"s&	c #E2E2F2",
"t&	c #F9F2EB",
"u&	c #F3CC95",
"v&	c #EF9F3B",
"w&	c #EA7E13",
"x&	c #DC6406",
"y&	c #C35002",
"z&	c #A23500",
"A&	c #892300",
"B&	c #811D01",
"C&	c #802101",
"D&	c #822502",
"E&	c #872A03",
"F&	c #902E05",
"G&	c #9A2E06",
"H&	c #992005",
"I&	c #901905",
"J&	c #771405",
"K&	c #510C0F",
"L&	c #320B35",
"M&	c #3A2768",
"N&	c #7C76AB",
"O&	c #D4D3E7",
"P&	c #E1E1EE",
"Q&	c #615FA5",
"R&	c #110D66",
"S&	c #05005D",
"T&	c #07017E",
"U&	c #171196",
"V&	c #403BAB",
"W&	c #6B68C0",
"X&	c #9D9CD4",
"Y&	c #CACAE6",
"Z&	c #DBDBED",
"`&	c #E2E2F1",
" *	c #DFD2CF",
".*	c #D7B79F",
"+*	c #D5A478",
"@*	c #C78752",
"#*	c #B36437",
"$*	c #A1492E",
"%*	c #953A2C",
"&*	c #95402C",
"**	c #8D4134",
"=*	c #7C3A3F",
"-*	c #6B3243",
";*	c #592543",
">*	c #3F0F3B",
",*	c #2A0631",
"'*	c #1E0535",
")*	c #2C1C55",
"!*	c #6964A0",
"~*	c #C4C3DF",
"{*	c #E6E6F1",
"]*	c #8584BD",
"^*	c #2A2780",
"/*	c #090662",
"(*	c #070173",
"_*	c #0C058E",
":*	c #150E96",
"<*	c #26218F",
"[*	c #322F8E",
"}*	c #3B379D",
"|*	c #4541A2",
"1*	c #4945A3",
"2*	c #4943A9",
"3*	c #473FAB",
"4*	c #352A9E",
"5*	c #26188E",
"6*	c #221188",
"7*	c #1F0C84",
"8*	c #1D0C78",
"9*	c #190A70",
"0*	c #120674",
"a*	c #0D0368",
"b*	c #0A0360",
"c*	c #0B0563",
"d*	c #1B1769",
"e*	c #454288",
"f*	c #A2A1C7",
"g*	c #F1F1F6",
"h*	c #C8C8E2",
"i*	c #6968AB",
"j*	c #25237E",
"k*	c #0B086C",
"l*	c #050169",
"m*	c #050069",
"n*	c #05005F",
"o*	c #09004A",
"p*	c #0D0153",
"q*	c #070172",
"r*	c #060165",
"s*	c #07016C",
"t*	c #070080",
"u*	c #06007A",
"v*	c #060077",
"w*	c #06007E",
"x*	c #05006D",
"y*	c #07035B",
"z*	c #0E0A62",
"A*	c #1D1B6E",
"B*	c #3A3882",
"C*	c #6968A9",
"D*	c #AEADD2",
"E*	c #E0E0EE",
"F*	c #C1C1E0",
"G*	c #8281C1",
"H*	c #4F4D9B",
"I*	c #292777",
"J*	c #161364",
"K*	c #170947",
"L*	c #1C0533",
"M*	c #0A0351",
"N*	c #060354",
"O*	c #080453",
"P*	c #09055B",
"Q*	c #0A075F",
"R*	c #0D0A5F",
"S*	c #110E64",
"T*	c #16117D",
"U*	c #292688",
"V*	c #5A599A",
"W*	c #9191BE",
"X*	c #C0C0DB",
"Y*	c #EEEEF5",
"Z*	c #D2D2E6",
"`*	c #B0AFD2",
" =	c #8E8BB9",
".=	c #726DA0",
"+=	c #6766A0",
"@=	c #6766A3",
"#=	c #6D6BA5",
"$=	c #7D7BB0",
"%=	c #8988B7",
"&=	c #9797C1",
"*=	c #A8A8CC",
"==	c #ADACD7",
"-=	c #CBCBE6",
"                                                                                                ",
"                                                            . + @ # $ % % & *                   ",
"                                                      = @ % - ; > , ' ) ! ~ { ]                 ",
"                                                = @ % ^ / ( _ : < [ } | 1 2 3 =                 ",
"                                            + * 4 5 6 7 8 9 0 a b c d e f g h .                 ",
"                                        @ + i j k g l m n [ o p q r s t u v 4 &                 ",
"                                      * w x y z A B d C D E F G H { I * J & &                   ",
"                                    + K L M N O P Q R S T @ & & & &                             ",
"                                U = V W X Y Z `  ...+.$ &                                       ",
"                              = w @.#.$.%.&.*.=.-.# &                                           ",
"                          # = ;.>.,.&.'.).!.~.{ &                                               ",
"                        # . {.].^./.b (._.:.# &                                                 ",
"                      @ w @.<.$.%.[.}.|.1.&                                                     ",
"                    * 2.3.4.5.6.7.8.9.{ &                                                       ",
"                  0.a.b.c.d.e.f.g.h.i.&                                                         ",
"                + j.k.l.'.m.n.o.p.# $                                                           ",
"              * q.r.s.t.7.u.v.w.& &                                                             ",
"            % x.y.z.A.B.C.D.i.&                                                                 ",
"          $ E.F.G.H.I.J.K.# &                                             L.M.N.                ",
"        & O.P.Q.R.S.T.U.J &                                   V.N.W.X.Y.M.Z.`. +Z.X..+          ",
"        U ++@+#+$+%+&+$ &                               *+=+-+;+>+,+'+)+!+~+{+]+^+/+(+_+-+      ",
"      & :+<+[+}+|+1+2+&                           3+N.4+5+6+7+8+9+0+a+b+c+d+e+f+g+h+i+j+_+k+    ",
"    & 2+l+m+n+o+p+q+$                         =+r+s+t+u+v+w+x+y+z+A+B+C+D+E+F+G+H+I+J+K+L+-+L.  ",
"    & M+N+O+P+Q+R+$                         N.S+T+U+V+W+X+Y+Z+`+ @.@+@@@#@$@%@&@*@=@-@;@>@,@X.  ",
"  & '@)@!@~@{@]@%                       -+M.^@/@(@_@:@<@[@}@|@1@2@3@4@5@6@7@8@9@0@a@b@c@d@e@f@L.",
"  & g@h@i@j@k@l@&                     N.m@n@o@p@q@r@s@t@u@v@w@x@y@z@A@B@C@D@E@C@F@G@H@I@J@K@L@M@",
"  & N@O@P@Q@R@J                   C@M.S@T@U@V@W@X@Y@Z@`@ #.#+#@#@ & &         & Y.##$#%#&#*#=#=+",
"  -#;#>#,#'#0.&                 $ )#!#~#{#]#^#/#(#_#:#<#[#U & &                 & & }#|#1#2#3#D@",
"& 4#5#6#7#8##                   9#0#a#b#c#d#e#f#g#h#i## &                       # j#k#l#m#n#o#D@",
"& p#q#r#s#t#$                 X.u#v#w#x#y#z#A#B#C#D#$                           w E#F#G#H#I#J#U ",
"& K#L#M#N#+                 & O#P#Q#R#S#T#U#V#W#& &                           + X#Y#Z#`# $.$+$J ",
"& @$#$$$%$U                 X.&$*$=$-$;$>$,$'$J                             0.)$!$~${$]$^$/$($  ",
"& _$:$<$[$}$.             & |$1$2$3$4$5$6$7$#                             8$9$0$a$b$c$d$e$f$&   ",
"& g$h$i$j$k$*             & l$m$n$o$p$q$r$- &                         s$t$u$v$w$x$y$z$A$B$E@    ",
"  + C$D$E$F$#             & G$H$I$J$K$L$M$N$                      O$*+P$Q$R$S$T$U$V$W$X$Y$&     ",
"  & Z$`$ %.%N$.           & +%@%#%$%%%&%*%=%                  *+9#-%;%>%,%'%)%!%~%{%]%^%&       ",
"  & /%(%_%:%<%$           E@[%}%|%1%2%3%4%$ Y.$ C@M@E@$ Y.Y.$ 5%6%7%8%9%0%a%b%c%d%e%f%&         ",
"    @ g%h%i%j%k%%         E@l%m%n%o%p%q%r%s%t%u%v%w%x%y%z%A%B%C%D%E%F%G%H%I%J%K%L%M%&           ",
"    & N%O%P%Q%R%S%J 0.    & T%U%V%W%X%Y%Z%`% &.&+&@&#&$&%&&&*&=&-&;&>&,&'&)&!&~&{&$             ",
"      U ]&^&/&(&_&:&U % . = U <&[&}&|&1&2&3&4&5&6&7&8&9&0&a&b&c&d&e&f&g&h&i&j&k&&               ",
"      & l&m&n&o&p&q&r&s&= & # % t&u&v&w&x&y&z&A&B&C&D&E&F&G&H&I&J&K&L&M&N&O&% &                 ",
"        & P&Q&R&S&T&U&V&W&X&Y&Z&`&@# *.*+*@*#*$*%*&***=*-*;*>*,*'*)*!*~*= &                     ",
"          & {*]*^*/*~@(*_*:*<*[*}*|*1*2*3*4*5*6*7*8*9*0*a*b*c*d*e*f*g*& &                       ",
"            & * h*i*j*k*l*m*n*o*p*q*r*s*T&t*u*v*w*x*y*z*A*B*C*D*E*$ &                           ",
"              & & O.F*G*H*I*J*K*L*M*N*O*P*Q*R*S*T*U*V*W*X*P&= & &                               ",
"                  & & # Y*Z*`* =.=+=@=#=$=%=&=*===-=O.J & &                                     ",
"                        & & $ # + + = = % $ # & & & &                                           ",
"                                                                                                "};
