/* XPM */
static char * CopasiDoc32_Alpha_xpm[] = {
"34 34 317 2",
"  	c None",
". 	c #BCBCBC",
"+ 	c #F7F7F7",
"@ 	c #F3F3F3",
"# 	c #F1F1F1",
"$ 	c #EFEFEF",
"% 	c #ECECEC",
"& 	c #EAEAEA",
"* 	c #E9E9E9",
"= 	c #C2C2C2",
"- 	c #808080",
"; 	c #FFFFFF",
"> 	c #FEFEFE",
", 	c #FBFBFB",
"' 	c #F2F2F2",
") 	c #EEEEEE",
"! 	c #E3E3E3",
"~ 	c #BDBDBD",
"{ 	c #C0C0C0",
"] 	c #BBBBBB",
"^ 	c #B6B6B6",
"/ 	c #AFAFAF",
"( 	c #A2A2A2",
"_ 	c #8E8E8E",
": 	c #828282",
"< 	c #FCFCFC",
"[ 	c #F8F8F8",
"} 	c #DBDBDB",
"| 	c #D0D0D0",
"1 	c #C4C4C4",
"2 	c #E8E8E8",
"3 	c #E2E2E2",
"4 	c #D8D8D8",
"5 	c #C9C9C9",
"6 	c #B5B5B5",
"7 	c #F9F9F9",
"8 	c #EBEBEB",
"9 	c #E4E4E4",
"0 	c #DADADA",
"a 	c #CCCCCC",
"b 	c #BEBEBE",
"c 	c #FDFDFD",
"d 	c #FAFAFA",
"e 	c #F5F5F5",
"f 	c #DDDDDD",
"g 	c #DCDCDD",
"h 	c #D6D6DA",
"i 	c #B5B5C3",
"j 	c #BAB9D2",
"k 	c #C8C7D8",
"l 	c #F4F4F4",
"m 	c #ECECED",
"n 	c #EBEBEE",
"o 	c #DBDBEA",
"p 	c #AFAEDC",
"q 	c #726EC9",
"r 	c #4B45BD",
"s 	c #3F39BA",
"t 	c #716DC9",
"u 	c #F6F6F6",
"v 	c #ECECEE",
"w 	c #C8C7E5",
"x 	c #6D68C8",
"y 	c #2A23B2",
"z 	c #352EB6",
"A 	c #6561C5",
"B 	c #7B78CB",
"C 	c #8A87D0",
"D 	c #AFAEDB",
"E 	c #EFEFF0",
"F 	c #E8E8EF",
"G 	c #9D9AD8",
"H 	c #3A34B5",
"I 	c #2C26B2",
"J 	c #837FD0",
"K 	c #CAC9E6",
"L 	c #DDDDE3",
"M 	c #A7A7A8",
"N 	c #F0F0F0",
"O 	c #F0F0F1",
"P 	c #D5D4EB",
"Q 	c #706CCA",
"R 	c #1D16AF",
"S 	c #5F5AC4",
"T 	c #CCCBE7",
"U 	c #E9E9EA",
"V 	c #DCDCDC",
"W 	c #D2D2D2",
"X 	c #EFEFF1",
"Y 	c #C9C8E7",
"Z 	c #4943BD",
"` 	c #2119B1",
" .	c #7B79CE",
"..	c #DCDCEB",
"+.	c #DFDFDF",
"@.	c #D1D1D1",
"#.	c #EFEFF2",
"$.	c #A6A4DC",
"%.	c #342DB7",
"&.	c #2C24B5",
"*.	c #9997D9",
"=.	c #E9E9ED",
"-.	c #ABAAD3",
";.	c #27219C",
">.	c #443EBA",
",.	c #BEBCE4",
"'.	c #E7E7EB",
").	c #E0E0E0",
"!.	c #D7D7D7",
"~.	c #848484",
"{.	c #BDBCE1",
"].	c #2E28A2",
"^.	c #514DA4",
"/.	c #D2D2E5",
"(.	c #E1E1E1",
"_.	c #D7D6D6",
":.	c #DEDDDD",
"<.	c #E3E1DF",
"[.	c #CAC1B8",
"}.	c #E1CAB3",
"|.	c #F0D3B0",
"1.	c #F5D9B4",
"2.	c #FAE9D3",
"3.	c #E6E6ED",
"4.	c #5450B2",
"5.	c #312BAB",
"6.	c #CBCAE4",
"7.	c #E7E7E8",
"8.	c #E2E0DE",
"9.	c #ECDAD2",
"0.	c #E7B49C",
"a.	c #E08758",
"b.	c #D26532",
"c.	c #C35623",
"d.	c #AE501B",
"e.	c #A7531B",
"f.	c #C77336",
"g.	c #F3D7BD",
"h.	c #EEEEEF",
"i.	c #9C9BC3",
"j.	c #19147E",
"k.	c #9B98D0",
"l.	c #DEDEDE",
"m.	c #EDE0D6",
"n.	c #E7A78A",
"o.	c #D45D33",
"p.	c #B82E06",
"q.	c #8B2010",
"r.	c #7D322F",
"s.	c #83514D",
"t.	c #8E6C68",
"u.	c #855548",
"v.	c #732106",
"w.	c #BA7343",
"x.	c #F7E4D0",
"y.	c #EDEDED",
"z.	c #DFDEE7",
"A.	c #4E4993",
"B.	c #625EA8",
"C.	c #DFDEE9",
"D.	c #E5E3E0",
"E.	c #F1D2B5",
"F.	c #E17E40",
"G.	c #BE390C",
"H.	c #922D1D",
"I.	c #82515C",
"J.	c #A798AC",
"K.	c #BFBAC3",
"L.	c #BEBABC",
"M.	c #CCC9C9",
"N.	c #EDDDD3",
"O.	c #CE976F",
"P.	c #823C17",
"Q.	c #E1C8B5",
"R.	c #B9B9B9",
"S.	c #C8C5D1",
"T.	c #392B63",
"U.	c #BEBBD5",
"V.	c #E6E6E6",
"W.	c #E4E3E3",
"X.	c #ECCBAD",
"Y.	c #E07121",
"Z.	c #B0350E",
"`.	c #824650",
" +	c #B5A6B5",
".+	c #DDDCE0",
"++	c #8A8A8A",
"@+	c #B89B8F",
"#+	c #672D1A",
"$+	c #C9BAB9",
"%+	c #E7E7E7",
"&+	c #C0B9C5",
"*+	c #3D2750",
"=+	c #DDDDE5",
"-+	c #F0DEC9",
";+	c #DB7C36",
">+	c #A93B17",
",+	c #7E5574",
"'+	c #D1CDDB",
")+	c #D6D6D7",
"!+	c #B2A8B8",
"~+	c #512C36",
"{+	c #5D3536",
"]+	c #CFC7CD",
"^+	c #B3B3B3",
"/+	c #C6C3D3",
"(+	c #35295F",
"_+	c #C7C6D9",
":+	c #DFDEDC",
"<+	c #F5C589",
"[+	c #C85B13",
"}+	c #5F3174",
"|+	c #C0BDD8",
"1+	c #D5D5D5",
"2+	c #CBCBCB",
"3+	c #CACACA",
"4+	c #868686",
"5+	c #B5B3B3",
"6+	c #BDB2B9",
"7+	c #4A2B41",
"8+	c #36090D",
"9+	c #9B8588",
"0+	c #DAD9E2",
"a+	c #4D4579",
"b+	c #8782A8",
"c+	c #E2E1E4",
"d+	c #E0DEDB",
"e+	c #F6BE70",
"f+	c #AA4F13",
"g+	c #605086",
"h+	c #DDDBE4",
"i+	c #D8D7D7",
"j+	c #D9D7D6",
"k+	c #DAD7D5",
"l+	c #C5BDB8",
"m+	c #AA8877",
"n+	c #6E321F",
"o+	c #471211",
"p+	c #7B5F66",
"q+	c #EBE7E9",
"r+	c #ACACAC",
"s+	c #E6E6E7",
"t+	c #918DAF",
"u+	c #393174",
"v+	c #C8C7DD",
"w+	c #DDDDDE",
"x+	c #DDDCDB",
"y+	c #F5CC90",
"z+	c #CB630C",
"A+	c #602422",
"B+	c #AD8573",
"C+	c #E5B88C",
"D+	c #EBBA87",
"E+	c #E0AB79",
"F+	c #A97D63",
"G+	c #713F2F",
"H+	c #611807",
"I+	c #501012",
"J+	c #745A73",
"K+	c #D7D2DC",
"L+	c #A9A9A9",
"M+	c #DEDEE4",
"N+	c #4C4888",
"O+	c #372E72",
"P+	c #A3A1D1",
"Q+	c #D5D4E6",
"R+	c #F0E9E5",
"S+	c #EDB77B",
"T+	c #C56426",
"U+	c #933C12",
"V+	c #872F0D",
"W+	c #8C330E",
"X+	c #812C10",
"Y+	c #711A0D",
"Z+	c #691613",
"`+	c #653850",
" @	c #9185A9",
".@	c #DFDDE6",
"+@	c #A6A6A6",
"@@	c #9D9D9D",
"#@	c #9A9A9A",
"$@	c #969696",
"%@	c #919191",
"&@	c #8C8C8C",
"*@	c #888888",
"=@	c #939394",
"-@	c #B9B8CB",
";@	c #5A5697",
">@	c #1C187F",
",@	c #3F3A9E",
"'@	c #6562AB",
")@	c #756FAE",
"!@	c #745E8F",
"~@	c #613C72",
"{@	c #4B1E5F",
"]@	c #421A53",
"^@	c #371751",
"/@	c #3C225C",
"(@	c #776A8F",
"_@	c #BCBACC",
":@	c #C1C1C6",
"<@	c #A7A5CA",
"[@	c #6C6BA7",
"}@	c #49427D",
"|@	c #3B3373",
"1@	c #36337D",
"2@	c #3E3B87",
"3@	c #474492",
"4@	c #6C6AA4",
"5@	c #9E9DC0",
"6@	c #C4C3D3",
"7@	c #BABABC",
"8@	c #C9C8D6",
"9@	c #C7C6D7",
"0@	c #C7C7D8",
"a@	c #C6C6D5",
"b@	c #C7C7D5",
"                                                                    ",
"        . . . . . . . . . . . . . . . .                             ",
"        . + + + + + + + + @ # $ % & * = -                           ",
"        . + ; ; ; ; ; ; ; ; > ; , ' ) = ; -                         ",
"        . + ; ; ; ; ; ; ; ; > ; ; , ' = ; ; -                       ",
"        . + ; ; ; ; ; ; ; ; > ; ; ; , = ! ; ; -                     ",
"        . + ; ; ; ; ; ; ; ; > ; ; ; ; = ! ! ; ; -                   ",
"        . + ; ; ; ; ; ; ; ; > ; ; ; ; = ! ! ! ; ; -                 ",
"        . + ; ; ; ; ; ; ; ; > ; ; ; ; = ! ! ! ! ; ; -               ",
"        . + ; ; ; ; ; ; ; ; > ; ; ; ; ~ { ] ^ / ( _ : -             ",
"        . + ; ; ; ; ; ; ; ; > ; ; ; ; < [ # * } | 1 / -             ",
"        . + ; ; ; ; ; ; ; ; ; ; ; ; ; ; , ' 2 3 4 5 6 -             ",
"        . + ; ; ; ; ; ; ; ; ; ; ; ; < 7 + $ 8 9 0 a b -             ",
"        . + ; ; ; ; ; ; ; ; ; ; c d + e # $ 8 ! f g h i j k         ",
"        . + ; ; ; ; ; ; ; ; ; d [ + l # $ ) m n o p q r s t         ",
"        . + ; ; ; ; ; ; ; < 7 + u @ ' $ $ v w x y z A B C D         ",
"        . + ; ; ; ; ; ; , 7 [ e e ' $ E F G H I J K L M             ",
"        . + ; ; ; ; ; , d [ u e ' N O P Q R S T U V W -             ",
"        . + ; ; ; ; < < [ [ u @ # X Y Z `  ...9 +.V @.-             ",
"        . + ; ; ; ; , d + u @ # #.$.%.&.*.=.! V V 0 W -             ",
"        . + ; ; ; , d + e l # X -.;.>.,.'.! ).f !.!.@.~.            ",
"        . + ; ; , 7 [ e @ # E {.].^./.2 (.+.f } _.:.<.[.}.|.1.2.    ",
"        . + ; , 7 + e ' N $ 3.4.5.6.7.).+.f f 8.9.0.a.b.c.d.e.f.g.  ",
"        . + ; 7 u l ' N ) h.i.j.k.8 (.l.f (.m.n.o.p.q.r.s.t.u.v.w.x.",
"        . + d u l ' N y.8 z.A.B.C.(.l.f D.E.F.G.H.I.J.K.L.M.N.O.P.Q.",
"        R.+ [ l # $ y.8 * S.T.U.V.l.V W.X.Y.Z.`. +.+0 ++      @+#+$+",
"        6 + e # $ y.8 * %+&+*+=+).V f -+;+>+,+'+)+a a -     !+~+{+]+",
"        ^++ @ $ y.8 * %+9 /+(+_+).0 :+<+[+}+|+1+2+3+2+4+5+6+7+8+9+  ",
"        / + # y.8 * %+9 3 0+a+b+c+!.d+e+f+g+h+4 i+j+k+l+m+n+o+p+q+  ",
"        r++ ) 8 * %+9 ! 3 s+t+u+v+w+x+y+z+A+B+C+D+E+F+G+H+I+J+K+    ",
"        L++ 2 V.! (.+.V 0 0 M+N+O+P+Q+R+S+T+U+V+W+X+Y+Z+`+ @.@      ",
"        L++@( @@#@$@%@&@*@~.=@-@;@>@,@'@)@!@~@{@]@^@/@(@_@          ",
"                                :@<@[@}@|@1@2@3@4@5@6@7@            ",
"                                      8@9@0@a@b@                    "};
