/* XPM */
static char * CopasiDoc48_Alpha_xpm[] = {
"48 48 570 2",
"  	c None",
". 	c #A1A1A1",
"+ 	c #A3A3A3",
"@ 	c #FFFFFF",
"# 	c #EDEDED",
"$ 	c #8D8D8D",
"% 	c #848484",
"& 	c #F9F9F9",
"* 	c #FAFAFA",
"= 	c #FBFBFB",
"- 	c #F5F5F5",
"; 	c #E0E0E0",
"> 	c #9E9E9E",
", 	c #ADADAD",
"' 	c #888888",
") 	c #A5A5A5",
"! 	c #F7F7F7",
"~ 	c #CBCBCB",
"{ 	c #FCFCFC",
"] 	c #AAAAAA",
"^ 	c #C3C3C3",
"/ 	c #AFAFAF",
"( 	c #FDFDFD",
"_ 	c #F6F6F6",
": 	c #E5E5E5",
"< 	c #F3F3F3",
"[ 	c #F8F8F8",
"} 	c #B5B5B5",
"| 	c #E8E8E8",
"1 	c #E1E1E1",
"2 	c #F1F1F1",
"3 	c #EEEEEE",
"4 	c #E9E9E9",
"5 	c #AEAEAE",
"6 	c #A9A9A9",
"7 	c #919191",
"8 	c #838383",
"9 	c #747474",
"0 	c #696969",
"a 	c #F0F0F0",
"b 	c #DBDBDB",
"c 	c #CFCFCF",
"d 	c #C2C2C2",
"e 	c #9B9B9B",
"f 	c #898989",
"g 	c #727272",
"h 	c #F4F4F4",
"i 	c #EFEFEF",
"j 	c #EBEBEB",
"k 	c #D9D9D9",
"l 	c #B9B9B9",
"m 	c #969696",
"n 	c #E6E6E6",
"o 	c #DFDFDF",
"p 	c #D4D4D4",
"q 	c #C9C9C9",
"r 	c #BEBEBE",
"s 	c #A7A7A7",
"t 	c #F2F2F2",
"u 	c #DCDCDC",
"v 	c #D6D6D6",
"w 	c #CDCDCD",
"x 	c #C7C7C7",
"y 	c #B2B2B2",
"z 	c #868686",
"A 	c #9F9EAB",
"B 	c #CECDD6",
"C 	c #E7E7EB",
"D 	c #ECECF1",
"E 	c #EAEAEA",
"F 	c #E4E4E4",
"G 	c #D8D8D8",
"H 	c #DFDFE1",
"I 	c #E8E8E9",
"J 	c #E3E3EC",
"K 	c #CECEEA",
"L 	c #B5B3E1",
"M 	c #A09FD9",
"N 	c #AAA8DC",
"O 	c #E8E8F5",
"P 	c #E7E7E7",
"Q 	c #E2E2E2",
"R 	c #DEDEDE",
"S 	c #E6E6E7",
"T 	c #F0F0F3",
"U 	c #E4E4F2",
"V 	c #B6B5E1",
"W 	c #807ECC",
"X 	c #403AB7",
"Y 	c #1A13AD",
"Z 	c #1008AB",
"` 	c #0D04AA",
" .	c #1109AA",
"..	c #6B67C5",
"+.	c #F6F6FA",
"@.	c #E7E7E8",
"#.	c #F1F1F3",
"$.	c #CFCEEA",
"%.	c #6D69C8",
"&.	c #3029B3",
"*.	c #130BAB",
"=.	c #211AAC",
"-.	c #352FB5",
";.	c #3E39B9",
">.	c #504CBE",
",.	c #726FC9",
"'.	c #FCFCFD",
").	c #ECECEC",
"!.	c #EEEEEF",
"~.	c #E4E4F1",
"{.	c #8B89CF",
"].	c #2A23AD",
"^.	c #0B03A8",
"/.	c #130BAD",
"(.	c #3E38B9",
"_.	c #9A98D6",
":.	c #D4D4EB",
"<.	c #EBEBF3",
"[.	c #EEEEF4",
"}.	c #F4F4F7",
"|.	c #FEFEFE",
"1.	c #F0F0F1",
"2.	c #E7E6E6",
"3.	c #F2F2F4",
"4.	c #C4C3E6",
"5.	c #433DB8",
"6.	c #1008A5",
"7.	c #0F07A9",
"8.	c #403AB9",
"9.	c #AAA8DD",
"0.	c #A2A2A2",
"a.	c #F0F0F5",
"b.	c #A19FDB",
"c.	c #2821B2",
"d.	c #0B03AA",
"e.	c #1F18B0",
"f.	c #7F7CCE",
"g.	c #E7E7F3",
"h.	c #D1D1D1",
"i.	c #B7B7B7",
"j.	c #DEDDF0",
"k.	c #6864C5",
"l.	c #170FAC",
"m.	c #0C03AB",
"n.	c #3933B7",
"o.	c #BBBAE2",
"p.	c #F3F3F4",
"q.	c #C8C8C8",
"r.	c #F2F2F3",
"s.	c #CFCFEA",
"t.	c #453FBB",
"u.	c #0D05AA",
"v.	c #0D04AC",
"w.	c #4F4ABF",
"x.	c #D6D6ED",
"y.	c #B6B6B6",
"z.	c #F1F1F5",
"A.	c #B3B1E1",
"B.	c #322CB4",
"C.	c #0B02AA",
"D.	c #140CAF",
"E.	c #6763C8",
"F.	c #D0D0D0",
"G.	c #CECECE",
"H.	c #CACACA",
"I.	c #C5C5C5",
"J.	c #C1C1C1",
"K.	c #F2F2F5",
"L.	c #9593D4",
"M.	c #1D16AF",
"N.	c #0B02AB",
"O.	c #2019B2",
"P.	c #8F8CD5",
"Q.	c #BFBFBF",
"R.	c #B3B3B3",
"S.	c #F3F3F5",
"T.	c #9695CA",
"U.	c #18138A",
"V.	c #0B039F",
"W.	c #3F39BB",
"X.	c #C3C2E6",
"Y.	c #CCCCCC",
"Z.	c #C4C4C4",
"`.	c #C0C0C0",
" +	c #BDBDBD",
".+	c #B1B1B1",
"++	c #ACAADB",
"@+	c #1A1494",
"#+	c #080376",
"$+	c #4F4CA2",
"%+	c #DDDDF0",
"&+	c #D5D5D5",
"*+	c #757575",
"=+	c #E3E1E2",
"-+	c #F4F3F2",
";+	c #FAF8F6",
">+	c #FDFBFA",
",+	c #FCFBF9",
"'+	c #DDDDEF",
")+	c #312BAA",
"!+	c #0A0298",
"~+	c #413DA6",
"{+	c #E1E1EF",
"]+	c #C6C6C6",
"^+	c #BABABA",
"/+	c #CECDCD",
"(+	c #E1E0DF",
"_+	c #EAE8E5",
":+	c #F6E8DD",
"<+	c #F6DEC8",
"[+	c #F5D0AD",
"}+	c #F3C28C",
"|+	c #F4C07E",
"1+	c #F5C17C",
"2+	c #F6CE98",
"3+	c #FBEFDF",
"4+	c #FDFBF9",
"5+	c #E3E3E3",
"6+	c #F0F0F4",
"7+	c #7673C2",
"8+	c #0E06A1",
"9+	c #251FA7",
"0+	c #C3C2E4",
"a+	c #D7D7D6",
"b+	c #F0EDEC",
"c+	c #F3DDD1",
"d+	c #E8AA88",
"e+	c #E48243",
"f+	c #DB5E1B",
"g+	c #D54B0B",
"h+	c #CE4405",
"i+	c #C44001",
"j+	c #A43C01",
"k+	c #A24001",
"l+	c #B64803",
"m+	c #E1802A",
"n+	c #F9E3CA",
"o+	c #FDFBF8",
"p+	c #B0AFD0",
"q+	c #120D74",
"r+	c #0F098B",
"s+	c #9491D4",
"t+	c #D2D2D2",
"u+	c #D6D5D5",
"v+	c #F1EFEC",
"w+	c #F0D3C3",
"x+	c #E18C63",
"y+	c #D14916",
"z+	c #CB3202",
"A+	c #C12B00",
"B+	c #A72300",
"C+	c #871801",
"D+	c #641202",
"E+	c #551306",
"F+	c #47140E",
"G+	c #44120E",
"H+	c #480C05",
"I+	c #701B00",
"J+	c #CF742E",
"K+	c #FBEDDA",
"L+	c #454290",
"M+	c #060165",
"N+	c #514DA9",
"O+	c #ECECF4",
"P+	c #E9E8E7",
"Q+	c #F6E5D5",
"R+	c #E59366",
"S+	c #CF4210",
"T+	c #CA2F00",
"U+	c #BA2500",
"V+	c #8E1903",
"W+	c #55101A",
"X+	c #482241",
"Y+	c #7D6374",
"Z+	c #9B8892",
"`+	c #C6B8B7",
" @	c #D8D0D2",
".@	c #CFB6AC",
"+@	c #AA4B1A",
"@@	c #6F1C00",
"#@	c #792501",
"$@	c #E9B078",
"%@	c #A4A4A4",
"&@	c #DDDDDD",
"*@	c #C0BFD9",
"=@	c #130D7B",
"-@	c #1E1985",
";@	c #C7C6E2",
">@	c #F2EFEC",
",@	c #F4CA9E",
"'@	c #E26E1F",
")@	c #D44201",
"!@	c #BE2900",
"~@	c #8B1904",
"{@	c #591A23",
"]@	c #694E6E",
"^@	c #A39DBC",
"/@	c #D6D5E6",
"(@	c #EEEEF0",
"_@	c #FCFBFB",
":@	c #F7DEC5",
"<@	c #CA8249",
"[@	c #611C01",
"}@	c #B56D37",
"|@	c #FBF8F5",
"1@	c #DADADA",
"2@	c #8981A3",
"3@	c #140750",
"4@	c #7672AF",
"5@	c #F1F1F2",
"6@	c #F2EDE7",
"7@	c #F2B675",
"8@	c #E2670C",
"9@	c #D34300",
"0@	c #A22102",
"a@	c #62191A",
"b@	c #765C79",
"c@	c #C7C2D3",
"d@	c #ECECEF",
"e@	c #9D9CA8",
"f@	c #CC9F7D",
"g@	c #6D2401",
"h@	c #824F38",
"i@	c #F9F7F6",
"j@	c #5A4C75",
"k@	c #1F0D48",
"l@	c #C2BFD4",
"m@	c #BCBCBC",
"n@	c #EFEDEC",
"o@	c #E5AF7B",
"p@	c #DC6406",
"q@	c #CE4300",
"r@	c #941E10",
"s@	c #522C56",
"t@	c #B2AAC0",
"u@	c #E7E7EE",
"v@	c #E7E4E9",
"w@	c #6B3E36",
"x@	c #511401",
"y@	c #694B59",
"z@	c #F8F8FA",
"A@	c #F7F7F8",
"B@	c #523B5B",
"C@	c #31173E",
"D@	c #DDDCE7",
"E@	c #D5D5D6",
"F@	c #F3D3AE",
"G@	c #D66613",
"H@	c #CE4602",
"I@	c #973113",
"J@	c #4D2E68",
"K@	c #C4C2DF",
"L@	c #B8B8B8",
"M@	c #EAE9F1",
"N@	c #786278",
"O@	c #35080F",
"P@	c #390804",
"Q@	c #927E8C",
"R@	c #FAFAFB",
"S@	c #F5F4F5",
"T@	c #564977",
"U@	c #230D3C",
"V@	c #CECCDC",
"W@	c #D5D5D7",
"X@	c #F4F0E9",
"Y@	c #F29D3B",
"Z@	c #D95A00",
"`@	c #962B1D",
" #	c #3D227A",
".#	c #B1AFD2",
"+#	c #9F9F9F",
"@#	c #9D9D9D",
"##	c #999999",
"$#	c #EBEAF0",
"%#	c #746587",
"&#	c #2C0822",
"*#	c #350606",
"=#	c #4C2222",
"-#	c #D9D3D8",
";#	c #7975A1",
">#	c #0D034A",
",#	c #9C99C1",
"'#	c #E2E2E3",
")#	c #F8E5CA",
"!#	c #F28C0F",
"~#	c #C54F07",
"{#	c #3B0E6B",
"]#	c #706BC7",
"^#	c #EBEBEF",
"/#	c #9C9C9C",
"(#	c #979797",
"_#	c #E8E7EA",
":#	c #EFE9E6",
"<#	c #775E6E",
"[#	c #2E081D",
"}#	c #32060A",
"|#	c #3E0F0B",
"1#	c #A9989D",
"2#	c #AFAEC9",
"3#	c #11064B",
"4#	c #554E8C",
"5#	c #F0F0F2",
"6#	c #F8DFBA",
"7#	c #F38E07",
"8#	c #A4440E",
"9#	c #180A61",
"0#	c #B9B8DB",
"a#	c #E4E4E7",
"b#	c #A9A9AA",
"c#	c #A0A0A0",
"d#	c #A2A2A3",
"e#	c #A6A5A6",
"f#	c #9B9A9A",
"g#	c #D3D2D7",
"h#	c #F2F0EF",
"i#	c #D3BDB0",
"j#	c #935736",
"k#	c #531604",
"l#	c #460A02",
"m#	c #3F0C0A",
"n#	c #88717B",
"o#	c #F7F6F7",
"p#	c #BBBBBB",
"q#	c #E6E6EC",
"r#	c #362962",
"s#	c #230F42",
"t#	c #C1BFDA",
"u#	c #D9D9DB",
"v#	c #A8A8A8",
"w#	c #BCBCBD",
"x#	c #F4E2C8",
"y#	c #F5930D",
"z#	c #B84903",
"A#	c #34081A",
"B#	c #867181",
"C#	c #F2EEED",
"D#	c #F1EFEE",
"E#	c #F0EFED",
"F#	c #F0EDEA",
"G#	c #F2EEE9",
"H#	c #F3EDE5",
"I#	c #E9E1DC",
"J#	c #C1AEA4",
"K#	c #835B46",
"L#	c #57210C",
"M#	c #561400",
"N#	c #5E1100",
"O#	c #470D12",
"P#	c #73607D",
"Q#	c #F0EFF3",
"R#	c #939393",
"S#	c #8E8E8E",
"T#	c #8E8DB7",
"U#	c #090457",
"V#	c #45419A",
"W#	c #E0E0EB",
"X#	c #C8C8C9",
"Y#	c #848485",
"Z#	c #F0ECE6",
"`#	c #F4AB40",
" $	c #E46C01",
".$	c #801A00",
"+$	c #45100D",
"@$	c #8E5232",
"#$	c #D08440",
"$$	c #E69B4B",
"%$	c #E69742",
"&$	c #DE8733",
"*$	c #C77127",
"=$	c #854219",
"-$	c #4E1606",
";$	c #541000",
">$	c #6A1200",
",$	c #5E0F06",
"'$	c #3A0E30",
")$	c #6C608E",
"!$	c #EAEAF1",
"~$	c #44428A",
"{$	c #0C034D",
"]$	c #413571",
"^$	c #B2B0D8",
"/$	c #E2E2E6",
"($	c #F7F6F8",
"_$	c #F8E9D3",
":$	c #F1A441",
"<$	c #DB6006",
"[$	c #A83400",
"}$	c #751F00",
"|$	c #6D1B00",
"1$	c #7D2300",
"2$	c #822700",
"3$	c #802500",
"4$	c #781F00",
"5$	c #7A1800",
"6$	c #851700",
"7$	c #7D1504",
"8$	c #4E0E1D",
"9$	c #462E62",
"0$	c #9F9BC8",
"a$	c #F3F3F8",
"b$	c #D1D1D6",
"c$	c #D3D3E5",
"d$	c #373381",
"e$	c #080157",
"f$	c #150E8D",
"g$	c #5E5BB9",
"h$	c #A19FD6",
"i$	c #E8E8F3",
"j$	c #EEE9EA",
"k$	c #E3C09C",
"l$	c #DC9B5C",
"m$	c #C77333",
"n$	c #A74720",
"o$	c #96351D",
"p$	c #933C22",
"q$	c #85382D",
"r$	c #762F30",
"s$	c #581329",
"t$	c #380926",
"u$	c #372051",
"v$	c #8781B3",
"w$	c #E3E3EE",
"x$	c #E8E8EA",
"y$	c #DCDCEC",
"z$	c #6866A8",
"A$	c #15116D",
"B$	c #06016B",
"C$	c #0B0486",
"D$	c #181385",
"E$	c #25217E",
"F$	c #2F2A93",
"G$	c #332F93",
"H$	c #332C9F",
"I$	c #231895",
"J$	c #1A0C88",
"K$	c #170882",
"L$	c #13076C",
"M$	c #0D046B",
"N$	c #0D0762",
"O$	c #221E74",
"P$	c #62609C",
"Q$	c #CECEE1",
"R$	c #F6F6F8",
"S$	c #C3C2DF",
"T$	c #6A68B0",
"U$	c #2F2D82",
"V$	c #130F62",
"W$	c #16053E",
"X$	c #0D0250",
"Y$	c #060256",
"Z$	c #08035F",
"`$	c #090565",
" %	c #0C0965",
".%	c #130E7C",
"+%	c #363381",
"@%	c #7271A8",
"#%	c #ACABCD",
"$%	c #DDDDEC",
"%%	c #F7F7F9",
"&%	c #EEEEF5",
"*%	c #CECEE3",
"=%	c #ACA9CA",
"-%	c #9795BC",
";%	c #9595BF",
">%	c #A2A1C6",
",%	c #B0B0CF",
"'%	c #C1C1DA",
")%	c #CBCBE5",
"!%	c #EEEEF6",
"~%	c #FBFBFC",
"                                                                                                ",
"                                                                                                ",
"                                                                                                ",
"                                                                                                ",
"                . . . . . . . . . . . . . . . . . . . . .                                       ",
"                + @ @ @ @ @ @ @ @ @ @ @ @ @ @ @ @ @ @ # $ %                                     ",
"                + @ & & * * = = = = = = = * = * * & - ; > , '                                   ",
"                + @ & & * * = = = = = = = * = * * & - ; ) ! ~ '                                 ",
"                + @ * * = = { { { { { { { = = * * & - ; ] { { ^ '                               ",
"                + @ * * = = { { { { { { { = = * * & - ; / * { = ^ '                             ",
"                + @ = = { { ( ( ( { { { = = * * * & _ : / < & [ _ } '                           ",
"                + @ = = { { ( ( { { { = = * * & & [ _ | / 1 | 2 3 { } '                         ",
"                + @ = = { { { { { = = = * * & & [ ! - 4 / / 5 6 > 7 8 9 0                       ",
"                + @ = = { { { { = = = * * & & [ ! _ - a : b c d / e f g g                       ",
"                + @ = = = { = = = * * & & [ [ ! _ - h 2 i j : k ~ l ] m g                       ",
"                + @ = = = = = = * * & & [ ! ! _ - - < a # 4 n o p q r s g                       ",
"                + @ * * * = * * & & [ [ ! _ _ - h t a # 4 n 1 u v w x y z A B C D               ",
"                + @ * * * * * & & [ ! ! _ - h < t a # E n F o b v G H I J K L M N O             ",
"                + @ & & & & & [ [ ! _ - h h < 2 i # E P : Q R S T U V W X Y Z `  ...+.          ",
"                + @ & & & & [ ! ! _ - h < t 2 i 3 j | n Q @.#.$.%.&.*. .=.-.;.>.,.V '.          ",
"                + @ [ [ [ [ ! _ - h < t 2 a i ).j 4 n F !.~.{.].^./.(._.:.<.[.}.&               ",
"                + |.! ! ! _ - - h 1.2 2 a 3 # j | 2.P 3.4.5.6.7.8.9.<.n 0.                      ",
"                + @ - - - - h < t 2 a i 3 ).E | n # a.b.c.d.e.f.g.j h.i.g                       ",
"                + @ h h h < t t a i 3 # j E | n 1.j.k.l.m.n.o.p.u q.^ i.g                       ",
"                + @ t t t t 2 a i 3 ).j E | | r.s.t.u.v.w.x.3 p ~ x d y.g                       ",
"                + @ 2 2 2 a i 3 # ).E 4 | E z.A.B.C.D.E.~.P F.G.H.I.J.} g                       ",
"                + @ i i i 3 # ).j 4 | P E K.L.M.N.O.P.z.1 F.F.~ x ^ Q.R.g                       ",
"                + @ # # # ).j E 4 P n | S.T.U.V.W.X.r.b c G.Y.q.Z.`. +.+g                       ",
"                + @ j j E E 4 | P n : < ++@+#+$+%+# &+c G.Y.q I.J. +l / *+    =+-+;+>+,+        ",
"                + @ 4 4 | | P n n F j '+)+!+~+{+4 h.c w H.q.]+^ r ^+/+(+_+:+<+[+}+|+1+2+3+4+    ",
"                + @ P P n n n F 5+F 6+7+8+9+0+j F.G.w H.x I.d Z.a+b+c+d+e+f+g+h+i+j+k+l+m+n+o+  ",
"                + @ : : : F 5+Q ; a p+q+r+s+r.t+c Y.H.x ^ J.u+v+w+x+y+z+A+B+C+D+E+F+G+H+I+J+K+  ",
"                + @ Q Q Q 1 1 o Q [.L+M+N+O+k w ~ q.I.d q.P+Q+R+S+T+U+V+W+X+Y+Z+`+ @.@+@@@#@$@4+",
"                %@@ o o o o R &@| *@=@-@;@n ~ q.]+^ `.G.>@,@'@)@!@~@{@]@^@/@S.1.(@  _@:@<@[@}@|@",
"                + @ b b b u b 1@i 2@3@4@5@w x ^ `. +Y.6@7@8@9@0@a@b@c@d@x e@          { f@g@h@i@",
"                + @ 1@1@1@b 1@G _ j@k@l@; x ^ `.m@d n@o@p@q@r@s@t@u@p 6 g             v@w@x@y@z@",
"                + @ k G G G G &+A@B@C@D@E@^ `.m@l ; F@G@H@I@J@K@: L@. e g           M@N@O@P@Q@R@",
"                + @ p p p &+p h.S@T@U@V@W@`.m@l r X@Y@Z@`@ #.#: %@+#@###g         $#%#&#*#=#-#  ",
"                + @ F.F.F.h.c G.).;#>#,#'#m@l } q.)#!#~#{#]#^#, > /#e (#g     _#:#<#[#}#|#1#{   ",
"                + @ w w w G.Y.~ o 2#3#4#5#Q.} y H.6#7#8#9#0#a#b#c#d#e#s f#g#h#i#j#k#l#m#n#o#    ",
"                + P ^ ^ d `.r p#I.q#r#s#t#u#v#) w#x#y#z#A#B#C#D#E#F#G#H#I#J#K#L#M#N#O#P#Q#      ",
"                5 5 6 + > ##R#S#' &+T#U#V#W#X#Y#z Z#`# $.$+$@$#$$$%$&$*$=$-$;$>$,$'$)$!$        ",
"                                    u@~${$]$^$6+/$($_$:$<$[$}$|$1$2$3$4$5$6$7$8$9$0$a$          ",
"                                    b$c$d$e$f$g$h$:.i$j$k$l$m$n$o$p$q$r$s$t$u$v$w$*             ",
"                                      x$y$z$A$B$C$D$E$F$G$H$I$J$K$L$M$N$O$P$Q$&                 ",
"                                          R$S$T$U$V$W$X$Y$Z$`$ %.%+%@%#%$%%%                    ",
"                                              R@&%*%=%-%;%>%,%'%)%!%= &                         ",
"                                                    ~%( ( {                                     "};
