/* XPM */
static char * CopasiDoc32_Alpha_xpm[] = {
"32 32 604 2",
"  	c None",
". 	c #AAD4FE",
"+ 	c #B9DAFD",
"@ 	c #B6D7FA",
"# 	c #B4D6F9",
"$ 	c #B3D4F6",
"% 	c #B2D1F4",
"& 	c #B0CFF1",
"* 	c #AFCCEF",
"= 	c #ADCBED",
"- 	c #ACC9EC",
"; 	c #AAC6E9",
"> 	c #A9C3E6",
", 	c #A7C1E4",
"' 	c #A6C0E3",
") 	c #A4BEE1",
"! 	c #A3BBDE",
"~ 	c #A2B9DB",
"{ 	c #8FAFDF",
"] 	c #D2E7FE",
"^ 	c #FFFFFF",
"/ 	c #FDFDFD",
"( 	c #FBFBFB",
"_ 	c #F9F9F9",
": 	c #F7F8F7",
"< 	c #F6F6F5",
"[ 	c #F4F4F4",
"} 	c #F2F2F2",
"| 	c #F0F0EF",
"1 	c #EEEEEE",
"2 	c #ECECEC",
"3 	c #EAEBEA",
"4 	c #E9E9E8",
"5 	c #E7E7E5",
"6 	c #E4E5E4",
"7 	c #E3E3E2",
"8 	c #B0D1EE",
"9 	c #86AACA",
"0 	c #303F5C",
"a 	c #CCE4FC",
"b 	c #FEFEFE",
"c 	c #FDFEFF",
"d 	c #FCFDFF",
"e 	c #FAFCFF",
"f 	c #F8FCFF",
"g 	c #F7FAFF",
"h 	c #F6FAFE",
"i 	c #F4F9FE",
"j 	c #F3F8FE",
"k 	c #F1F7FF",
"l 	c #EFF6FE",
"m 	c #EDF5FD",
"n 	c #EDF4FD",
"o 	c #EAF3FD",
"p 	c #E9F3FD",
"q 	c #E7F1FE",
"r 	c #AFD0ED",
"s 	c #96D8FF",
"t 	c #6A93C8",
"u 	c #33415E",
"v 	c #CAE2FA",
"w 	c #FDFCFD",
"x 	c #FBFDFF",
"y 	c #F9FCFF",
"z 	c #F8FBFF",
"A 	c #F7FAFE",
"B 	c #F5F9FE",
"C 	c #F3F9FE",
"D 	c #F2F8FE",
"E 	c #F1F6FE",
"F 	c #EDF5FE",
"G 	c #ECF4FE",
"H 	c #EFEFD2",
"I 	c #E1E1BD",
"J 	c #D4D4AC",
"K 	c #D2D2A9",
"L 	c #DADAB5",
"M 	c #EFEFD5",
"N 	c #34435F",
"O 	c #CAE0F8",
"P 	c #FBFCFC",
"Q 	c #F9FBFF",
"R 	c #F7FBFE",
"S 	c #F6FAFF",
"T 	c #F3F8FF",
"U 	c #F2F7FE",
"V 	c #F0F7FE",
"W 	c #EEF5FE",
"X 	c #EBF4FD",
"Y 	c #CFCF9D",
"Z 	c #BFBF87",
"` 	c #B5B586",
" .	c #909078",
"..	c #737370",
"+.	c #73736D",
"@.	c #7A7A6B",
"#.	c #909075",
"$.	c #D0D0A2",
"%.	c #F3F3DA",
"&.	c #33435F",
"*.	c #C7DDF6",
"=.	c #FBFBFA",
"-.	c #F5FAFF",
";.	c #F4F8FE",
">.	c #F1F7FE",
",.	c #C7C797",
"'.	c #9D9D76",
").	c #6E6E6E",
"!.	c #494970",
"~.	c #44446D",
"{.	c #40406A",
"].	c #3F3F69",
"^.	c #5C5C68",
"/.	c #75756A",
"(.	c #87886E",
"_.	c #BABB89",
":.	c #E9EBC8",
"<.	c #6180B5",
"[.	c #C7DCF4",
"}.	c #F5F9FF",
"|.	c #F1F8FE",
"1.	c #CFCFA1",
"2.	c #A9A97D",
"3.	c #72726F",
"4.	c #4C4C6B",
"5.	c #3B3B6C",
"6.	c #42426F",
"7.	c #62626E",
"8.	c #85856B",
"9.	c #8B8B61",
"0.	c #AEAE7B",
"a.	c #CCCCA1",
"b.	c #D4D4AA",
"c.	c #D9DAAF",
"d.	c #9A9AF8",
"e.	c #8290D6",
"f.	c #C5D9F2",
"g.	c #F8F8F8",
"h.	c #F0F6FE",
"i.	c #E1E1B9",
"j.	c #BEBE96",
"k.	c #787878",
"l.	c #424271",
"m.	c #32326F",
"n.	c #56566E",
"o.	c #8B8B78",
"p.	c #B7B789",
"q.	c #CCCC9D",
"r.	c #DDDDBE",
"s.	c #DEECFC",
"t.	c #DCEBFD",
"u.	c #DAEAFD",
"v.	c #D9E9FC",
"w.	c #D7E8FC",
"x.	c #BFD2FD",
"y.	c #818DD5",
"z.	c #111E37",
"A.	c #C3D8F0",
"B.	c #F7F7F7",
"C.	c #EFF5FE",
"D.	c #EAEACF",
"E.	c #CACA9F",
"F.	c #9C9C7E",
"G.	c #666671",
"H.	c #333370",
"I.	c #353571",
"J.	c #656578",
"K.	c #AEAE91",
"L.	c #DDDDB8",
"M.	c #F1F1D3",
"N.	c #DEECFD",
"O.	c #DDECFC",
"P.	c #DBEAFD",
"Q.	c #D9E9FD",
"R.	c #D8E8FC",
"S.	c #D7E7FC",
"T.	c #D5E7FC",
"U.	c #8591D5",
"V.	c #0D1A33",
"W.	c #C2D6EE",
"X.	c #F6F6F6",
"Y.	c #E5E5C7",
"Z.	c #B2B299",
"`.	c #656579",
" +	c #343472",
".+	c #2D2D6F",
"++	c #4E4E71",
"@+	c #93937D",
"#+	c #C9C99D",
"$+	c #EAEACC",
"%+	c #DFECFD",
"&+	c #DBEAFC",
"*+	c #D6E7FC",
"=+	c #D4E7FC",
"-+	c #D3E6FC",
";+	c #8491D4",
">+	c #C0D4EC",
",+	c #F5F5F5",
"'+	c #D0D1A5",
")+	c #ACAC8B",
"!+	c #5E5E75",
"~+	c #2A2A72",
"{+	c #313172",
"]+	c #68686F",
"^+	c #A1A17B",
"/+	c #D6D6AB",
"(+	c #E1EDFD",
"_+	c #DDEBFD",
":+	c #DAEAFC",
"<+	c #D9E8FC",
"[+	c #D7E9FD",
"}+	c #D6E7FD",
"|+	c #D4E6FC",
"1+	c #D2E5FC",
"2+	c #D1E4FB",
"3+	c #BED1EA",
"4+	c #BEBF9F",
"5+	c #78797C",
"6+	c #414272",
"7+	c #2E2E71",
"8+	c #505070",
"9+	c #8B8B80",
"0+	c #BFBF99",
"a+	c #E2EEFD",
"b+	c #DFEDFD",
"c+	c #DDEBFC",
"d+	c #DBEBFD",
"e+	c #D9EAFD",
"f+	c #D6E8FC",
"g+	c #D1E4FC",
"h+	c #CFE4FC",
"i+	c #BFC19E",
"j+	c #7D807E",
"k+	c #393972",
"l+	c #616174",
"m+	c #A4A485",
"n+	c #D6D6AF",
"o+	c #E1EEFC",
"p+	c #D8E9FC",
"q+	c #D5E6FC",
"r+	c #D1E5FC",
"s+	c #D0E4FC",
"t+	c #CEE3FC",
"u+	c #CDE2FB",
"v+	c #C1C19E",
"w+	c #74747B",
"x+	c #3A3A72",
"y+	c #4D4D72",
"z+	c #92927C",
"A+	c #C1C192",
"B+	c #E0EDFD",
"C+	c #DEEDFC",
"D+	c #DDECFD",
"E+	c #DAE9FC",
"F+	c #D0E3FB",
"G+	c #F1E4B0",
"H+	c #EAD79D",
"I+	c #E8D193",
"J+	c #F1E4B2",
"K+	c #BFBF9E",
"L+	c #7E7E7E",
"M+	c #454575",
"N+	c #99998A",
"O+	c #D5D5AE",
"P+	c #DCECFD",
"Q+	c #D8E9FD",
"R+	c #D1E5FB",
"S+	c #E8D36F",
"T+	c #E6D184",
"U+	c #D9B966",
"V+	c #C79A4F",
"W+	c #B07437",
"X+	c #AA692F",
"Y+	c #B27436",
"Z+	c #CA9D52",
"`+	c #E1C881",
" @	c #EFE3B6",
".@	c #C2C29E",
"+@	c #393973",
"@@	c #4D4D73",
"#@	c #98988A",
"$@	c #D9D9BB",
"%@	c #F6F1D1",
"&@	c #EBDBA6",
"*@	c #D6B25B",
"=@	c #C38F34",
"-@	c #AB6B2E",
";@	c #8D4227",
">@	c #752B28",
",@	c #5E1A30",
"'@	c #571633",
")@	c #591631",
"!@	c #681A26",
"~@	c #85311E",
"{@	c #A75D27",
"]@	c #CB994B",
"^@	c #EAD993",
"/@	c #DADAB0",
"(@	c #8C8C80",
"_@	c #373771",
":@	c #404071",
"<@	c #989888",
"[@	c #D6D6B2",
"}@	c #DBEBFC",
"|@	c #D3E7FC",
"1@	c #ECDAA6",
"2@	c #D9BD7A",
"3@	c #BA8A4B",
"4@	c #97522A",
"5@	c #7C2F22",
"6@	c #69252B",
"7@	c #56213D",
"8@	c #57314D",
"9@	c #4D375D",
"0@	c #493761",
"a@	c #4B375F",
"b@	c #583752",
"c@	c #6B3238",
"d@	c #7C261A",
"e@	c #9C491C",
"f@	c #D7B467",
"g@	c #F5EEC7",
"h@	c #B4B476",
"i@	c #55556C",
"j@	c #33336D",
"k@	c #828272",
"l@	c #D2D2B2",
"m@	c #EDEDED",
"n@	c #D4B15F",
"o@	c #B7833E",
"p@	c #854735",
"q@	c #612638",
"r@	c #501F41",
"s@	c #51324F",
"t@	c #6F5C5A",
"u@	c #867B6A",
"v@	c #B2AD7A",
"w@	c #BBB77A",
"x@	c #BAB979",
"y@	c #BAB978",
"z@	c #BDB777",
"A@	c #B3A46E",
"B@	c #81523C",
"C@	c #772821",
"D@	c #B17437",
"E@	c #E6D18D",
"F@	c #8D8D47",
"G@	c #373766",
"H@	c #4F4F6C",
"I@	c #ADAD80",
"J@	c #B4C4DC",
"K@	c #ECECEB",
"L@	c #D7E8FD",
"M@	c #E0C182",
"N@	c #C08B4C",
"O@	c #702B2A",
"P@	c #481D48",
"Q@	c #44305D",
"R@	c #685C65",
"S@	c #969274",
"T@	c #C2C090",
"U@	c #D9D8B0",
"V@	c #ECECCA",
"W@	c #C2DCFA",
"X@	c #C0DBFA",
"Y@	c #E0DDB9",
"Z@	c #92835F",
"`@	c #57273E",
" #	c #8E4421",
".#	c #CFA63C",
"+#	c #83833C",
"@#	c #333365",
"##	c #66666F",
"$#	c #B3C2DA",
"%#	c #EBEBEA",
"&#	c #DAE9FD",
"*#	c #DEBF80",
"=#	c #B3733C",
"-#	c #813023",
";#	c #571F3A",
">#	c #4F3252",
",#	c #6F6567",
"'#	c #9D9B7B",
")#	c #C9C89A",
"!#	c #E3E3C3",
"~#	c #C5DDFB",
"{#	c #C3DCFA",
"]#	c #C1DCFA",
"^#	c #C0DBFB",
"/#	c #BEDAFB",
"(#	c #E0DFC3",
"_#	c #8A8368",
":#	c #47234B",
"<#	c #80321D",
"[#	c #C5931D",
"}#	c #82823B",
"|#	c #343466",
"1#	c #6B6B6F",
"2#	c #B2C0D8",
"3#	c #EAEAE9",
"4#	c #D3E5FC",
"5#	c #E2C784",
"6#	c #B98045",
"7#	c #802E22",
"8#	c #5D2036",
"9#	c #6B555B",
"0#	c #969173",
"a#	c #C5C495",
"b#	c #E3E3B9",
"c#	c #C6DEFB",
"d#	c #C4DDFB",
"e#	c #C2DCFB",
"f#	c #C1DBFA",
"g#	c #BFDAFB",
"h#	c #BED9FB",
"i#	c #BCD8FA",
"j#	c #E8E8CD",
"k#	c #BCB899",
"l#	c #68545B",
"m#	c #501E3F",
"n#	c #90522F",
"o#	c #D4B457",
"p#	c #B0BED6",
"q#	c #C79449",
"r#	c #8A361E",
"s#	c #5C2138",
"t#	c #735D61",
"u#	c #BCB898",
"v#	c #E1E1C2",
"w#	c #C4DDFA",
"x#	c #C2DBFB",
"y#	c #BFD9FB",
"z#	c #BED9FA",
"A#	c #BCD9FA",
"B#	c #BAD7FA",
"C#	c #E9E5C3",
"D#	c #B6B192",
"E#	c #725E64",
"F#	c #542041",
"G#	c #69303B",
"H#	c #A98C63",
"I#	c #E4DAA7",
"J#	c #AFBCD3",
"K#	c #E8E8E7",
"L#	c #D0E5FC",
"M#	c #E4CD84",
"N#	c #A75E29",
"O#	c #6E1C20",
"P#	c #654750",
"Q#	c #AFAA87",
"R#	c #E8E8CA",
"S#	c #C5DEFB",
"T#	c #C1DBFB",
"U#	c #BEDAFA",
"V#	c #BDD8FB",
"W#	c #BBD8FA",
"X#	c #E6D18F",
"Y#	c #C8AD70",
"Z#	c #7A5B57",
"`#	c #532343",
" $	c #672E3C",
".$	c #94735A",
"+$	c #CCC294",
"@$	c #AEBAD2",
"#$	c #E7E7E6",
"$$	c #CFE3FC",
"%$	c #DBBD63",
"&$	c #903F21",
"*$	c #561532",
"=$	c #6A585C",
"-$	c #C3BE8B",
";$	c #C3DDFB",
">$	c #F5ECC1",
",$	c #EAD89F",
"'$	c #DABA72",
")$	c #B7763A",
"!$	c #8F3C21",
"~$	c #611B2E",
"{$	c #632E40",
"]$	c #987D65",
"^$	c #CABF93",
"/$	c #818170",
"($	c #CCCCA8",
"_$	c #E6E6E5",
":$	c #CFE4FB",
"<$	c #CDE3FC",
"[$	c #CCE2FB",
"}$	c #DCBC61",
"|$	c #9B4D22",
"1$	c #692026",
"2$	c #674245",
"3$	c #AB8E54",
"4$	c #D5B459",
"5$	c #DAB95A",
"6$	c #D9B75B",
"7$	c #D2AC5C",
"8$	c #B47A3C",
"9$	c #9D582A",
"0$	c #7B2920",
"a$	c #671724",
"b$	c #5C2F47",
"c$	c #877368",
"d$	c #C6BF96",
"e$	c #383871",
"f$	c #3E3E6C",
"g$	c #828270",
"h$	c #B1B183",
"i$	c #D6D6AC",
"j$	c #CBE1FC",
"k$	c #CAE0FC",
"l$	c #C9E0FB",
"m$	c #C69933",
"n$	c #A86D15",
"o$	c #945314",
"p$	c #974A14",
"q$	c #9C4614",
"r$	c #983A15",
"s$	c #963715",
"t$	c #953715",
"u$	c #8E361A",
"v$	c #7D2E24",
"w$	c #5F1B31",
"x$	c #52193A",
"y$	c #4E2A4C",
"z$	c #695158",
"A$	c #978B76",
"B$	c #C5C19B",
"C$	c #C3C39E",
"D$	c #79797A",
"E$	c #474770",
"F$	c #3E3E6B",
"G$	c #59596B",
"H$	c #888874",
"I$	c #ABAB76",
"J$	c #B8B87A",
"K$	c #B9B770",
"L$	c #B9AF49",
"M$	c #B09E25",
"N$	c #A1821D",
"O$	c #905F1C",
"P$	c #7E381B",
"Q$	c #69101B",
"R$	c #63051B",
"S$	c #64061A",
"T$	c #63071C",
"U$	c #580D2B",
"V$	c #451444",
"W$	c #3C235B",
"X$	c #554663",
"Y$	c #8A836C",
"Z$	c #B4B17F",
"`$	c #D7D7AE",
" %	c #D1D1A5",
".%	c #B3B387",
"+%	c #767668",
"@%	c #474764",
"#%	c #2F2F6F",
"$%	c #363671",
"%%	c #3C3C71",
"&%	c #3D3C70",
"*%	c #3C3B67",
"=%	c #3A3960",
"-%	c #37335E",
";%	c #332A5E",
">%	c #2B1B5E",
",%	c #22095E",
"'%	c #20055E",
")%	c #21065D",
"!%	c #2C1059",
"~%	c #3D2256",
"{%	c #533E5B",
"]%	c #6E6466",
"^%	c #8E8A74",
"/%	c #B7B586",
"(%	c #DAD9B2",
"_%	c #EBEBC1",
":%	c #CCCC80",
"<%	c #98986A",
"[%	c #52526F",
"}%	c #3D3D71",
"|%	c #3D3D72",
"1%	c #3B3B71",
"2%	c #3B3A71",
"3%	c #3A3871",
"4%	c #3A3771",
"5%	c #3F3D70",
"6%	c #5E5C6D",
"7%	c #88866C",
"8%	c #A4A173",
"9%	c #DDDCB3",
"0%	c #99CCFF",
"a%	c #0D1934",
"b%	c #8A9BCD",
"c%	c #E1E1B2",
"d%	c #C4C48C",
"e%	c #B9B97D",
"f%	c #B9B97B",
"g%	c #BBBB7F",
"h%	c #CCCC9B",
"i%	c #DEDEC0",
"j%	c #8990C2",
"k%	c #8692D7",
"l%	c #0D1B33",
"m%	c #0D1B34",
"        . + @ # $ % & * = - ; > , ' ) ! ~ {                     ",
"        ] ^ / ( _ : < [ } | 1 2 3 4 5 6 7 8 9 0                 ",
"        a b c d e f g h i j k l m n o p q r s t u               ",
"        v w x y z A B C D E l F G o H I J K K L M N             ",
"        O P Q R S i T U V W F X Y Z `  ...+.@.#.$.%.&.          ",
"        *.=.R -.;.D >.l W G ,.'.).!.~.{.].^./.(._.:.<.          ",
"        [._ }.j |.V W F 1.2.3.4.5.6.7.8.9.0.a.b.c.d.e.          ",
"        f.g.D >.h.W i.j.k.l.m.n.o.p.q.r.s.t.u.v.w.x.y.z.        ",
"        A.B.h.C.D.E.F.G.H.I.J.K.L.M.N.O.P.Q.R.S.T.x.U.V.        ",
"        W.X.l Y.Z.`. +.+++@+#+$+%+N.t.&+Q.R.*+=+-+x.;+V.        ",
"        >+,+'+)+!+~+{+]+^+/+(+%+_+&+:+<+[+}+|+1+2+x.;+V.        ",
"        3+4+5+6+7+8+9+0+a+b+N.c+d+e+R.f+T.|+1+g+h+x.;+V.        ",
"        i+j+k+I.l+m+n+o+%+N.t.:+Q.p+*+q+-+r+s+t+u+x.;+V.        ",
"      v+w+x+y+z+A+a+B+C+D+d+E+v.w.T.|+-+g+F+G+H+I+I+H+J+        ",
"    K+L+x+M+N+O+(+b+s.P+P.v.Q+w.=+|+R+S+T+U+V+W+X+X+Y+Z+`+ @    ",
"  .@w++@@@#@$@(+%+D+d+&+Q.R.*+|+%@&@*@=@-@;@>@,@'@)@!@~@{@]@^@  ",
"/@(@_@:@<@[@b+s.D+}@u.R.f+T.|@1@2@3@4@5@6@7@8@9@0@a@b@c@d@e@f@g@",
"h@i@j@k@l@m@N.t.d+Q.R.*+|+H+n@o@p@q@r@s@t@u@v@w@x@y@z@A@B@C@D@E@",
"F@G@H@I@J@K@t.:+v.L@*+|+M@N@4@O@P@Q@R@S@T@U@V@W@X@x.;+Y@Z@`@ #.#",
"+#@###a.$#%#&#Q+w.T.|+*#=#-#;#>#,#'#)#!#~#{#]#^#/#x.;+(#_#:#<#[#",
"}#|#1#K 2#3#w.*+|+4#5#6#7#8#9#0#a#b#c#d#e#f#g#h#i#x.j#k#l#m#n#o#",
"}#|#1#K p#4 T.|+-+ @q#r#s#t#u#v#c#~#w#x#^#y#z#A#B#C#D#E#F#G#H#I#",
"+#@###a.J#K#-+1+L#M#N#O#P#Q#R#S#d#e#T#^#U#V#W#B#X#Y#Z#`# $.$+$  ",
"F@G@H@I@@$#$R+h+$$%$&$*$=$-$~#;$W@T#g#h#A#>$,$'$)$!$~${$]$^$    ",
"h@i@j@/$($_$:$<$[$}$|$1$2$3$4$5$5$5$5$5$6$7$8$9$0$a$b$c$d$      ",
"/@(@e$f$g$h$i$j$k$l$m$n$o$p$q$r$s$s$s$t$u$v$w$x$y$z$A$B$        ",
"  C$D$E$F$G$H$I$J$K$L$M$N$O$P$Q$R$R$S$T$U$V$W$X$Y$Z$`$V.        ",
"     %.%+%@%#%$%%%&%*%=%-%;%>%,%'%)%!%~%{%]%^%/%(%x.U.V.        ",
"      _%:%<%[%}%%%|%}%%%%%1%2%3%4%5%6%7%8%)#9%x.x.0%U.a%        ",
"        b%c%d%e%f%f%f%f%f%f%f%f%f%g%h%i%j%j%j%j%j%j%k%          ",
"              l%V.V.V.V.V.V.V.V.V.V.V.V.V.V.V.V.V.m%            ",
"                                                                "};
