/* XPM */
static char * Copasi16_Alpha_xpm[] = {
"16 16 100 2",
"  	c None",
". 	c #F5F5D0",
"+ 	c #D8D8AA",
"@ 	c #AAAA8E",
"# 	c #AEAE90",
"$ 	c #F6F6E0",
"% 	c #F1F1CA",
"& 	c #91917C",
"* 	c #2F2F6B",
"= 	c #464665",
"- 	c #71716C",
"; 	c #AAAA8D",
"> 	c #E6E6C4",
", 	c #FAFAE6",
"' 	c #BCBC93",
") 	c #2E2E70",
"! 	c #5A5A73",
"~ 	c #FAFAE5",
"{ 	c #F0F0CA",
"] 	c #5C5C76",
"^ 	c #262670",
"/ 	c #A4A487",
"( 	c #D6D8B7",
"_ 	c #2E2F70",
": 	c #DDDDBB",
"< 	c #D8D8B6",
"[ 	c #A0A088",
"} 	c #FAF5CC",
"| 	c #E0C17C",
"1 	c #D4AA64",
"2 	c #DFC17C",
"3 	c #FCFAE3",
"4 	c #DDDDBC",
"5 	c #2D2D71",
"6 	c #A0A08C",
"7 	c #ECD99A",
"8 	c #B2712B",
"9 	c #742623",
"0 	c #48123F",
"a 	c #390E4D",
"b 	c #581230",
"c 	c #9E4612",
"d 	c #F8F1C4",
"e 	c #707062",
"f 	c #6D6D6D",
"g 	c #EEDDAC",
"h 	c #AE6D2C",
"i 	c #461242",
"j 	c #554258",
"k 	c #ABA887",
"l 	c #ECECB8",
"m 	c #F0F0C0",
"n 	c #ECECB7",
"o 	c #6B3D3B",
"p 	c #C49044",
"q 	c #555554",
"r 	c #EBD8A4",
"s 	c #7F261B",
"t 	c #564156",
"u 	c #BCBC92",
"v 	c #F6F6DF",
"w 	c #503C54",
"x 	c #B07023",
"y 	c #984214",
"z 	c #6D585E",
"A 	c #F6F1C6",
"B 	c #705C61",
"C 	c #642636",
"D 	c #E2DDB8",
"E 	c #F8F1BC",
"F 	c #6B121D",
"G 	c #92886E",
"H 	c #F8F0B8",
"I 	c #F6ECB0",
"J 	c #D2A860",
"K 	c #8A2A12",
"L 	c #5A2640",
"M 	c #DCD8B2",
"N 	c #32326E",
"O 	c #6E6E6C",
"P 	c #F0F0B8",
"Q 	c #D0B228",
"R 	c #A6660B",
"S 	c #8A2508",
"T 	c #7E0E08",
"U 	c #640D21",
"V 	c #390E4E",
"W 	c #766D64",
"X 	c #DEDDBC",
"Y 	c #8C8C62",
"Z 	c #1C1C71",
"` 	c #1D1D71",
" .	c #1D1D70",
"..	c #1C1C70",
"+.	c #181370",
"@.	c #160E70",
"#.	c #443C62",
"$.	c #908D78",
"%.	c #D9D9AC",
"&.	c #F1F1C2",
"                                ",
"                . + @ # $       ",
"            % & * = - ; >       ",
"        , ' ) ! + ~             ",
"      { ] ^ / ,                 ",
"    ( _ ! :                     ",
"  < ) [ ,           } | 1 2 3   ",
"4 5 6           7 8 9 0 a b c d ",
"e f         g h i j k l m n o p ",
"q @       r s t u ~       v w x ",
"q @     3 y z v         A B C D ",
"e f     E F G H H H I J K L M   ",
"4 N O + P Q R S T T U V W X     ",
"  % Y Z `  ...+.@.#.$.%.        ",
"      &.m m m m m ~             ",
"                                "};
