/* XPM */
static const char * Copasi16_Alpha_xpm[] = {
"16 16 125 2",
"  	c None",
". 	c #B0AFDF",
"+ 	c #A9A7DD",
"@ 	c #B7B5E2",
"# 	c #A4A2DC",
"$ 	c #8682D1",
"% 	c #6D68C8",
"& 	c #5853C1",
"* 	c #5955C2",
"= 	c #7C78CD",
"- 	c #8784D1",
"; 	c #5F5AC2",
"> 	c #6560C6",
", 	c #8E8CD6",
"' 	c #ABA7DE",
") 	c #736ECB",
"! 	c #5853C2",
"~ 	c #7B77CE",
"{ 	c #9A97D6",
"] 	c #645EC5",
"^ 	c #5751C2",
"/ 	c #8985D3",
"( 	c #9794CE",
"_ 	c #5B57B8",
": 	c #625EC4",
"< 	c #9492D6",
"[ 	c #5F5AB7",
"} 	c #6864B5",
"| 	c #A19FD4",
"1 	c #E9BBA5",
"2 	c #E2B297",
"3 	c #DBAE8A",
"4 	c #DCB38F",
"5 	c #7573B6",
"6 	c #5D59B5",
"7 	c #9D9BD2",
"8 	c #E09F87",
"9 	c #CD775A",
"0 	c #BF6040",
"a 	c #B05839",
"b 	c #9F5738",
"c 	c #A05B38",
"d 	c #BB7B52",
"e 	c #E3C3AB",
"f 	c #ACA9CA",
"g 	c #58549C",
"h 	c #8B88C1",
"i 	c #ECB894",
"j 	c #D57E57",
"k 	c #B9563B",
"l 	c #A05147",
"m 	c #9C696C",
"n 	c #B38E8C",
"o 	c #C3A299",
"p 	c #BD8F78",
"q 	c #A26343",
"r 	c #CDA68A",
"s 	c #9E97B3",
"t 	c #6E6697",
"u 	c #E8B48E",
"v 	c #CE7645",
"w 	c #AD5845",
"x 	c #AA7474",
"y 	c #C09FA4",
"z 	c #BAA3A0",
"A 	c #8A5B4B",
"B 	c #B1948C",
"C 	c #9C94AC",
"D 	c #7E7395",
"E 	c #D5874F",
"F 	c #A3584C",
"G 	c #A98391",
"H 	c #7D636E",
"I 	c #684444",
"J 	c #AE9C9F",
"K 	c #A29FB9",
"L 	c #67608E",
"M 	c #F0C89F",
"N 	c #C67639",
"O 	c #875A6E",
"P 	c #BCAAB6",
"Q 	c #B79C94",
"R 	c #87615C",
"S 	c #613C43",
"T 	c #84686D",
"U 	c #B3AFC8",
"V 	c #655E90",
"W 	c #8A86B3",
"X 	c #E7CCB3",
"Y 	c #CE8444",
"Z 	c #905646",
"` 	c #BB8C76",
" .	c #D4A27D",
"..	c #C79370",
"+.	c #9A6B5A",
"@.	c #76433A",
"#.	c #6E3C3E",
"$.	c #7E606D",
"%.	c #8C88B1",
"&.	c #605A95",
"*.	c #7D7BB7",
"=.	c #B0A8C4",
"-.	c #BF9B8D",
";.	c #A1644F",
">.	c #8B483A",
",.	c #864137",
"'.	c #82423A",
").	c #763A3D",
"!.	c #754856",
"~.	c #927A8E",
"{.	c #9491BC",
"].	c #6765A8",
"^.	c #524E98",
"/.	c #534986",
"(.	c #4F3E7A",
"_.	c #432F74",
":.	c #473274",
"<.	c #614E80",
"[.	c #877597",
"}.	c #AFA0B3",
"|.	c #ADACCD",
"1.	c #A2A0C2",
"2.	c #A19DC4",
"3.	c #A5A1C8",
"4.	c #AEABCE",
"                    . + @       ",
"              # $ % & * =       ",
"            - ; > , '           ",
"          ) ! ~                 ",
"      { ] ^ /                   ",
"    ( _ : <                     ",
"    [ } |           1 2 3 4     ",
"  5 6 7         8 9 0 a b c d e ",
"f g h       i j k l m n o p q r ",
"s t       u v w x y       z A B ",
"C D       E F G           H I J ",
"K L     M N O P       Q R S T   ",
"U V W   X Y Z `  ...+.@.#.$.    ",
"  %.&.*.=.-.;.>.,.'.).!.~.      ",
"    {.].^./.(._.:.<.[.}.        ",
"        |.1.2.3.4.              "};
