/* XPM */
static char * CopasiDoc16_Alpha_xpm[] = {
"16 16 127 2",
"  	c None",
". 	c #CDCDCD",
"+ 	c #A0A0A0",
"@ 	c #FBFBFB",
"# 	c #F9F9F9",
"$ 	c #F5F5F5",
"% 	c #F0F0F0",
"& 	c #EDEDED",
"* 	c #E2E2E2",
"= 	c #E4E4E4",
"- 	c #F6F6F6",
"; 	c #F2F2F2",
"> 	c #EFEFEF",
", 	c #E5E5E5",
"' 	c #D0D0D0",
") 	c #E7E7E7",
"! 	c #F8F8F8",
"~ 	c #F3F3F3",
"{ 	c #E9E9E9",
"] 	c #E0E0E0",
"^ 	c #D3D3D3",
"/ 	c #C7C7C7",
"( 	c #F4F4F4",
"_ 	c #E9E9EA",
": 	c #E1E1E5",
"< 	c #C5C5D7",
"[ 	c #ADAAD0",
"} 	c #9D9BD1",
"| 	c #9E9CC6",
"1 	c #FAFAFA",
"2 	c #F0F0F1",
"3 	c #E2E2E9",
"4 	c #B3B1D9",
"5 	c #8581CA",
"6 	c #8F8CCF",
"7 	c #9C9ACF",
"8 	c #9897BA",
"9 	c #EDEDEE",
"0 	c #D4D2E6",
"a 	c #9794D2",
"b 	c #7F7BCB",
"c 	c #ADABD5",
"d 	c #CCCCD8",
"e 	c #D3D3D6",
"f 	c #A3A3A4",
"g 	c #F1F1F2",
"h 	c #D7D7E6",
"i 	c #8B88CB",
"j 	c #837FCC",
"k 	c #BDBCDA",
"l 	c #D7D7DC",
"m 	c #DADADA",
"n 	c #D9D8D7",
"o 	c #A6A4A1",
"p 	c #DEDEE8",
"q 	c #9390CA",
"r 	c #918FC7",
"s 	c #CCCBDE",
"t 	c #DFDDDF",
"u 	c #E0D8D4",
"v 	c #DDC6BD",
"w 	c #D9B7A8",
"x 	c #BE9B85",
"y 	c #CFA17E",
"z 	c #B5B3D0",
"A 	c #8381BC",
"B 	c #CECDDF",
"C 	c #E4E1E1",
"D 	c #E4D0C3",
"E 	c #D59C87",
"F 	c #BC7564",
"G 	c #B5786A",
"H 	c #AC7C6B",
"I 	c #AE7252",
"J 	c #C7997B",
"K 	c #F1F1F1",
"L 	c #9D97B6",
"M 	c #ABA7C3",
"N 	c #E3E1E3",
"O 	c #E5D1C2",
"P 	c #CD8C6D",
"Q 	c #B77B70",
"R 	c #C5A7A7",
"S 	c #CEC3C5",
"T 	c #ADA5A4",
"U 	c #A17C71",
"V 	c #A88477",
"W 	c #9D97B1",
"X 	c #B4B0C3",
"Y 	c #E8E2DE",
"Z 	c #DCAC87",
"` 	c #A8726E",
" .	c #CBBCC1",
"..	c #DDD8D6",
"+.	c #D6D0CE",
"@.	c #9D8C8C",
"#.	c #715158",
"$.	c #998285",
"%.	c #EBEBEB",
"&.	c #AFABC2",
"*.	c #9792B5",
"=.	c #D5CFD6",
"-.	c #D7A882",
";.	c #A16D5F",
">.	c #C8A594",
",.	c #C9A691",
"'.	c #9F7B72",
").	c #7D5454",
"!.	c #836670",
"~.	c #D8D7DF",
"{.	c #9B98BA",
"].	c #8985B8",
"^.	c #9786A0",
"/.	c #835963",
"(.	c #734252",
"_.	c #7C4E5A",
":.	c #8D6975",
"<.	c #988892",
"[.	c #A1A1A2",
"}.	c #A1A1AA",
"|.	c #9695B0",
"1.	c #8C89AD",
"2.	c #8881A8",
"3.	c #8981A7",
"4.	c #948EA5",
"5.	c #A09DA5",
"6.	c #A3A2A4",
"    . . . . . . . . +           ",
"    . @ # $ % & * = . +         ",
"    . @ # - ; > , = . ' +       ",
"    . @ # - ; % ) = + + + +     ",
"    . @ ! - ~ % { = ] ^ / +     ",
"    . @ ! - ( ; _ : < [ } |     ",
"    . 1 ! - ( 2 3 4 5 6 7 8     ",
"    . # $ ( 9 0 a b c d e f     ",
"    . - ( g h i j k l m n o     ",
"    . - $ p q r s t u v w x y   ",
"    . ! ~ z A B C D E F G H I J ",
"    . ! K L M N O P Q R S T U V ",
"    . $ & W X Y Z `  ...+.@.#.$.",
"    . ( %.&.*.=.-.;.>.,.'.).!.  ",
"    . ; %.~.{.].^./.(._.:.<.    ",
"    + + + [.}.|.1.2.3.4.5.6.    "};
