/* XPM */
static char * Copasi32_Alpha_xpm[] = {
"32 32 281 2",
"  	c None",
". 	c #FEFEF7",
"+ 	c #F6F6D3",
"@ 	c #F0F0BF",
"# 	c #F2F2C5",
"$ 	c #FDFDF1",
"% 	c #F3F3BC",
"& 	c #E3E385",
"* 	c #D9D979",
"= 	c #949463",
"- 	c #63635C",
"; 	c #71715E",
"> 	c #DFDF9D",
", 	c #FDFDF2",
"' 	c #EDEDB7",
") 	c #BCBC6F",
"! 	c #69695B",
"~ 	c #24246E",
"{ 	c #20206F",
"] 	c #181872",
"^ 	c #131375",
"/ 	c #424266",
"( 	c #62625C",
"_ 	c #66665A",
": 	c #ADAD6A",
"< 	c #F8F8D9",
"[ 	c #F3F3BF",
"} 	c #D5D579",
"| 	c #6C6C5F",
"1 	c #30306C",
"2 	c #141474",
"3 	c #1C1C70",
"4 	c #4E4E62",
"5 	c #939350",
"6 	c #9F9F52",
"7 	c #CFCF81",
"8 	c #F1F1BF",
"9 	c #E6E8C1",
"0 	c #F9F9DD",
"a 	c #E7E7A5",
"b 	c #737365",
"c 	c #212170",
"d 	c #0D0D78",
"e 	c #414167",
"f 	c #949464",
"g 	c #DADA7A",
"h 	c #EDEDA6",
"i 	c #FDFDF0",
"j 	c #EDEDA8",
"k 	c #B0B069",
"l 	c #606060",
"m 	c #131376",
"n 	c #121275",
"o 	c #525268",
"p 	c #C7C784",
"q 	c #C8C88C",
"r 	c #0A0A79",
"s 	c #36366E",
"t 	c #ABAB6A",
"u 	c #F1F2C0",
"v 	c #D2D37B",
"w 	c #4E4E69",
"x 	c #0A0A7A",
"y 	c #121276",
"z 	c #68685C",
"A 	c #BDBD73",
"B 	c #F4F4D1",
"C 	c #E8EABC",
"D 	c #717366",
"E 	c #21226F",
"F 	c #95956B",
"G 	c #EBEBB7",
"H 	c #EAEBBB",
"I 	c #898B6E",
"J 	c #151575",
"K 	c #EBEBBA",
"L 	c #717165",
"M 	c #141575",
"N 	c #34346E",
"O 	c #AAAA6A",
"P 	c #FCF9DB",
"Q 	c #F8F1BC",
"R 	c #F8F0B8",
"S 	c #8B8B6E",
"T 	c #141476",
"U 	c #202071",
"V 	c #ADAD77",
"W 	c #F1E379",
"X 	c #F9F3B7",
"Y 	c #D7B043",
"Z 	c #B36A14",
"` 	c #B0630F",
" .	c #D6B043",
"..	c #F5ED9E",
"+.	c #FEFDEF",
"@.	c #707066",
"#.	c #FBFBE4",
"$.	c #FAF6CE",
"%.	c #E6CF6B",
"&.	c #CF9F25",
"*.	c #B16915",
"=.	c #892409",
"-.	c #701117",
";.	c #51022E",
">.	c #4E0031",
",.	c #4E0030",
"'.	c #5F0220",
").	c #7E1209",
"!.	c #A44E0D",
"~.	c #CE9E2A",
"{.	c #F9F3BA",
"].	c #1F1F71",
"^.	c #F4F4D2",
"/.	c #FDFBDF",
"(.	c #EEDD75",
"_.	c #C89430",
":.	c #9A420F",
"<.	c #7B130E",
"[.	c #5C0926",
"}.	c #390447",
"|.	c #3A1951",
"1.	c #261C67",
"2.	c #241D6A",
"3.	c #241D69",
"4.	c #341C59",
"5.	c #4F193C",
"6.	c #75090E",
"7.	c #902503",
"8.	c #E9D466",
"9.	c #CECE76",
"0.	c #414166",
"a.	c #919156",
"b.	c #FBFBE1",
"c.	c #FAF6CF",
"d.	c #C69122",
"e.	c #7C291A",
"f.	c #550B2E",
"g.	c #3B0647",
"h.	c #291762",
"i.	c #625956",
"j.	c #72715D",
"k.	c #D3D373",
"l.	c #E1E180",
"m.	c #E2E280",
"n.	c #D4D370",
"o.	c #714A3C",
"p.	c #6B0917",
"q.	c #B36C19",
"r.	c #F6EDAD",
"s.	c #9F9F37",
"t.	c #424267",
"u.	c #CECE81",
"v.	c #F5EBB1",
"w.	c #C99538",
"x.	c #99420F",
"y.	c #731115",
"z.	c #2A0355",
"A.	c #1B126C",
"B.	c #524E5E",
"C.	c #9D9D59",
"D.	c #E6E6A3",
"E.	c #FDFDEE",
"F.	c #99944B",
"G.	c #370E4E",
"H.	c #8D2E0E",
"I.	c #DCBB3D",
"J.	c #9B9B31",
"K.	c #0F0F77",
"L.	c #B67021",
"M.	c #7E120A",
"N.	c #3F0641",
"O.	c #271763",
"P.	c #62605E",
"Q.	c #93944F",
"R.	c #1F0E65",
"S.	c #CE9F09",
"T.	c #C48B36",
"U.	c #490436",
"V.	c #534A5B",
"W.	c #9E9D59",
"X.	c #DEDE9C",
"Y.	c #534A5A",
"Z.	c #3D0643",
"`.	c #934115",
" +	c #E5CE60",
".+	c #CD9D2A",
"++	c #841707",
"@+	c #430A40",
"#+	c #574E5F",
"$+	c #C9C88C",
"%+	c #45043B",
"&+	c #601229",
"*+	c #A6955B",
"=+	c #F7F6D3",
"-+	c #A44D0D",
";+	c #6C0614",
">+	c #514156",
",+	c #C8C783",
"'+	c #E3D46D",
")+	c #604E57",
"!+	c #420A42",
"~+	c #8B704B",
"{+	c #ECEBB9",
"]+	c #F0E272",
"^+	c #861D06",
"/+	c #3C0042",
"(+	c #605E5B",
"_+	c #EBEBAF",
":+	c #F8F2BF",
"<+	c #F2E697",
"[+	c #B87321",
"}+	c #8C2104",
"|+	c #5E0421",
"1+	c #551233",
"2+	c #9B8B5E",
"3+	c #FBFBDE",
"4+	c #F2E57F",
"5+	c #912B07",
"6+	c #5A0224",
"7+	c #432D58",
"8+	c #B8AA58",
"9+	c #F0E172",
"0+	c #E9D35F",
"a+	c #B77119",
"b+	c #A9590F",
"c+	c #7B120E",
"d+	c #6A0115",
"e+	c #3A124E",
"f+	c #79705D",
"g+	c #1F1F70",
"h+	c #CFCF82",
"i+	c #D9B343",
"j+	c #B16907",
"k+	c #94430B",
"l+	c #8B2406",
"m+	c #902501",
"n+	c #8D1D01",
"o+	c #8C1D01",
"p+	c #891C03",
"q+	c #7F190C",
"r+	c #54032C",
"s+	c #480237",
"t+	c #271161",
"u+	c #4E425A",
"v+	c #979569",
"w+	c #727265",
"x+	c #22226F",
"y+	c #151574",
"z+	c #DEDB43",
"A+	c #DAD213",
"B+	c #C9B10E",
"C+	c #B2820E",
"D+	c #974C0E",
"E+	c #74070E",
"F+	c #70000E",
"G+	c #580026",
"H+	c #30004E",
"I+	c #170B6D",
"J+	c #302967",
"K+	c #929155",
"L+	c #6C6C5A",
"M+	c #2D2D68",
"N+	c #0C0C78",
"O+	c #1A1A71",
"P+	c #1D1D71",
"Q+	c #1D1D70",
"R+	c #161170",
"S+	c #0F0270",
"T+	c #0E0070",
"U+	c #13056D",
"V+	c #1C0D69",
"W+	c #382F64",
"X+	c #5F5E5C",
"Y+	c #DDDD85",
"Z+	c #ECEC7C",
"`+	c #ADAD49",
" @	c #2B2B6C",
".@	c #4D4D62",
"+@	c #BCBC6E",
"@@	c #EBEBB1",
"#@	c #E5E58B",
"                                                                ",
"                                                                ",
"                                    . + @ @ @ # $               ",
"                                % & * = - - - ; > ,             ",
"                            ' ) ! ~ { ] ^ / ( _ : <             ",
"                        [ } | 1 2 3 4 5 6 7 @ 8 9               ",
"                    0 a b c d e f g h i                         ",
"                $ j k l m n o p + .                             ",
"              i q o n r s t j $                                 ",
"            u v w x y z A B                                     ",
"          C D E d e F G                                         ",
"        H I J ^ o p +                                           ",
"      K L M N O j                           P Q R R Q P         ",
"    K S T U V B                       W X W Y Z ` ` Z  ...+.    ",
"  K @.m N V #.                  . $.%.&.*.=.-.;.>.,.'.).!.~.{.  ",
"+ F m ].V ^.                  /.(._.:.<.[.}.|.1.2.3.4.5.6.7.8.+.",
"9.0.y a.b.                c.%.d.e.f.g.h.i.j.k.l.m.m.l.n.o.p.q.r.",
"s.^ t.u.                v.w.x.y.z.A.B.C.D.# i         E.F.G.H.I.",
"J.K.- @               v.L.M.N.O.P.k h i               i Q.R.<.S.",
"J.K.- @             v.T.M.U.V.W.a 0                 $ X.Y.Z.`. +",
"J.K.- @           +..+++@+#+X.i                   i $+#+%+&+*+=+",
"J.K.- @           ..-+;+>+,+$                   {.'+)+!+&+~+{+  ",
"s.^ t.u.          ]+^+/+(+_+              +.:+<+[+}+|+1+2+{+    ",
"9.0.y a.3+        4+5+6+7+8+9+]+]+]+]+]+9+0+a+b+c+d+e+f+{+      ",
"+ F m g+a.h++       i+j+k+l+m+n+o+o+o+o+p+q+r+s+t+u+v+K         ",
"  K w+x+y+/ f * m.m.z+A+B+C+D+E+F+F+F+F+G+H+I+J+K+7 +           ",
"    [ } L+M+N+O+P+P+Q+3 3 3 R+S+T+T+U+V+W+X+= Y+b.              ",
"      i Z+`+ @Q+P+P+P+P+P+P+P+P+P+Q+.@5 +@@@+                   ",
"          b.#@l.m.m.m.m.m.m.m.m.m.l.h i                         ",
"                                                                ",
"                                                                ",
"                                                                "};
