/* XPM */
static char * Copasi32_Alpha_xpm[] = {
"32 32 421 2",
"  	c None",
". 	c #F9F9FB",
"+ 	c #EDEDF7",
"@ 	c #D0D0EC",
"# 	c #B6B4E2",
"$ 	c #A09FD9",
"% 	c #AAA8DC",
"& 	c #E8E8F5",
"* 	c #F8F8FB",
"= 	c #E6E6F4",
"- 	c #B6B5E2",
"; 	c #807ECD",
"> 	c #403AB7",
", 	c #1A13AD",
"' 	c #1008AB",
") 	c #0D04AA",
"! 	c #1109AA",
"~ 	c #6B67C5",
"{ 	c #F6F6FA",
"] 	c #F7F7FA",
"^ 	c #CFCEEB",
"/ 	c #6D69C8",
"( 	c #3029B3",
"_ 	c #130BAB",
": 	c #211AAC",
"< 	c #352FB5",
"[ 	c #3E39B9",
"} 	c #504CBE",
"| 	c #726FC9",
"1 	c #B6B5E1",
"2 	c #FCFCFD",
"3 	c #E5E5F3",
"4 	c #8B89CF",
"5 	c #2A23AD",
"6 	c #0B03A8",
"7 	c #130BAD",
"8 	c #3E38B9",
"9 	c #9A98D7",
"0 	c #D7D7EE",
"a 	c #F0F0F8",
"b 	c #F4F4F9",
"c 	c #FDFDFD",
"d 	c #C4C3E7",
"e 	c #433DB8",
"f 	c #1008A5",
"g 	c #0F07A9",
"h 	c #403AB9",
"i 	c #AAA8DE",
"j 	c #EEEEF7",
"k 	c #F2F2F8",
"l 	c #A19FDB",
"m 	c #2821B2",
"n 	c #0B03AA",
"o 	c #1F18B0",
"p 	c #7F7CCE",
"q 	c #E9E9F5",
"r 	c #FAFAFB",
"s 	c #DEDDF1",
"t 	c #6864C5",
"u 	c #170FAC",
"v 	c #0C03AB",
"w 	c #3933B7",
"x 	c #BBBAE3",
"y 	c #FAFAFC",
"z 	c #CFCFEB",
"A 	c #453FBB",
"B 	c #0D05AA",
"C 	c #0D04AC",
"D 	c #4F4ABF",
"E 	c #F5F5F9",
"F 	c #B3B1E1",
"G 	c #322CB4",
"H 	c #0B02AA",
"I 	c #140CAF",
"J 	c #6763C8",
"K 	c #9593D4",
"L 	c #1D16AF",
"M 	c #0B02AB",
"N 	c #2019B2",
"O 	c #8F8CD5",
"P 	c #F5F5FA",
"Q 	c #9695CA",
"R 	c #18138A",
"S 	c #0B039F",
"T 	c #3F39BB",
"U 	c #C3C2E7",
"V 	c #FBFBFC",
"W 	c #ACAADB",
"X 	c #1A1494",
"Y 	c #080376",
"Z 	c #4F4CA2",
"` 	c #DEDEF1",
" .	c #FCFAF8",
"..	c #FCFBF9",
"+.	c #FDFBF9",
"@.	c #FDFBFA",
"#.	c #DDDDF0",
"$.	c #312BAA",
"%.	c #0A0298",
"&.	c #413DA6",
"*.	c #E2E2F0",
"=.	c #FCFAF9",
"-.	c #FCF9F6",
";.	c #F9EBE0",
">.	c #F7DFC9",
",.	c #F5D0AD",
"'.	c #F3C28C",
").	c #F4C07E",
"!.	c #F5C17C",
"~.	c #F6CE98",
"{.	c #FBEFDF",
"].	c #F3F3F8",
"^.	c #7673C2",
"/.	c #0E06A1",
"(.	c #251FA7",
"_.	c #C3C2E5",
":.	c #FCFCFC",
"<.	c #FCF9F7",
"[.	c #F5DFD2",
"}.	c #E9AA88",
"|.	c #E48243",
"1.	c #DB5E1B",
"2.	c #D54B0B",
"3.	c #CE4405",
"4.	c #C44001",
"5.	c #A43C01",
"6.	c #A24001",
"7.	c #B64803",
"8.	c #E1802A",
"9.	c #F9E3CA",
"0.	c #FDFBF8",
"a.	c #B0AFD0",
"b.	c #120D74",
"c.	c #0F098B",
"d.	c #9491D4",
"e.	c #F2D4C4",
"f.	c #E28C63",
"g.	c #D14916",
"h.	c #CB3202",
"i.	c #C12B00",
"j.	c #A72300",
"k.	c #871801",
"l.	c #641202",
"m.	c #551306",
"n.	c #47140E",
"o.	c #44120E",
"p.	c #480C05",
"q.	c #701B00",
"r.	c #CF742E",
"s.	c #FBEDDA",
"t.	c #F0F0F7",
"u.	c #454290",
"v.	c #060165",
"w.	c #514DA9",
"x.	c #EFEFF7",
"y.	c #F9E7D6",
"z.	c #E69366",
"A.	c #CF4210",
"B.	c #CA2F00",
"C.	c #BA2500",
"D.	c #8E1903",
"E.	c #55101A",
"F.	c #482241",
"G.	c #7D6374",
"H.	c #9B8892",
"I.	c #C6B8B7",
"J.	c #D8D0D2",
"K.	c #CFB6AC",
"L.	c #AA4B1A",
"M.	c #6F1C00",
"N.	c #792501",
"O.	c #E9B078",
"P.	c #C0BFDA",
"Q.	c #130D7B",
"R.	c #1E1985",
"S.	c #C7C6E3",
"T.	c #FCF9F5",
"U.	c #F5CB9E",
"V.	c #E26E1F",
"W.	c #D44201",
"X.	c #BE2900",
"Y.	c #8B1904",
"Z.	c #591A23",
"`.	c #694E6E",
" +	c #A49EBD",
".+	c #D9D8E9",
"++	c #FCFBFB",
"@+	c #F7DEC5",
"#+	c #CA8249",
"$+	c #611C01",
"%+	c #B56D37",
"&+	c #FBF8F5",
"*+	c #8981A3",
"=+	c #140750",
"-+	c #7672AF",
";+	c #F9F3ED",
">+	c #F3B775",
",+	c #E2670C",
"'+	c #D34300",
")+	c #A22102",
"!+	c #62191A",
"~+	c #765C79",
"{+	c #C8C3D4",
"]+	c #F6F6F9",
"^+	c #CC9F7D",
"/+	c #6D2401",
"(+	c #824F38",
"_+	c #F9F7F6",
":+	c #5A4C75",
"<+	c #1F0D48",
"[+	c #C2BFD5",
"}+	c #FAF7F6",
"|+	c #E6AF7B",
"1+	c #DC6406",
"2+	c #CE4300",
"3+	c #941E10",
"4+	c #522C56",
"5+	c #B3ABC1",
"6+	c #EDEDF5",
"7+	c #E7E4E9",
"8+	c #6B3E36",
"9+	c #511401",
"0+	c #694B59",
"a+	c #F8F8FA",
"b+	c #523B5B",
"c+	c #31173E",
"d+	c #DEDDE8",
"e+	c #F4D4AE",
"f+	c #D66613",
"g+	c #CE4602",
"h+	c #973113",
"i+	c #4D2E68",
"j+	c #C5C3E0",
"k+	c #EAE9F1",
"l+	c #786278",
"m+	c #35080F",
"n+	c #390804",
"o+	c #927E8C",
"p+	c #FCFBFC",
"q+	c #564977",
"r+	c #230D3C",
"s+	c #CFCDDD",
"t+	c #FCF7F0",
"u+	c #F29D3B",
"v+	c #D95A00",
"w+	c #962B1D",
"x+	c #3D227A",
"y+	c #B2B0D3",
"z+	c #EBEAF0",
"A+	c #746587",
"B+	c #2C0822",
"C+	c #350606",
"D+	c #4C2222",
"E+	c #D9D3D8",
"F+	c #7975A1",
"G+	c #0D034A",
"H+	c #9C99C1",
"I+	c #FBE7CB",
"J+	c #F28C0F",
"K+	c #C54F07",
"L+	c #3B0E6B",
"M+	c #706BC7",
"N+	c #F6F5F7",
"O+	c #F0EAE7",
"P+	c #775E6E",
"Q+	c #2E081D",
"R+	c #32060A",
"S+	c #3E0F0B",
"T+	c #A9989D",
"U+	c #AFAECA",
"V+	c #11064B",
"W+	c #554E8C",
"X+	c #F7F7F9",
"Y+	c #FAE1BB",
"Z+	c #F38E07",
"`+	c #A4440E",
" @	c #180A61",
".@	c #B9B8DB",
"+@	c #F5F5F8",
"@@	c #F8F7F7",
"#@	c #F7F5F3",
"$@	c #D3BDB0",
"%@	c #935736",
"&@	c #531604",
"*@	c #460A02",
"=@	c #3F0C0A",
"-@	c #88717B",
";@	c #F7F6F7",
">@	c #EAEAF1",
",@	c #362962",
"'@	c #230F42",
")@	c #C2C0DB",
"!@	c #F7E5CA",
"~@	c #F5930D",
"{@	c #B84903",
"]@	c #34081A",
"^@	c #867181",
"/@	c #F4F0EF",
"(@	c #F9F6F5",
"_@	c #FBFAF8",
":@	c #F9F6F3",
"<@	c #F9F5F0",
"[@	c #F9F3EB",
"}@	c #EDE5E0",
"|@	c #C2AFA5",
"1@	c #835B46",
"2@	c #57210C",
"3@	c #561400",
"4@	c #5E1100",
"5@	c #470D12",
"6@	c #73607D",
"7@	c #F0EFF3",
"8@	c #8F8EB8",
"9@	c #090457",
"0@	c #45419A",
"a@	c #E5E5F0",
"b@	c #FBF6F0",
"c@	c #F4AB40",
"d@	c #E46C01",
"e@	c #801A00",
"f@	c #45100D",
"g@	c #8E5232",
"h@	c #D08440",
"i@	c #E69B4B",
"j@	c #E69742",
"k@	c #DE8733",
"l@	c #C77127",
"m@	c #854219",
"n@	c #4E1606",
"o@	c #541000",
"p@	c #6A1200",
"q@	c #5E0F06",
"r@	c #3A0E30",
"s@	c #6C608E",
"t@	c #ECECF3",
"u@	c #44428A",
"v@	c #0C034D",
"w@	c #413571",
"x@	c #B3B1D9",
"y@	c #F8E9D3",
"z@	c #F1A441",
"A@	c #DB6006",
"B@	c #A83400",
"C@	c #751F00",
"D@	c #6D1B00",
"E@	c #7D2300",
"F@	c #822700",
"G@	c #802500",
"H@	c #781F00",
"I@	c #7A1800",
"J@	c #851700",
"K@	c #7D1504",
"L@	c #4E0E1D",
"M@	c #462E62",
"N@	c #9F9BC8",
"O@	c #D5D5E7",
"P@	c #373381",
"Q@	c #080157",
"R@	c #150E8D",
"S@	c #5E5BB9",
"T@	c #A19FD6",
"U@	c #D4D4EB",
"V@	c #E8E8F3",
"W@	c #EEE9EA",
"X@	c #E3C09C",
"Y@	c #DC9B5C",
"Z@	c #C77333",
"`@	c #A74720",
" #	c #96351D",
".#	c #933C22",
"+#	c #85382D",
"@#	c #762F30",
"##	c #581329",
"$#	c #380926",
"%#	c #372051",
"&#	c #8781B3",
"*#	c #E4E4EF",
"=#	c #DDDDED",
"-#	c #6866A8",
";#	c #15116D",
">#	c #06016B",
",#	c #0B0486",
"'#	c #181385",
")#	c #25217E",
"!#	c #2F2A93",
"~#	c #332F93",
"{#	c #332C9F",
"]#	c #231895",
"^#	c #1A0C88",
"/#	c #170882",
"(#	c #13076C",
"_#	c #0D046B",
":#	c #0D0762",
"<#	c #221E74",
"[#	c #62609C",
"}#	c #CECEE1",
"|#	c #C3C2DF",
"1#	c #6A68B0",
"2#	c #2F2D82",
"3#	c #130F62",
"4#	c #16053E",
"5#	c #0D0250",
"6#	c #060256",
"7#	c #08035F",
"8#	c #090565",
"9#	c #0C0965",
"0#	c #130E7C",
"a#	c #363381",
"b#	c #7271A8",
"c#	c #ACABCD",
"d#	c #DEDEED",
"e#	c #EEEEF5",
"f#	c #CECEE3",
"g#	c #ACA9CA",
"h#	c #9795BC",
"i#	c #9595BF",
"j#	c #A2A1C6",
"k#	c #B0B0CF",
"l#	c #C1C1DA",
"m#	c #CBCBE5",
"n#	c #EEEEF6",
"                                              .                 ",
"                                      . + @ # $ % &             ",
"                                * = - ; > , ' ) ! ~ {           ",
"                            ] ^ / ( _ ! : < [ } | 1 2           ",
"                        . 3 4 5 6 7 8 9 0 a b . c               ",
"                      * d e f g h i j c                         ",
"                    k l m n o p q c                             ",
"                r s t u v w x y                                 ",
"              . z A B C D 0 c                                   ",
"            E F G H I J 3 c                                     ",
"          E K L M N O P                                         ",
"        ] Q R S T U V                                           ",
"      V W X Y Z ` c                            ...+.@...        ",
"      #.$.%.&.*.c                     =.-.;.>.,.'.).!.~.{.+.    ",
"    ].^./.(._.:.                  <.[.}.|.1.2.3.4.5.6.7.8.9.0.  ",
"  c a.b.c.d.V                 -.e.f.g.h.i.j.k.l.m.n.o.p.q.r.s.  ",
"  t.u.v.w.x.              ..y.z.A.B.C.D.E.F.G.H.I.J.K.L.M.N.O.+.",
"  P.Q.R.S.c             T.U.V.W.X.Y.Z.`. +.+V c     ++@+#+$+%+&+",
"c *+=+-+.             ;+>+,+'+)+!+~+{+]+c             :.^+/+(+_+",
":.:+<+[+            }+|+1+2+3+4+5+6+c                 7+8+9+0+a+",
"r b+c+d+          c e+f+g+h+i+j+c                   k+l+m+n+o+r ",
"p+q+r+s+          t+u+v+w+x+y+c                   z+A+B+C+D+E+  ",
"c F+G+H+.         I+J+K+L+M+E                 N+O+P+Q+R+S+T+:.  ",
"  U+V+W+X+        Y+Z+`+ @.@+@            @@#@$@%@&@*@=@-@;@    ",
"  >@,@'@)@*       !@~@{@]@^@/@(@_@:@<@[@}@|@1@2@3@4@5@6@7@      ",
"  c 8@9@0@a@.     b@c@d@e@f@g@h@i@j@k@l@m@n@o@p@q@r@s@>@        ",
"    t@u@v@w@x@* . r y@z@A@B@C@D@E@F@G@H@I@J@K@L@M@N@].          ",
"      O@P@Q@R@S@T@U@V@W@X@Y@Z@`@ #.#+#@###$#%#&#*#c             ",
"      c =#-#;#>#,#'#)#!#~#{#]#^#/#(#_#:#<#[#}#:.                ",
"          . |#1#2#3#4#5#6#7#8#9#0#a#b#c#d#y                     ",
"              2 e#f#g#h#i#j#k#l#m#n#c c                         ",
"                    V c c :.                                    "};
