/* XPM */
static const char *editIcon[] = {
/* columns rows colors chars-per-pixel */
"16 16 65 1",
"  c #00009D9DFFFF",
". c #3B3B9696DBDB",
"X c #A5A5D7D7F4F4",
"o c #CACA27270000",
"O c #000037379D9D",
"+ c #1C1C6F6FCECE",
"@ c #D6D6FAFAFFFF",
"# c #7575BCBCEEEE",
"$ c #0C0C9999F9F9",
"% c #2A2A35354242",
"& c #FFFFCBCB5252",
"* c #FFFF36360000",
"= c #5D5D3A3A0000",
"- c #7676BCBCEEEE",
"; c #93935F5F0000",
": c #00009B9BFFFF",
"> c #FFFFECECB3B3",
", c #66666565CCCC",
"< c #0B0B9999F9F9",
"1 c #00003434A1A1",
"2 c #97979797FFFF",
"3 c #FFFFFFFFF9F9",
"4 c #FFFFFAFAE7E7",
"5 c #FFFFF3F3CDCD",
"6 c #D1D1FAFAFFFF",
"7 c #31319494E2E2",
"8 c #A5A5D7D7F5F5",
"9 c #1D1D6F6FCECE",
"0 c #CCCCCCCCFFFF",
"q c #D2D2F8F8FFFF",
"w c #1D1D6F6FD7D7",
"e c #FFFFEBEBA4A4",
"r c #1C1C6F6FD1D1",
"t c #FFFFCCCCFFFF",
"y c #939300000000",
"u c gray100",
"i c black",
"p c black",
"a c black",
"s c black",
"d c black",
"f c black",
"g c black",
"h c black",
"j c black",
"k c black",
"l c black",
"z c black",
"x c black",
"c c black",
"v c black",
"b c black",
"n c black",
"m c black",
"M c black",
"N c black",
"B c black",
"V c black",
"C c black",
"Z c black",
"A c black",
"S c black",
"D c black",
"F c black",
"G c None",
/* pixels */
"GGGGGGGGGGGoooGG",
"GGGGGGGGGG90*toG",
"GGGGGGGGG9X,0**o",
"GGGGGGGG+Xq#,2*o",
"GGGGGGG+X@#.<,2y",
"GGGGGG+X@-.<: 1G",
"GGGGG+X@-.$  1GG",
"GGGG+X@-.$  OGGG",
"GGGr8@-.$  OGGGG",
"GGw86#.$  OGGGGG",
"G;&6#7<  OGGGGGG",
"G;3&7:: OGGGGGGG",
";345&: OGGGGGGGG",
";45>e&1GGGGGGGGG",
"%%>>==GGGGGGGGGG",
"%%==GGGGGGGGGGGG"
};
