/* XPM */
static const char *photo[] = {
/* columns rows colors chars-per-pixel */
"16 16 256 2",
"   c #E6EBF2",
".  c gray100",
"X  c #5F6872",
"o  c #7F8C98",
"O  c #202C36",
"+  c #84909C",
"@  c #323D48",
"#  c #A2ABB5",
"$  c #CACED1",
"%  c #464F59",
"&  c #84919E",
"*  c #2D3945",
"=  c #2A3641",
"-  c #2A3540",
";  c #35404B",
":  c #85919E",
">  c #2E3944",
",  c #3B4047",
"<  c #8894A0",
"1  c #85878D",
"2  c #C9D1DA",
"3  c #646D77",
"4  c #F1F2F3",
"5  c #BBC5CF",
"6  c #AAB2C6",
"7  c #7273A4",
"8  c #67C0F3",
"9  c #76828C",
"0  c #74808A",
"q  c #616971",
"w  c #A0A5AA",
"e  c #99A3B3",
"r  c #838F9B",
"t  c #8A97A1",
"y  c #525C67",
"u  c #2B3642",
"i  c #F1F3F4",
"p  c #A9B3BC",
"a  c #5C636C",
"s  c #C9D3DD",
"d  c #57636E",
"f  c #ABB3C7",
"g  c #6E7782",
"h  c #9AA4B4",
"j  c #717881",
"k  c #E5E9EB",
"l  c #51A3F2",
"z  c #42AFFF",
"x  c #5E6772",
"c  c #E6E9EB",
"v  c #A7B1BB",
"b  c #EAF2F8",
"n  c #6D747B",
"m  c #68727D",
"M  c #656F7A",
"N  c #737D88",
"B  c #939CA6",
"V  c #69727C",
"C  c #1A87E5",
"Z  c #D5D9DF",
"A  c #A9A9AE",
"S  c #DEE7EF",
"D  c #6A7480",
"F  c #A4ADB7",
"G  c #626C77",
"H  c #6B7782",
"J  c #8C98A5",
"K  c #73BDFD",
"L  c #B5BEC5",
"P  c #A3ACB5",
"I  c #E2E9F1",
"U  c #97A0AA",
"Y  c #6D767F",
"T  c #ACB7C0",
"R  c #DADFE3",
"E  c #7C8EA1",
"W  c #68839E",
"Q  c #CDD7E1",
"!  c #BCC1C7",
"~  c #86929F",
"^  c #84888F",
"/  c #9DA2A7",
"(  c #A1A6AB",
")  c #606A73",
"_  c #858E98",
"`  c #A4A5A9",
"'  c #A2ABB4",
"]  c #ADB6BF",
"[  c #83BFF7",
"{  c #8D9BA5",
"}  c #1488E6",
"|  c #87CFFF",
" . c #98CAFE",
".. c #BDC7CF",
"X. c #B8C2CC",
"o. c #8B98A1",
"O. c #D6DBE0",
"+. c #DFE5ED",
"@. c #686C74",
"#. c #C3CFDA",
"$. c #6E7985",
"%. c #FEFEFE",
"&. c #6C7279",
"*. c #63BAFF",
"=. c #DAE2EA",
"-. c #646D76",
";. c #848D98",
":. c #BAC4CE",
">. c #87939F",
",. c #505964",
"<. c #D9FBFF",
"1. c #73CFFF",
"2. c #577491",
"3. c #7274A4",
"4. c #7879A9",
"5. c #676C74",
"6. c #FEFFFF",
"7. c #626B74",
"8. c #E0E3E6",
"9. c #85919D",
"0. c #E1E4E8",
"q. c #DEFFFF",
"w. c #B7C0C7",
"e. c #CAD1DA",
"r. c #818E9B",
"t. c #727C86",
"y. c #7D8A94",
"u. c #7A858F",
"i. c #9EA8B9",
"p. c #DBE0E4",
"a. c #BABFC5",
"s. c #A6AAB0",
"d. c #26313B",
"f. c #B0B7CC",
"g. c #E9F0F7",
"h. c None",
"j. c black",
"k. c black",
"l. c black",
"z. c black",
"x. c black",
"c. c black",
"v. c black",
"b. c black",
"n. c black",
"m. c black",
"M. c black",
"N. c black",
"B. c black",
"V. c black",
"C. c black",
"Z. c black",
"A. c black",
"S. c black",
"D. c black",
"F. c black",
"G. c black",
"H. c black",
"J. c black",
"K. c black",
"L. c black",
"P. c black",
"I. c black",
"U. c black",
"Y. c black",
"T. c black",
"R. c black",
"E. c black",
"W. c black",
"Q. c black",
"!. c black",
"~. c black",
"^. c black",
"/. c black",
"(. c black",
"). c black",
"_. c black",
"`. c black",
"'. c black",
"]. c black",
"[. c black",
"{. c black",
"}. c black",
"|. c black",
" X c black",
".X c black",
"XX c black",
"oX c black",
"OX c black",
"+X c black",
"@X c black",
"#X c black",
"$X c black",
"%X c black",
"&X c black",
"*X c black",
"=X c black",
"-X c black",
";X c black",
":X c black",
">X c black",
",X c black",
"<X c black",
"1X c black",
"2X c black",
"3X c black",
"4X c black",
"5X c black",
"6X c black",
"7X c black",
"8X c black",
"9X c black",
"0X c black",
"qX c black",
"wX c black",
"eX c black",
"rX c black",
"tX c black",
"yX c black",
"uX c black",
"iX c black",
"pX c black",
"aX c black",
"sX c black",
"dX c black",
"fX c black",
"gX c black",
"hX c black",
"jX c black",
"kX c black",
"lX c black",
"zX c black",
"xX c black",
"cX c black",
"vX c black",
"bX c black",
"nX c black",
"mX c black",
"MX c black",
"NX c black",
"BX c black",
"VX c black",
"CX c black",
"ZX c black",
"AX c black",
"SX c black",
"DX c black",
"FX c black",
"GX c black",
"HX c black",
"JX c black",
"KX c black",
"LX c black",
"PX c black",
"IX c black",
"UX c black",
/* pixels */
"h.h.h.h.h.h.h.h.h.h.h.h.h.h.h.h.",
"h.h.h.h.+ r + h.h.h.h.h.h.h.h.h.",
"h.h.: r.:.X.5 9.< < >.: & & ~ h.",
"h.J                           o ",
"h.d.O d g...v c . . k ] # ' F o ",
"X f.4.O e.# %./ , , w 6.P 2 . o ",
"X e t y.U 0.Y W } C 2.j 8.B . o ",
"X 6 7 O 9 p.n [ | z l &.R 0 . o ",
"X h o.u.D O.^ K *.<.1.1 Z m . t.",
"X f 3.O $.! s.E  .q.8 A a.H . g ",
"X i.{ N T ) i ( 5.@.` 4 x p . V ",
"h.q a O I ;.y $ . . $ ,._ +.. 3 ",
"h.-.#.Q =.b L M * * G w.S s . 7.",
"h.h.% - = = > @ ; ; @ > u - % h.",
"h.h.h.h.h.h.h.h.h.h.h.h.h.h.h.h.",
"h.h.h.h.h.h.h.h.h.h.h.h.h.h.h.h."
};
