/* XPM */
static const char *saveIcon[] = {
/* columns rows colors chars-per-pixel */
"16 16 128 2",
"   c gray100",
".  c #DCFFFF",
"X  c #DF78FF",
"o  c #0062C9",
"O  c #C8C8FF",
"+  c #EDF2F4",
"@  c #F5F2F3",
"#  c #FBFBFB",
"$  c #C8C7FF",
"%  c #F5F8F7",
"&  c #0090FB",
"*  c #00228E",
"=  c #005FCA",
"-  c #0060C9",
";  c #0064CA",
":  c #3EB4FF",
">  c #0062CA",
",  c #31AFFF",
"<  c #002A93",
"1  c #D6D9FA",
"2  c #008EF9",
"3  c #0065CC",
"4  c #EBF1F3",
"5  c #C6C6FF",
"6  c #AAD6FF",
"7  c #002994",
"8  c #005FC7",
"9  c #B7EDFF",
"0  c #0064CB",
"q  c #C5C5FF",
"w  c #0065CB",
"e  c #002F96",
"r  c #0066CD",
"t  c #12A1FF",
"y  c #F4F7F7",
"u  c #F3FFFF",
"i  c #E979FF",
"p  c #0063C9",
"a  c #FAFBFA",
"s  c #F4F1F2",
"d  c #029DFF",
"f  c #0145AA",
"g  c #004CB2",
"h  c #0060C8",
"j  c #002C94",
"k  c #D6D0FF",
"l  c #B0DEFF",
"z  c #0B7CDE",
"x  c #0075DE",
"c  c #E0DEFC",
"v  c #0075E4",
"b  c #0063CA",
"n  c #FEF6FF",
"m  c #0067CF",
"M  c #0065CF",
"N  c #007BE7",
"B  c #24AAFF",
"V  c #3CB3FF",
"C  c #6DCCFF",
"Z  c #E7E6F9",
"A  c #006AD3",
"S  c #0081E9",
"D  c #E4E3FF",
"F  c #002A94",
"G  c #1D75D4",
"H  c #0092FA",
"J  c #46B9FF",
"K  c #0061C9",
"L  c #1F81DA",
"P  c #DBDFF7",
"I  c #0068CE",
"U  c #EEF0FA",
"Y  c #0066CC",
"T  c #00218C",
"R  c #AAD7FF",
"E  c #002E94",
"W  c #002E95",
"Q  c #0066D1",
"!  c #0067D3",
"~  c #0089F1",
"^  c #0062CD",
"/  c #E7E9FC",
"(  c #008AF6",
")  c #001F8B",
"_  c #001A8B",
"`  c #0446A9",
"'  c #3FB6FF",
"]  c #CECFFD",
"[  c #008DF9",
"{  c #F1E9FF",
"}  c #33AFFF",
"|  c #14A6FF",
" . c #E7E0FF",
".. c #0089F0",
"X. c #00218D",
"o. c #EEEEF7",
"O. c #0064CC",
"+. c #FEFEF8",
"@. c #002B94",
"#. c #00258F",
"$. c #001888",
"%. c #0072DB",
"&. c #ACD7FF",
"*. c #D1D2FD",
"=. c #0094FF",
"-. c #0052BD",
";. c #0149AD",
":. c #E2DDFF",
">. c #12A0FF",
",. c #0074E0",
"<. c #E0DAFF",
"1. c #007AE3",
"2. c #DBD6FF",
"3. c #81B9F4",
"4. c #33B4FF",
"5. c #006DD8",
"6. c #001988",
"7. c #079CFF",
"8. c #12A2FF",
"9. c None",
"0. c black",
"q. c black",
"w. c black",
"e. c black",
"r. c black",
"t. c black",
"y. c black",
"u. c black",
/* pixels */
"3 8 i X X X X X X X X X X i 8 3 ",
"> 9 u . . . . . . . . . . u 9 > ",
"r 6.  a # # # # # # # # a   $.r ",
"b 4.  q $ $ $ $ $ $ $ $ q   C > ",
"o ,   y % % % % % % % % y   J K ",
"o ,   5 O O O O O O O O 5   B o ",
"o ,   4 + + + + + + + + 4   d p ",
"o }   s @ @ @ @ @ @ @ @ s   =.p ",
"o V 7.( 2 & & & & & & 2 [ G H ; ",
"o : >...-.T * * * * X.0 h 3.~ ; ",
"o : t N               = - &.S ; ",
"o : t ,.  _ v :.O ] c = - 6 1.w ",
"0 ' 8.5.  #.x k *.1 Z = - 6 %.w ",
"f L | Q n ) ! 2.1 P o.= - R A Y ",
"9.` z M { <. .D / U +.^ O.l m I ",
"9.9.;.W @.< < < 7 7 F e e j E g "
};
