/* XPM */
static const char * toggleSliderDialog[] = {
"16 16 5 1",
" 	c None",
".	c #8080EA",
"+	c #5B5EAD",
"@	c #000000",
"#	c #474747",
"                ",
"                ",
"                ",
"                ",
"     .+.        ",
"     +@+        ",
"     +@+        ",
" #  #+@+  #  #  ",
" #  #+@+  #  #  ",
"@@@@@+@+@@@@@@@@",
"     +@+        ",
"     +@+        ",
"     .+.        ",
"                ",
"                ",
"                "};
