/* XPM */
static const char * stois_xpm[] = {
"16 16 30 1",
" 	c None",
".	c #D9BF9D",
"+	c #402E21",
"@	c #070404",
"#	c #0C141F",
"$	c #435872",
"%	c #2E0C06",
"&	c #86B2D2",
"*	c #A7864E",
"=	c #3A0E07",
"-	c #7EABC9",
";	c #5860AF",
">	c #DECDAE",
",	c #5C4E43",
"'	c #20191A",
")	c #304053",
"!	c #93BEE9",
"~	c #CAB996",
"{	c #060C2F",
"]	c #4A86B6",
"^	c #C7B48E",
"/	c #070E3C",
"(	c #8385B8",
"_	c #776452",
":	c #1E140D",
"<	c #010103",
"[	c #18283E",
"}	c #90BFE9",
"|	c #A3A3C6",
"1	c #000000",
".+@#$           ",
"%&  *           ",
"=-    ;;;;;;;   ",
">,')!       ;   ",
"   ~{     ;;;;; ",
"]  ^/      (;(  ",
"_:<[}      |;|  ",
"            ;   ",
"                ",
"       111 .+@#$",
"        1  %&  *",
"        1  =-   ",
"        1  >,')!",
"        1     ~{",
"        1  ]  ^/",
"       111 _:<[}"};
