/* XPM */
static const char * substrate_xpm[] = {
"30 15 10 1",
" 	c None",
".	c #E21A00",
"+	c #5B5B5B",
"@	c #000000",
"#	c #212121",
"$	c #606060",
"%	c #363636",
"&	c #262626",
"*	c #5E5E5E",
"=	c #575757",
"                              ",
"                              ",
"                              ",
"                              ",
"......                        ",
"......                  +     ",
"......                  @@#$  ",
"......  @@@@@@@@@@@@@@@@@@@@@%",
"......                  @@&*  ",
"......                  =     ",
"......                        ",
"                              ",
"                              ",
"                              ",
"                              "};
