/* XPM */
static char *viewIcon[] = {
/* columns rows colors chars-per-pixel */
"16 16 128 2",
"   c #003399",
".  c #0066CC",
"X  c gray100",
"o  c #5A3B00",
"O  c #996600",
"+  c #E6B300",
"@  c #C4F3FF",
"#  c #D9A600",
"$  c #45B9FF",
"%  c #F9CD4F",
"&  c #E5B94E",
"*  c #83D5FF",
"=  c #94D6FD",
"-  c #CC9900",
";  c #0C9FFF",
":  c #B0E9FF",
">  c #23A7FF",
",  c #68C3FE",
"<  c #ADE1FE",
"1  c #57BCFE",
"2  c #CCF7FF",
"3  c #9CE0FF",
"4  c #B6EDFF",
"5  c #BDE5FF",
"6  c #B5ECFF",
"7  c #67C7FF",
"8  c #80D3FF",
"9  c #FFDB9D",
"0  c #95DBFF",
"q  c #DEFFFF",
"w  c #6ACAFF",
"e  c #059BFF",
"r  c #C9E9FF",
"t  c #ACDFFF",
"y  c #54BFFF",
"u  c #BEF1FF",
"i  c #BDF0FF",
"p  c #C5EFFF",
"a  c #5FBFFF",
"s  c #099CFF",
"d  c #58C0FF",
"f  c #90DBFF",
"g  c #92D5FF",
"h  c #AAE7FF",
"j  c #A5DBFF",
"k  c #30ADFF",
"l  c #7DCEFF",
"z  c #D5F7FF",
"x  c #82CEFF",
"c  c #B8E3FF",
"v  c #83D3FF",
"b  c #1FA6FF",
"n  c #B9E4FF",
"m  c #75CFFF",
"M  c #73C9FF",
"N  c #76D0FF",
"B  c #A4DBFF",
"V  c #94DDFF",
"C  c #30AFFF",
"Z  c #77CCFF",
"A  c #4DBDFF",
"S  c #8CDAFF",
"D  c #A3DFFD",
"F  c #91DCFF",
"G  c #A3E4FF",
"H  c None",
"J  c black",
"K  c black",
"L  c black",
"P  c black",
"I  c black",
"U  c black",
"Y  c black",
"T  c black",
"R  c black",
"E  c black",
"W  c black",
"Q  c black",
"!  c black",
"~  c black",
"^  c black",
"/  c black",
"(  c black",
")  c black",
"_  c black",
"`  c black",
"'  c black",
"]  c black",
"[  c black",
"{  c black",
"}  c black",
"|  c black",
" . c black",
".. c black",
"X. c black",
"o. c black",
"O. c black",
"+. c black",
"@. c black",
"#. c black",
"$. c black",
"%. c black",
"&. c black",
"*. c black",
"=. c black",
"-. c black",
";. c black",
":. c black",
">. c black",
",. c black",
"<. c black",
"1. c black",
"2. c black",
"3. c black",
"4. c black",
"5. c black",
"6. c black",
"7. c black",
"8. c black",
"9. c black",
"0. c black",
"q. c black",
"w. c black",
"e. c black",
"r. c black",
"t. c black",
"y. c black",
"u. c black",
/* pixels */
"H H H H H H H H . . . . H H H H ",
"H H H H H H . . , , 1 1 . . H H ",
"H H H H H . = c 5 a k > b > . H ",
"H H H H H . B r X j s e ; ; . H ",
"H H H H . = g t n x C $ A $ $ . ",
"H H H H . = Z l M d w * S * * . ",
"H H H H   < v 7 y m V : i : D   ",
"H H H H   < 0 8 N f h @ q @ @   ",
"H H H H H   3 3 F G 6 @ 2 2   H ",
"H H H O O   X X p 4 u z X X   H ",
"H H O & 9 +     X X X X     H H ",
"H O & % + # o H         H H H H ",
"O & % + # - o H H H H H H H H H ",
"O % + # - o H H H H H H H H H H ",
"o + # - o H H H H H H H H H H H ",
"H o o o H H H H H H H H H H H H "
};
