/* XPM */
static char * Copasi48_Alpha_xpm[] = {
"48 48 204 2",
"  	c None",
". 	c #F7F7BB",
"+ 	c #DADA59",
"@ 	c #D2D240",
"# 	c #D3D340",
"$ 	c #F7F7C2",
"% 	c #D1D140",
"& 	c #B6B646",
"* 	c #474761",
"= 	c #2B2B69",
"- 	c #2B2B6A",
"; 	c #484863",
"> 	c #BFBF60",
", 	c #F8F8C3",
"' 	c #B6B647",
") 	c #2A2A6A",
"! 	c #24246D",
"~ 	c #07077A",
"{ 	c #01017E",
"] 	c #323266",
"^ 	c #6A6A58",
"/ 	c #E1E172",
"( 	c #474762",
"_ 	c #D4D440",
": 	c #08087A",
"< 	c #F6F6BB",
"[ 	c #BDBD60",
"} 	c #474763",
"| 	c #B7B746",
"1 	c #D2D241",
"2 	c #3F3F66",
"3 	c #00007E",
"4 	c #F6F6C2",
"5 	c #F5F5BB",
"6 	c #3E3E66",
"7 	c #F4F5C3",
"8 	c #D5D75B",
"9 	c #B4B449",
"0 	c #F3F4C4",
"a 	c #B7BA63",
"b 	c #494A62",
"c 	c #404165",
"d 	c #090979",
"e 	c #01017D",
"f 	c #F5F6C3",
"g 	c #B9BC62",
"h 	c #404163",
"i 	c #3F4065",
"j 	c #B5B547",
"k 	c #FBF7B8",
"l 	c #ECDA48",
"m 	c #E9D22C",
"n 	c #E9D32B",
"o 	c #FAF7B8",
"p 	c #DBB624",
"q 	c #A14708",
"r 	c #932B01",
"s 	c #DAB625",
"t 	c #8C2304",
"u 	c #710711",
"v 	c #6A0014",
"w 	c #6A0015",
"x 	c #6D0011",
"y 	c #7F0703",
"z 	c #8F2401",
"A 	c #FAF7BF",
"B 	c #5B0023",
"C 	c #24005A",
"D 	c #160068",
"E 	c #160069",
"F 	c #5C0023",
"G 	c #A54D09",
"H 	c #07077B",
"I 	c #D9B625",
"J 	c #8C2404",
"K 	c #1D0765",
"L 	c #35235C",
"M 	c #2E2A66",
"N 	c #2E2B66",
"O 	c #3C2A58",
"P 	c #47234A",
"Q 	c #66071C",
"R 	c #7B0003",
"S 	c #902401",
"T 	c #FAF6B8",
"U 	c #F6F6B4",
"V 	c #23236D",
"W 	c #9D470B",
"X 	c #7F2412",
"Y 	c #6D0715",
"Z 	c #B9B643",
"` 	c #5F3E44",
" .	c #66071B",
"..	c #7E0703",
"+.	c #A14608",
"@.	c #D9D934",
"#.	c #454561",
"$.	c #464662",
"%.	c #62071F",
"&.	c #23005A",
"*.	c #190769",
"=.	c #272469",
"-.	c #B6B746",
";.	c #F7F7B4",
">.	c #B9B743",
",.	c #43244D",
"'.	c #5F011F",
").	c #FAF6B1",
"!.	c #D2D216",
"~.	c #2A2A69",
"{.	c #24246E",
"].	c #FAF6BF",
"^.	c #DDBD41",
"/.	c #A14709",
"(.	c #700711",
"_.	c #20005E",
":.	c #0A0776",
"<.	c #A24507",
"[.	c #EBD924",
"}.	c #D3D315",
"|.	c #9D3E08",
"1.	c #5F001F",
"2.	c #190768",
"3.	c #D1D340",
"4.	c #942B00",
"5.	c #E8D201",
"6.	c #5E001F",
"7.	c #27075A",
"8.	c #282469",
"9.	c #A14507",
"0.	c #433F61",
"a.	c #433E61",
"b.	c #7F2312",
"c.	c #D8B628",
"d.	c #A24709",
"e.	c #423E61",
"f.	c #674744",
"g.	c #DEDA56",
"h.	c #6C0011",
"i.	c #2A0757",
"j.	c #5E3E46",
"k.	c #C2BD5C",
"l.	c #5B0022",
"m.	c #35245B",
"n.	c #B7B745",
"o.	c #F7F7BC",
"p.	c #CDB633",
"q.	c #553F51",
"r.	c #E9D42C",
"s.	c #DFBD41",
"t.	c #6D0714",
"u.	c #5F0722",
"v.	c #D9B624",
"w.	c #9E3F08",
"x.	c #820700",
"y.	c #513E54",
"z.	c #C2BD5D",
"A.	c #553E50",
"B.	c #CBB632",
"C.	c #E8D12B",
"D.	c #E9D12B",
"E.	c #690015",
"F.	c #3E3E64",
"G.	c #FBF7BF",
"H.	c #DFBF41",
"I.	c #902A03",
"J.	c #7F2311",
"K.	c #740E11",
"L.	c #8D2404",
"M.	c #932A01",
"N.	c #35245C",
"O.	c #4B4760",
"P.	c #FAF694",
"Q.	c #ECD91D",
"R.	c #E7D101",
"S.	c #D9B500",
"T.	c #A14600",
"U.	c #942A00",
"V.	c #902200",
"W.	c #7F0000",
"X.	c #D3D239",
"Y.	c #D2D11B",
"Z.	c #D3D215",
"`.	c #CFCB15",
" +	c #C1AF15",
".+	c #BEA715",
"++	c #AF8B15",
"@+	c #771C15",
"#+	c #680015",
"$+	c #23005B",
"%+	c #12006C",
"&+	c #0A0777",
"*+	c #23236C",
"=+	c #2A2969",
"-+	c #262269",
";+	c #180769",
">+	c #150069",
",+	c #27236A",
"'+	c #DADA51",
")+	c #B7B72C",
"!+	c #40405F",
"~+	c #FEFEBF",
"{+	c #F6F64B",
"]+	c #BDBD44",
"                                                                                                ",
"                                                                                                ",
"                                                                                                ",
"                                                                                                ",
"                                                        . + @ # # # @ + $                       ",
"                                                . + @ % & * = - - - = ; > ,                     ",
"                                            . + ' * = ) ! ~ { ~ ! ) - ] ^ /                     ",
"                                        . + ' ( ! ~ { ~ ! ) = * & % # _ + ,                     ",
"                                    $ + ' ( ! : : ! = * & % @ + .                               ",
"                                  < [ } ! ~ ~ ! ( | 1 + .                                       ",
"                              . + ' 2 ~ 3 ~ 2 ' + .                                             ",
"                          $ + ' ( ! ~ ~ ! } [ <                                                 ",
"                        4 [ } ! ~ 3 ~ 2 ' + $                                                   ",
"                      5 [ 6 ~ 3 ~ ! } [ <                                                       ",
"                  7 8 9 6 ~ 3 ~ 2 ' + $                                                         ",
"                0 a b ! ~ ~ ! } [ <                                                             ",
"              0 a c d e ~ 2 ' + $                                                               ",
"            f g h d ~ ! } [ <                                                                   ",
"          4 [ i d ~ 2 j + $                                                                     ",
"        4 [ 2 : ~ 6 [ <                                           k l m n n n m l o             ",
"      4 [ 6 ~ ~ 6 [ 4                                       k l m p q r r r r r q s l o         ",
"    4 [ 6 ~ ~ 6 [ 4                                   o l m p q r t u v w w v x y z q s l A     ",
"  4 [ 6 ~ ~ 6 [ 4                                 o l s q r t u w B C D E E D C F x y z G l     ",
"  + } ~ H 6 [ 4                               o l I q J u w B C K L M - - - - N O P Q R S s T   ",
"U ' V { V ' <                             o l s W X Y F C K L N * & % # # # # # % Z `  ...+.l   ",
"@.#.H H $.+                           A l s q J %.&.D *.=.* -.1 + .               ;.>.,.'.t s ).",
"!.~.{ {.| <                         ].^./.J (.F _.:.! ( ' + .                       # N C (.<.[.",
"}.~.{ - %                         ].^.|...1.C 2.=.* ' + .                           3.- D w 4.5.",
"}.~.{ - #                       ].^.|...6.7.8.* ' + .                             < | =.&.(.9.[.",
"}.~.{ - #                     ].^.|...6.7.0.' + .                               4 [ a.7.B b.c.).",
"}.~.{ - #                     l d...6.7.e.[ <                                 4 [ e.7.B %.f.g.  ",
"}.~.{ - #                   T s z h.i.a.[ 4                                 < [ e.7.B %.j.k.4   ",
"}.~.{ - %                   l +...l.m.n.o.                              A l p.q.i.B %.j.k.4     ",
"!.~.{ {.| <                 r.r x C N #                               o s./.J t.B u.j.k.4       ",
"@.#.H H $.+                 r.r x &.=.| ;.                      k l m v.w.x.R 6.i.y.z.4         ",
"U ' V { V ' U               l d...1.i.A.B.C.n n n n n n n n n D.p q r t (.E.B 7.e.[ 4           ",
"  + } ~ H F.& + .           G.H.q I.J.K.L.M.r r r r r r r r r M.t u w B C K N.O.[ 4             ",
"  4 [ 6 ~ ~ ! ( ' + .         P.Q.R.S.T.U.V.x.W.W.W.W.W.W.W.R x B &.D *.8.* ' + $               ",
"    4 [ } ! : : ! ( & % # # # X.Y.Z.`. +.+++@+E.E.E.E.E.E.#+B $+%+&+! ( ' + .                   ",
"      $ + ' ( *+~ ~ V ) - - - - ~.~.~.~.=+-+;+>+>+>+>+>+>+E *.,+= * ' + .                       ",
"          . '+)+!+~ 3 3 { { { { { { { { 3 3 3 3 3 3 3 ~ V = * & 1 + .                           ",
"            ~+{+]+* = - - - - - - - - - - - - - - - = * & 1 + .                                 ",
"                . + @ # # # # # # # # # # # # # # # @ + .                                       ",
"                                                                                                ",
"                                                                                                ",
"                                                                                                ",
"                                                                                                ",
"                                                                                                "};
