/* XPM */
static const char * unlocked_xpm[] = {
"30 15 13 1",
" 	c None",
".	c #9D9D9D",
"+	c #686868",
"@	c #C4C4C4",
"#	c #797979",
"$	c #858585",
"%	c #8D8D8D",
"&	c #C3C3C3",
"*	c #939393",
"=	c #B2A700",
"-	c #DDCF00",
";	c #F2EC73",
">	c #EADF43",
"                .++++@        ",
"               .#$...%&       ",
"               +*    +.       ",
"               +.    +.       ",
"               +.    +.       ",
"               +.    +.       ",
"               +.    +.       ",
"        =----;>>--    .       ",
"        =----;>>--   +.       ",
"        =----;>>--            ",
"        =----;>>--            ",
"        =----;>>--            ",
"        =----;>>--            ",
"        =----;>>--            ",
"        =----;>>--            "};
